<svg xmlns="http://www.w3.org/2000/svg" xmlns:xlink="http://www.w3.org/1999/xlink" width="1024" height="1024">
	<g>
		<path fill="#020101" d="M198.77 246.181C211.824 246.757 225.017 246.45 238.088 246.458L308.403 246.4L550.642 246.407L623.507 246.363C636.049 246.333 648.757 245.873 661.283 246.323C690.117 246.781 719.022 246.354 747.865 246.396C757.466 246.409 773.294 245.302 782.282 246.745C785.255 247.223 788.369 249.123 790.461 251.241C793.128 253.942 794.992 257.433 795.343 261.243C795.891 267.188 795.608 273.316 795.573 279.281L795.466 308.187L795.529 409.243L795.492 706.66C802.742 691.684 808.15 675.286 814.201 659.765L835.587 605.707Q844.362 582.753 853.68 560.013C849.813 558.381 845.803 556.878 842.226 554.666C844.012 550.476 849.344 534.154 852.016 532.311C854.981 532.672 884.217 545.308 889.373 547.397Q906.078 554.258 922.905 560.817C932.594 564.589 942.585 568.182 951.91 572.779C948.692 580.087 946.108 588.053 942.264 595.017C935.492 593.142 929.233 589.765 922.572 587.562C901.3 634.578 883.874 683.379 863.748 730.892C867.353 740.123 869.123 750.563 871.355 760.216Q878.387 791.162 884.864 822.228C886.864 831.668 890.196 841.633 891.222 851.181C891.529 854.043 891.535 857.107 890.309 859.776C889.2 862.19 886.96 863.999 884.468 864.845C881.692 865.787 879.243 865.314 876.496 864.51C866.612 861.617 857.007 856.497 847.435 852.6Q821.883 842.318 796.473 831.69C781.021 825.212 765.558 818.304 749.592 813.175C736.64 830.757 721.766 843.457 699.459 846.716C686.878 848.553 672.141 846.32 660.727 840.674C656.633 843.162 652.478 844.477 647.69 843.22C643.409 842.096 639.838 839.087 637.736 835.222C635.372 830.877 635.088 825.929 636.623 821.27C636.669 821.132 636.717 820.996 636.764 820.859C624.234 804.958 617.376 788.839 619.897 768.167C622.421 747.46 633.343 733.931 647.508 719.656C606.773 718.608 565.801 719.634 525.036 719.696L434.309 719.805C418.099 719.812 401.845 719.55 385.64 719.839C391.672 739.923 399.653 759.382 406.104 779.34C398.937 783.525 389.608 785.636 381.712 788.252Q366.75 793.248 351.872 798.488L192.949 853.389C183.784 857.287 173.943 860.237 164.491 863.417C160.847 854.903 158.227 845.867 155.143 837.131Q146.062 811.807 137.309 786.368L92.1454 657.193C84.2841 634.613 77.2557 611.507 68.6492 589.22C73.8811 587.661 78.9523 585.615 84.2134 584.144C91.7883 581.287 99.5763 578.987 107.308 576.599C115.481 573.269 124.291 570.846 132.663 567.988L181.389 551.304C180.369 516.279 181.019 481.078 181.041 446.032L180.991 266.574C181.237 261.894 182.214 257.509 185.12 253.708C188.55 249.221 193.285 246.952 198.77 246.181Z"/>
		<path fill="#FEFEFE" d="M97.7394 582.368Q179.037 555.051 259.91 526.498C276.223 520.856 292.395 514.669 308.804 509.327C312.019 517.118 314.483 525.215 317.213 533.185Q324.528 554.073 331.61 575.04L370.43 686.241C377.926 707.86 386.127 729.229 393.74 750.812C396.894 759.751 400.944 769.135 402.967 778.388C386.305 784.58 369.237 789.898 352.433 795.718L249.106 831.484L209.22 845.225C203.492 847.21 196.289 848.855 191.073 851.923C191.788 852.862 191.846 853.021 192.949 853.389C183.784 857.287 173.943 860.237 164.491 863.417C160.847 854.903 158.227 845.867 155.143 837.131Q146.062 811.807 137.309 786.368L92.1454 657.193C84.2841 634.613 77.2557 611.507 68.6492 589.22C73.8811 587.661 78.9523 585.615 84.2134 584.144C87.87 584.857 92.0311 583.249 95.5402 582.224C97.5869 587.484 99.3571 594.092 102.26 598.856C103.053 599.071 102.734 599.123 103.224 598.962C101.504 593.404 99.3168 587.959 97.7394 582.368Z"/>
		<path fill="#020101" d="M95.5402 582.224C97.5869 587.484 99.3571 594.092 102.26 598.856C103.053 599.071 102.734 599.123 103.224 598.962C107.658 608.348 111.616 622.978 115.24 633.439Q128.356 671.912 141.938 710.223C154.426 745.82 167.119 781.384 179.104 817.153C182.557 827.458 188.982 841.904 191.073 851.923C191.788 852.862 191.846 853.021 192.949 853.389C183.784 857.287 173.943 860.237 164.491 863.417C160.847 854.903 158.227 845.867 155.143 837.131Q146.062 811.807 137.309 786.368L92.1454 657.193C84.2841 634.613 77.2557 611.507 68.6492 589.22C73.8811 587.661 78.9523 585.615 84.2134 584.144C87.87 584.857 92.0311 583.249 95.5402 582.224Z"/>
		<path fill="#7478F6" d="M321.578 657.015L321.88 657.098C325.257 660.084 352.859 744.946 357.142 756.036C348.931 759.753 339.831 762.403 331.334 765.522C305.828 774.886 280.009 783.333 254.304 792.134C241.327 796.577 227.991 800.686 215.368 806.046L214.363 805.858C211.251 800.76 209.851 793.567 207.724 787.895C201.696 771.824 196.107 755.676 190.49 739.461C186.776 728.741 182.842 718.05 179.623 707.171C185.823 704.312 192.575 702.191 199.01 699.912Q215.1 694.141 231.26 688.568C261.272 677.91 291.236 666.664 321.578 657.015Z"/>
		<path fill="#020101" d="M296.787 597.953C297.176 597.97 297.837 598.222 298.221 598.33L298.48 599.266C297.945 600.184 297.304 600.482 296.335 600.867C286.086 604.948 275.202 608.039 264.771 611.714L197.464 635.949C186.085 640.03 174.514 643.62 163.248 648.007C162.231 647.603 162.258 647.659 161.788 646.677C162.812 645.439 164.461 644.945 165.924 644.376C174.781 640.931 184.044 638.316 192.987 635.043L296.787 597.953Z"/>
		<path fill="#020101" d="M283.857 576.609C284.205 577.858 284.246 577.243 283.71 578.45C278.658 581.055 272.783 582.695 267.413 584.597L234.602 596.021C207.562 605.415 180.838 615.593 153.66 624.622C153.501 623.76 153.548 623.436 153.715 622.602C154.213 622.181 154.601 621.842 155.202 621.57C158.817 619.931 163.304 618.96 167.097 617.669Q180.17 613.206 193.124 608.406Q222.049 597.79 251.145 587.658C261.987 583.864 272.813 579.767 283.857 576.609Z"/>
		<path fill="#020101" d="M284.164 628.98C284.857 628.981 285.131 629.246 285.728 629.574L285.812 630.48C284.644 631.516 283.317 632.064 281.882 632.625C276.543 634.713 270.883 636.003 265.498 637.974L203.115 660.615L202.002 660.773L201.387 659.757L201.756 658.841C206.064 655.853 217.801 652.79 223.238 650.826Q253.604 639.633 284.164 628.98Z"/>
		<path fill="#020101" d="M245.41 563.566L246.274 564.209L246.216 565.136C241.719 568.684 222.101 574.233 215.73 576.461L169.634 592.703C169.232 592.23 169.059 591.826 168.808 591.265C170.597 588.611 236.323 566.564 245.41 563.566Z"/>
		<path fill="#FEFEFE" d="M218.774 338.209C241.832 337.657 264.969 337.994 288.035 337.967L415.06 337.95L760.309 337.981L760.467 578.074C760.468 613.141 760.943 648.245 760.487 683.308C748.96 683.557 737.393 683.408 725.862 683.44C727.604 666.54 730.16 649.782 732.626 632.98C735.036 633.385 737.439 633.465 739.874 633.568C740.865 628.143 741.499 622.376 741.652 616.868L728.546 615.344Q702.733 612.281 676.874 609.633C675.817 614.952 675.473 620.414 675.194 625.819L683.759 627.079C683.293 635.697 681.744 644.431 680.596 652.988C679.259 662.957 678.195 673.103 676.259 682.973C662.646 683.676 648.804 683.216 635.174 683.147L569.414 682.933L371.847 682.997C361.755 651.545 350.115 620.39 339.143 589.229C329.4 561.558 320.254 533.667 310.313 506.067C297.263 510.083 284.372 515.316 271.497 519.903C253.365 526.362 235.065 532.398 216.839 538.589L216.879 395.872L216.861 357.069C216.851 351.798 215.895 345.112 217.083 340.062C217.379 338.804 217.712 338.81 218.774 338.209Z"/>
		<path fill="#020101" d="M344.77 418.532C348.965 418.456 352.967 419.039 357.083 419.813C387.656 425.559 417.568 440.114 435.375 466.557C447.975 485.268 451.471 507.452 448.164 529.516C446.951 537.614 444.709 545.579 443.124 553.616Q453.497 575.551 461.113 598.589C464.228 588.882 467.123 579.234 471.042 569.802C474.252 562.078 478.454 554.576 481.116 546.658C476.272 528.898 475.104 510.04 480.451 492.245C487.286 469.495 502.536 451.489 523.499 440.445C537.5 433.068 552.768 429.03 568.404 427.046C571.031 426.712 574.917 425.788 577.447 426.76C578.262 427.074 578.363 427.75 578.744 428.478C579.288 433.075 579.934 437.648 580.226 442.272C581.913 469.029 574 497.415 556.014 517.722C537.073 539.106 511.129 546.61 483.459 548.183C477.895 559.27 472.911 570.962 468.74 582.652C466.333 589.399 464.834 598.298 461.222 604.388C460.316 604.089 459.967 603.645 459.581 602.78C458.075 599.407 457.104 595.472 455.9 591.963C451.765 579.906 447.621 566.189 440.78 555.34C440.683 555.186 440.583 555.035 440.484 554.882Q430.382 553.137 420.367 550.945C393.963 544.954 370.526 532.765 355.82 509.227C338.527 481.548 337.477 449.563 344.77 418.532Z"/>
		<path fill="#FEFEFE" d="M346.821 420.865C353.208 421.574 359.499 422.537 365.732 424.131C393.565 431.246 421.007 446.531 435.852 472.009C449.847 496.028 448.523 522.908 441.634 548.934C436.755 539.137 431.758 529.21 425.793 520.02C414.974 503.354 402.227 489.281 387.342 476.209C384.478 473.693 380.781 469.624 376.962 468.808C377.168 470.006 377.196 470.526 378.026 471.463C380.524 474.282 384.451 476.747 387.366 479.282Q396.262 487.097 404.245 495.843Q407.027 498.948 409.68 502.165Q412.332 505.381 414.851 508.704Q417.37 512.026 419.751 515.449Q422.131 518.872 424.37 522.389Q426.609 525.906 428.702 529.512Q430.795 533.118 432.739 536.806Q434.682 540.495 436.473 544.26Q438.264 548.025 439.9 551.86C433.305 551.453 426.692 550.027 420.277 548.475C394.537 542.247 371.555 530.591 357.475 507.231C341.743 481.129 339.601 450.058 346.821 420.865Z"/>
		<path fill="#7478F6" d="M483.016 543.694Q482.706 542.65 482.421 541.599Q482.137 540.547 481.878 539.49Q481.62 538.432 481.387 537.368Q481.154 536.304 480.947 535.234Q480.741 534.165 480.56 533.091Q480.38 532.017 480.225 530.939Q480.071 529.861 479.944 528.779Q479.816 527.698 479.714 526.613Q479.613 525.529 479.538 524.443Q479.464 523.356 479.415 522.268Q479.367 521.18 479.346 520.091Q479.324 519.002 479.329 517.913Q479.334 516.824 479.366 515.735Q479.398 514.647 479.456 513.559Q479.514 512.472 479.599 511.386Q479.684 510.3 479.795 509.217Q479.907 508.133 480.044 507.053Q480.182 505.973 480.346 504.896Q480.511 503.82 480.701 502.747Q480.892 501.675 481.108 500.608Q481.325 499.54 481.567 498.479Q481.81 497.417 482.079 496.361Q482.347 495.306 482.641 494.257Q482.936 493.209 483.255 492.168Q483.575 491.127 483.92 490.094Q484.266 489.061 484.636 488.037Q485.006 487.012 485.401 485.997Q485.797 484.983 486.216 483.978Q486.636 482.973 487.081 481.979Q487.525 480.984 487.994 480.001Q488.462 479.018 488.955 478.046Q489.447 477.075 489.963 476.116C501.603 454.665 523.153 440.692 546.2 434.046Q553.544 431.927 561.091 430.718Q568.638 429.509 576.276 429.228C581.011 457.359 575.816 486.272 559.171 509.768C545.032 529.726 523.934 540.109 500.22 543.993C494.963 544.854 489.614 545.521 484.28 545.576C495.337 527.339 506.662 509.983 521.012 494.122C520.371 493.142 519.978 493.248 518.905 492.883C504.823 507.695 492.211 525.47 483.016 543.694Z"/>
		<path fill="#020101" d="M527.281 484.578C531.154 480.767 536.26 475.236 541.397 473.333L541.964 473.646C541.276 477.061 530.716 484.59 527.631 487.503C525.47 489.755 523.34 492.039 521.012 494.122C520.371 493.142 519.978 493.248 518.905 492.883C521.624 490.032 524.424 487.292 527.281 484.578Z"/>
		<path fill="#FEFEFE" d="M183.624 300.181C192.293 299.636 201.222 300.004 209.917 299.999L258.356 299.984L407.451 299.999L651.604 300.028C698.69 300.006 745.852 299.433 792.929 300.146L793.364 566.061L793.156 654.896C793.104 672.449 793.363 690.073 792.802 707.614C787.263 710.645 782.002 714.233 776.691 717.646C766.332 717.454 729.136 719.027 722.06 716.181C720.415 713.558 724.76 690.164 725.441 685.93C738.085 685.608 750.737 685.993 763.385 685.588C762.462 672.402 762.992 658.873 762.964 645.656L762.85 575.087L762.553 417.202C762.533 390.065 763.313 362.774 762.615 335.665Q761.471 335.605 760.327 335.568C738.142 334.83 715.673 335.668 693.463 335.762L573.382 335.856L223.468 335.75C220.963 335.774 217.235 335.599 215.32 337.382C213.625 344.921 214.49 353.772 214.494 361.517L214.532 398.838L214.518 539.699C204.265 543.418 193.896 546.871 183.589 550.441C182.919 522.029 183.539 493.452 183.531 465.024L183.624 300.181Z"/>
		<path fill="#FEFEFE" d="M255.494 248.75L770.486 248.643C776.809 248.643 784.041 248.19 788.798 253.236C790.838 255.399 792.131 258.253 792.726 261.147C794.396 269.271 793.096 287.948 793.008 297.473C769.1 297.766 745.161 297.555 721.25 297.59L183.578 297.593C183.508 288.206 182.128 268.418 184.608 260.054C185.374 257.471 186.894 255.184 188.816 253.313C190.634 251.544 192.92 250.09 195.411 249.507C202.326 247.888 210.927 248.849 218.08 248.845L255.494 248.75Z"/>
		<path fill="#7478F6" d="M251.499 265.182Q251.732 265.117 251.967 265.063Q252.203 265.009 252.441 264.966Q252.679 264.924 252.919 264.893Q253.158 264.863 253.399 264.844Q253.64 264.826 253.882 264.819Q254.123 264.812 254.365 264.817Q254.607 264.822 254.848 264.839Q255.089 264.856 255.329 264.885Q255.569 264.913 255.807 264.954Q256.045 264.994 256.281 265.046Q256.517 265.099 256.75 265.162Q256.984 265.226 257.213 265.301Q257.443 265.376 257.669 265.463Q257.895 265.549 258.116 265.646Q258.337 265.743 258.553 265.851Q258.769 265.96 258.98 266.078Q259.191 266.197 259.395 266.325Q259.6 266.454 259.798 266.593Q259.996 266.732 260.186 266.88Q260.377 267.028 260.561 267.185Q260.744 267.343 260.92 267.509Q261.095 267.675 261.262 267.85Q261.429 268.025 261.587 268.207Q261.746 268.39 261.895 268.58Q262.044 268.771 262.183 268.968Q262.323 269.165 262.452 269.369Q262.582 269.573 262.701 269.783Q262.821 269.993 262.93 270.209Q263.039 270.425 263.137 270.646Q263.235 270.867 263.323 271.092Q263.41 271.317 263.486 271.547Q263.562 271.776 263.627 272.009Q263.692 272.242 263.745 272.478Q263.798 272.713 263.84 272.951Q263.881 273.19 263.911 273.429Q263.941 273.669 263.959 273.91Q263.977 274.151 263.983 274.393Q263.989 274.634 263.983 274.876Q263.978 275.118 263.96 275.359Q263.942 275.6 263.913 275.84Q263.883 276.079 263.842 276.318Q263.801 276.556 263.748 276.792Q263.695 277.027 263.631 277.26Q263.566 277.493 263.491 277.723Q263.415 277.952 263.328 278.178Q263.241 278.403 263.143 278.624Q263.045 278.845 262.936 279.061Q262.828 279.277 262.708 279.487Q262.589 279.697 262.46 279.901Q262.33 280.105 262.191 280.303Q262.052 280.5 261.903 280.691Q261.754 280.881 261.596 281.064Q261.438 281.247 261.272 281.422Q261.105 281.597 260.93 281.763Q260.754 281.93 260.571 282.088Q260.388 282.245 260.197 282.394Q260.007 282.542 259.809 282.681Q259.611 282.82 259.407 282.949Q259.203 283.078 258.992 283.197Q258.782 283.316 258.566 283.424Q258.35 283.533 258.129 283.63Q257.908 283.728 257.682 283.815Q257.456 283.901 257.227 283.977Q256.997 284.052 256.764 284.116Q256.532 284.18 256.297 284.232Q256.062 284.284 255.825 284.325Q255.587 284.366 255.348 284.395Q255.109 284.424 254.869 284.442Q254.629 284.459 254.388 284.465Q254.148 284.47 253.907 284.464Q253.666 284.458 253.426 284.44Q253.186 284.422 252.947 284.392Q252.709 284.362 252.471 284.321Q252.234 284.279 251.999 284.226Q251.765 284.174 251.533 284.109Q251.301 284.045 251.072 283.969Q250.843 283.893 250.619 283.807Q250.394 283.72 250.174 283.622Q249.954 283.524 249.739 283.416Q249.524 283.308 249.315 283.189Q249.105 283.07 248.902 282.941Q248.699 282.813 248.502 282.674Q248.305 282.535 248.115 282.387Q247.925 282.239 247.743 282.082Q247.561 281.925 247.386 281.759Q247.212 281.593 247.046 281.418Q246.88 281.244 246.723 281.062Q246.565 280.879 246.417 280.69Q246.269 280.5 246.13 280.303Q245.992 280.106 245.863 279.903Q245.734 279.7 245.615 279.49Q245.496 279.281 245.388 279.066Q245.279 278.851 245.182 278.631Q245.084 278.411 244.997 278.187Q244.91 277.962 244.834 277.733Q244.758 277.505 244.694 277.273Q244.63 277.041 244.576 276.806Q244.523 276.571 244.482 276.334Q244.44 276.097 244.411 275.858Q244.381 275.619 244.363 275.379Q244.344 275.139 244.338 274.899Q244.332 274.658 244.337 274.417Q244.343 274.177 244.36 273.936Q244.377 273.696 244.406 273.457Q244.435 273.218 244.476 272.981Q244.517 272.744 244.569 272.509Q244.621 272.274 244.685 272.042Q244.748 271.81 244.823 271.581Q244.898 271.352 244.984 271.127Q245.07 270.902 245.167 270.682Q245.264 270.462 245.372 270.246Q245.48 270.031 245.598 269.821Q245.716 269.611 245.844 269.408Q245.972 269.204 246.11 269.007Q246.248 268.809 246.396 268.619Q246.543 268.429 246.7 268.246Q246.857 268.063 247.022 267.888Q247.188 267.714 247.361 267.547Q247.535 267.38 247.717 267.223Q247.899 267.065 248.088 266.916Q248.277 266.767 248.473 266.628Q248.67 266.488 248.873 266.359Q249.076 266.229 249.285 266.11Q249.494 265.99 249.708 265.881Q249.923 265.772 250.143 265.674Q250.362 265.575 250.586 265.488Q250.811 265.4 251.039 265.324Q251.267 265.247 251.499 265.182Z"/>
		<path fill="#7478F6" d="M282.869 265.051Q283.105 265.026 283.343 265.012Q283.58 264.998 283.818 264.996Q284.056 264.994 284.294 265.004Q284.531 265.013 284.768 265.034Q285.005 265.055 285.241 265.087Q285.476 265.12 285.71 265.164Q285.944 265.207 286.175 265.263Q286.407 265.318 286.635 265.384Q286.864 265.45 287.088 265.528Q287.313 265.605 287.534 265.693Q287.755 265.781 287.971 265.88Q288.188 265.979 288.399 266.088Q288.61 266.197 288.816 266.317Q289.022 266.436 289.222 266.565Q289.421 266.694 289.615 266.833Q289.808 266.972 289.994 267.12Q290.18 267.268 290.359 267.424Q290.538 267.581 290.709 267.747Q290.88 267.912 291.043 268.085Q291.205 268.259 291.36 268.44Q291.514 268.621 291.659 268.809Q291.804 268.998 291.94 269.193Q292.076 269.388 292.202 269.59Q292.328 269.791 292.445 269.999Q292.561 270.206 292.667 270.419Q292.773 270.632 292.869 270.85Q292.964 271.068 293.049 271.29Q293.134 271.512 293.208 271.738Q293.282 271.964 293.345 272.194Q293.408 272.423 293.46 272.655Q293.511 272.887 293.552 273.122Q293.592 273.356 293.621 273.592Q293.65 273.828 293.667 274.065Q293.685 274.302 293.691 274.54Q293.697 274.778 293.691 275.016Q293.685 275.254 293.668 275.491Q293.651 275.728 293.622 275.964Q293.594 276.2 293.554 276.435Q293.514 276.669 293.462 276.901Q293.411 277.133 293.348 277.363Q293.285 277.592 293.212 277.818Q293.138 278.045 293.053 278.267Q292.969 278.489 292.873 278.707Q292.778 278.925 292.672 279.138Q292.566 279.351 292.45 279.559Q292.334 279.766 292.208 279.968Q292.083 280.17 291.947 280.365Q291.811 280.56 291.666 280.749Q291.521 280.938 291.368 281.119Q291.214 281.3 291.051 281.474Q290.888 281.647 290.718 281.813Q290.547 281.979 290.368 282.136Q290.19 282.293 290.004 282.441Q289.818 282.589 289.624 282.728Q289.431 282.867 289.232 282.996Q289.032 283.126 288.827 283.245Q288.621 283.365 288.41 283.474Q288.199 283.584 287.983 283.683Q287.766 283.782 287.546 283.87Q287.325 283.959 287.1 284.036Q286.875 284.114 286.647 284.18Q286.419 284.247 286.187 284.303Q285.956 284.358 285.722 284.402Q285.489 284.446 285.253 284.479Q284.932 284.524 284.609 284.547Q284.287 284.57 283.963 284.572Q283.639 284.574 283.316 284.554Q282.993 284.535 282.672 284.494Q282.351 284.453 282.033 284.391Q281.715 284.329 281.402 284.246Q281.09 284.164 280.783 284.06Q280.476 283.957 280.177 283.834Q279.878 283.71 279.587 283.567Q279.297 283.425 279.016 283.263Q278.736 283.101 278.467 282.921Q278.198 282.741 277.941 282.544Q277.684 282.347 277.441 282.133Q277.198 281.919 276.97 281.69Q276.742 281.46 276.529 281.216Q276.316 280.972 276.12 280.715Q275.924 280.458 275.745 280.188Q275.566 279.918 275.406 279.637Q275.245 279.356 275.104 279.065Q274.962 278.773 274.84 278.474Q274.718 278.174 274.616 277.867Q274.514 277.56 274.433 277.246Q274.352 276.933 274.291 276.615Q274.23 276.297 274.191 275.976Q274.152 275.655 274.134 275.331Q274.115 275.008 274.119 274.685Q274.122 274.361 274.147 274.038Q274.171 273.716 274.217 273.395Q274.263 273.075 274.33 272.758Q274.397 272.441 274.485 272.13Q274.573 271.818 274.681 271.513Q274.789 271.208 274.917 270.911Q275.045 270.614 275.193 270.326Q275.34 270.037 275.506 269.76Q275.672 269.482 275.856 269.216Q276.041 268.949 276.242 268.696Q276.443 268.443 276.661 268.203Q276.878 267.963 277.111 267.739Q277.344 267.514 277.592 267.305Q277.839 267.096 278.1 266.904Q278.36 266.712 278.633 266.538Q278.906 266.364 279.189 266.208Q279.473 266.052 279.766 265.915Q280.059 265.778 280.361 265.66Q280.663 265.543 280.972 265.446Q281.28 265.349 281.595 265.273Q281.909 265.196 282.228 265.141Q282.547 265.085 282.869 265.051Z"/>
		<path fill="#7478F6" d="M222.786 264.808Q223.023 264.776 223.262 264.755Q223.5 264.735 223.74 264.726Q223.979 264.717 224.218 264.72Q224.458 264.723 224.697 264.738Q224.936 264.753 225.173 264.779Q225.411 264.806 225.648 264.844Q225.884 264.882 226.118 264.932Q226.353 264.981 226.584 265.042Q226.816 265.104 227.044 265.176Q227.272 265.248 227.496 265.332Q227.721 265.415 227.941 265.51Q228.161 265.604 228.376 265.709Q228.591 265.814 228.801 265.93Q229.011 266.045 229.214 266.171Q229.418 266.296 229.616 266.432Q229.813 266.567 230.003 266.712Q230.194 266.857 230.377 267.012Q230.56 267.166 230.736 267.329Q230.911 267.492 231.078 267.663Q231.245 267.834 231.404 268.014Q231.562 268.193 231.712 268.38Q231.862 268.567 232.002 268.761Q232.142 268.955 232.273 269.156Q232.403 269.357 232.524 269.564Q232.644 269.77 232.754 269.983Q232.865 270.195 232.964 270.413Q233.064 270.631 233.153 270.853Q233.242 271.075 233.319 271.302Q233.397 271.528 233.464 271.758Q233.531 271.988 233.586 272.221Q233.641 272.454 233.685 272.689Q233.729 272.925 233.761 273.162Q233.793 273.399 233.814 273.638Q233.834 273.876 233.843 274.116Q233.852 274.355 233.849 274.594Q233.846 274.834 233.831 275.073Q233.817 275.312 233.79 275.55Q233.764 275.788 233.726 276.024Q233.688 276.26 233.638 276.495Q233.588 276.729 233.527 276.96Q233.466 277.192 233.394 277.42Q233.322 277.648 233.238 277.873Q233.155 278.097 233.061 278.317Q232.966 278.537 232.861 278.752Q232.756 278.968 232.641 279.177Q232.525 279.387 232.4 279.591Q232.274 279.795 232.139 279.992Q232.003 280.19 231.858 280.38Q231.713 280.571 231.559 280.754Q231.405 280.937 231.242 281.112Q231.079 281.288 230.908 281.455Q230.736 281.622 230.557 281.781Q230.378 281.939 230.191 282.089Q230.004 282.239 229.81 282.379Q229.616 282.519 229.415 282.65Q229.214 282.78 229.007 282.901Q228.801 283.021 228.588 283.132Q228.376 283.242 228.158 283.342Q227.94 283.441 227.718 283.53Q227.496 283.619 227.269 283.697Q227.043 283.775 226.813 283.842Q226.583 283.908 226.35 283.964Q226.117 284.019 225.882 284.063Q225.646 284.107 225.409 284.139Q225.172 284.171 224.933 284.192Q224.695 284.212 224.455 284.221Q224.216 284.23 223.976 284.227Q223.737 284.224 223.498 284.21Q223.259 284.195 223.021 284.169Q222.783 284.142 222.547 284.104Q222.31 284.066 222.076 284.017Q221.842 283.967 221.61 283.906Q221.378 283.845 221.15 283.773Q220.922 283.7 220.697 283.617Q220.473 283.533 220.253 283.439Q220.033 283.345 219.817 283.24Q219.602 283.135 219.392 283.019Q219.183 282.904 218.979 282.778Q218.775 282.653 218.577 282.517Q218.38 282.382 218.189 282.237Q217.999 282.092 217.815 281.937Q217.632 281.783 217.457 281.62Q217.281 281.457 217.114 281.286Q216.947 281.114 216.788 280.935Q216.63 280.756 216.48 280.569Q216.33 280.382 216.19 280.188Q216.05 279.994 215.919 279.793Q215.789 279.592 215.668 279.385Q215.547 279.178 215.437 278.966Q215.327 278.753 215.227 278.535Q215.127 278.318 215.039 278.095Q214.95 277.873 214.872 277.647Q214.794 277.42 214.727 277.19Q214.66 276.96 214.605 276.727Q214.55 276.494 214.506 276.259Q214.462 276.023 214.43 275.786Q214.398 275.549 214.377 275.31Q214.357 275.071 214.348 274.832Q214.339 274.593 214.342 274.353Q214.345 274.114 214.36 273.875Q214.374 273.636 214.401 273.398Q214.427 273.16 214.465 272.923Q214.503 272.687 214.553 272.453Q214.603 272.218 214.664 271.987Q214.725 271.755 214.797 271.527Q214.869 271.298 214.953 271.074Q215.036 270.849 215.131 270.629Q215.225 270.409 215.33 270.194Q215.435 269.979 215.551 269.769Q215.666 269.559 215.792 269.355Q215.918 269.152 216.053 268.954Q216.189 268.757 216.334 268.566Q216.479 268.375 216.633 268.192Q216.787 268.009 216.95 267.834Q217.113 267.658 217.285 267.491Q217.456 267.324 217.636 267.165Q217.815 267.007 218.002 266.857Q218.189 266.707 218.383 266.567Q218.578 266.427 218.778 266.296Q218.979 266.166 219.186 266.045Q219.393 265.925 219.606 265.814Q219.818 265.704 220.036 265.604Q220.254 265.505 220.476 265.416Q220.699 265.327 220.925 265.249Q221.152 265.171 221.382 265.105Q221.612 265.038 221.845 264.983Q222.078 264.928 222.313 264.884Q222.549 264.84 222.786 264.808Z"/>
		<path fill="#FEFEFE" d="M856.429 561.011C877.807 568.826 899.261 577.577 920.018 586.883Q903.235 626.793 886.923 666.898C878.196 688.684 869.941 710.81 860.307 732.207C861.515 733.298 862.391 734.248 862.915 735.816C864.619 740.91 865.632 746.446 866.87 751.681C870.073 765.235 872.742 778.872 875.767 792.46L884.796 833.296C886.218 839.801 888.424 846.776 888.691 853.443C888.769 855.375 888.854 858.135 887.593 859.734C886.227 861.465 883.857 862.492 881.693 862.573C874.348 862.845 856.772 853.775 849.148 850.558L789.875 826.053C777.824 821.045 763.088 813.773 750.612 810.952Q753.285 804.636 755.732 798.23C759.823 783.489 759.229 768.448 754.538 753.979C752.869 749.782 751.011 745.739 749.013 741.689C762.254 731.189 783.113 715.018 797.865 707.781L835.337 613.045C842.075 595.827 848.01 577.452 856.429 561.011Z"/>
		<path fill="#7478F6" d="M793.007 725.762C803.595 730.692 814.598 734.643 825.456 738.931Q839.119 744.454 852.63 750.341C860.388 782.505 867.198 814.874 874.929 847.038C863.427 843.262 852.283 838.254 841.109 833.614L802.487 817.788C795.018 814.674 787.591 811.434 780.072 808.446C771.927 805.209 763.539 802.233 755.732 798.23C759.823 783.489 759.229 768.448 754.538 753.979C764.999 747.232 774.447 738.593 784.673 731.391C787.377 729.486 790.093 727.315 793.007 725.762Z"/>
		<path fill="#FEFEFE" d="M675.545 709.833C682.861 709.917 690.392 709.565 697.632 710.725Q699.372 711.012 701.095 711.383Q702.819 711.754 704.522 712.21Q706.225 712.665 707.904 713.204Q709.583 713.742 711.234 714.362Q712.884 714.982 714.502 715.682Q716.12 716.383 717.702 717.161Q719.284 717.94 720.826 718.795Q722.368 719.651 723.866 720.58Q725.364 721.51 726.814 722.512Q728.265 723.515 729.665 724.587Q731.064 725.659 732.41 726.798Q733.755 727.937 735.044 729.141Q736.332 730.345 737.559 731.611Q738.787 732.876 739.951 734.201Q741.115 735.525 742.213 736.904Q743.31 738.284 744.339 739.716C754.292 753.652 757.694 772.994 754.871 789.727Q754.583 791.355 754.215 792.968Q753.848 794.58 753.401 796.172Q752.954 797.764 752.43 799.333Q751.905 800.901 751.304 802.441Q750.702 803.982 750.026 805.491Q749.349 807 748.599 808.473Q747.849 809.947 747.028 811.382Q746.206 812.817 745.315 814.21Q744.423 815.603 743.464 816.95Q742.505 818.297 741.481 819.596Q740.457 820.894 739.37 822.14Q738.283 823.386 737.136 824.578Q735.989 825.769 734.785 826.902Q733.581 828.035 732.322 829.108Q731.063 830.18 729.753 831.189Q728.443 832.199 727.085 833.142C712.548 843.324 695.462 846.547 678.108 843.579C672.847 842.344 667.96 840.781 663.056 838.497C665.112 835.911 666.651 833.359 667.172 830.055Q667.301 829.242 667.349 828.42Q667.397 827.598 667.363 826.776Q667.329 825.953 667.213 825.138Q667.097 824.323 666.901 823.524Q666.704 822.724 666.429 821.948Q666.154 821.172 665.804 820.428Q665.453 819.683 665.03 818.977Q664.606 818.271 664.115 817.61Q663.624 816.959 663.069 816.361Q662.514 815.763 661.9 815.225Q661.287 814.687 660.622 814.215Q659.957 813.743 659.247 813.341Q658.537 812.939 657.79 812.612Q657.042 812.285 656.266 812.036Q655.489 811.787 654.69 811.619Q653.892 811.451 653.081 811.365C646.699 810.693 642.459 813.924 637.866 817.771C637.479 817.374 637.088 816.98 636.724 816.562C626.075 804.365 620.792 786.543 622.171 770.52C623.746 752.212 633.608 735.618 647.529 723.951C649.501 728.076 651.565 731.224 655.7 733.549Q656.349 733.922 657.032 734.228Q657.714 734.534 658.424 734.77Q659.135 735.006 659.865 735.17Q660.595 735.333 661.338 735.422Q662.081 735.512 662.829 735.526Q663.577 735.541 664.323 735.48Q665.068 735.42 665.804 735.284Q666.54 735.149 667.259 734.941Q667.998 734.725 668.711 734.433Q669.424 734.142 670.103 733.778Q670.782 733.415 671.42 732.983Q672.058 732.551 672.648 732.056Q673.237 731.561 673.773 731.007Q674.309 730.454 674.784 729.848Q675.26 729.242 675.67 728.59Q676.081 727.939 676.422 727.248C679.286 721.477 677.502 715.534 675.545 709.833Z"/>
		<path fill="#020101" d="M700.49 764.486Q700.71 764.453 700.931 764.432Q701.152 764.409 701.374 764.398Q701.596 764.387 701.818 764.386Q702.04 764.385 702.262 764.396Q702.484 764.406 702.706 764.426Q702.927 764.447 703.147 764.478Q703.367 764.509 703.585 764.551Q703.804 764.593 704.02 764.645Q704.236 764.698 704.449 764.76Q704.662 764.823 704.872 764.895Q705.082 764.968 705.288 765.051Q705.495 765.134 705.697 765.226Q705.899 765.319 706.096 765.421Q706.293 765.523 706.485 765.635Q706.678 765.746 706.864 765.867Q707.051 765.987 707.232 766.117Q707.412 766.246 707.586 766.384Q707.761 766.522 707.928 766.668Q708.095 766.815 708.255 766.969Q708.416 767.123 708.568 767.284Q708.721 767.446 708.865 767.615Q709.01 767.783 709.146 767.959Q709.283 768.134 709.411 768.316Q709.538 768.498 709.657 768.686Q709.776 768.874 709.886 769.067Q709.995 769.26 710.096 769.458Q710.196 769.657 710.287 769.86Q710.377 770.062 710.458 770.269Q710.539 770.477 710.61 770.687Q710.681 770.898 710.741 771.112Q710.802 771.325 710.852 771.542Q710.902 771.758 710.942 771.977Q710.982 772.196 711.011 772.416Q711.04 772.636 711.059 772.858Q711.077 773.079 711.085 773.301Q711.093 773.523 711.09 773.745Q711.088 773.968 711.074 774.189Q711.061 774.411 711.037 774.632Q711.013 774.853 710.978 775.073Q710.943 775.292 710.898 775.51Q710.853 775.727 710.797 775.942Q710.742 776.157 710.676 776.37Q710.61 776.582 710.534 776.791Q710.458 777 710.372 777.205Q710.286 777.41 710.191 777.61Q710.095 777.811 709.99 778.006Q709.885 778.202 709.77 778.393Q709.656 778.583 709.532 778.768Q709.409 778.953 709.277 779.131Q709.145 779.31 709.004 779.482Q708.863 779.654 708.715 779.819Q708.566 779.984 708.409 780.142Q708.253 780.3 708.089 780.45Q707.925 780.6 707.754 780.742Q707.583 780.884 707.406 781.018Q707.228 781.151 707.044 781.276Q706.86 781.401 706.671 781.517Q706.481 781.633 706.286 781.74Q706.091 781.847 705.892 781.944Q705.692 782.041 705.488 782.129Q705.283 782.216 705.075 782.294Q704.867 782.371 704.655 782.439Q704.444 782.506 704.229 782.564Q704.014 782.621 703.797 782.668Q703.495 782.733 703.189 782.778Q702.884 782.823 702.576 782.848Q702.268 782.872 701.959 782.876Q701.65 782.88 701.341 782.863Q701.033 782.846 700.726 782.808Q700.419 782.771 700.116 782.713Q699.812 782.655 699.513 782.577Q699.214 782.5 698.921 782.402Q698.628 782.304 698.342 782.187Q698.056 782.07 697.779 781.934Q697.501 781.798 697.233 781.644Q696.966 781.49 696.709 781.318Q696.452 781.147 696.207 780.958Q695.962 780.77 695.73 780.566Q695.499 780.361 695.281 780.142Q695.063 779.922 694.861 779.689Q694.659 779.456 694.472 779.209Q694.286 778.963 694.116 778.704Q693.947 778.446 693.795 778.177Q693.643 777.908 693.509 777.629Q693.376 777.351 693.261 777.064Q693.146 776.777 693.051 776.483Q692.956 776.189 692.88 775.889Q692.805 775.59 692.75 775.286Q692.694 774.982 692.659 774.675Q692.625 774.368 692.61 774.059Q692.596 773.75 692.602 773.441Q692.609 773.132 692.636 772.825Q692.663 772.517 692.71 772.211Q692.758 771.906 692.826 771.605Q692.893 771.303 692.981 771.007Q693.069 770.711 693.176 770.421Q693.283 770.131 693.41 769.849Q693.536 769.567 693.681 769.295Q693.826 769.022 693.989 768.759Q694.151 768.497 694.331 768.245Q694.511 767.994 694.708 767.756Q694.904 767.517 695.116 767.292Q695.328 767.067 695.554 766.857Q695.781 766.647 696.021 766.452Q696.26 766.258 696.513 766.079Q696.765 765.901 697.029 765.74Q697.292 765.579 697.566 765.436Q697.84 765.293 698.123 765.169Q698.406 765.044 698.696 764.939Q698.987 764.834 699.284 764.748Q699.58 764.662 699.882 764.597Q700.184 764.531 700.49 764.486Z"/>
		<path fill="#FEFEFE" d="M700.485 767.075Q700.643 767.044 700.801 767.021Q700.96 766.997 701.12 766.981Q701.28 766.966 701.44 766.958Q701.601 766.95 701.761 766.95Q701.922 766.95 702.082 766.957Q702.242 766.965 702.402 766.98Q702.562 766.996 702.721 767.019Q702.88 767.042 703.037 767.073Q703.195 767.104 703.351 767.142Q703.507 767.181 703.661 767.226Q703.814 767.272 703.966 767.326Q704.117 767.379 704.266 767.44Q704.415 767.5 704.56 767.568Q704.706 767.636 704.848 767.71Q704.99 767.785 705.128 767.867Q705.267 767.948 705.401 768.036Q705.535 768.124 705.665 768.219Q705.795 768.313 705.92 768.414Q706.045 768.515 706.165 768.621Q706.285 768.728 706.4 768.84Q706.514 768.952 706.623 769.07Q706.733 769.188 706.836 769.311Q706.939 769.434 707.036 769.562Q707.134 769.689 707.225 769.822Q707.316 769.954 707.4 770.09Q707.484 770.227 707.562 770.367Q707.64 770.508 707.711 770.652Q707.781 770.796 707.845 770.944Q707.909 771.091 707.965 771.241Q708.022 771.391 708.071 771.544Q708.12 771.697 708.162 771.852Q708.204 772.007 708.238 772.164Q708.272 772.321 708.299 772.479Q708.325 772.638 708.344 772.797Q708.363 772.956 708.374 773.117Q708.385 773.277 708.388 773.437Q708.392 773.598 708.387 773.758Q708.383 773.919 708.37 774.079Q708.358 774.239 708.338 774.398Q708.318 774.558 708.291 774.716Q708.263 774.874 708.228 775.031Q708.192 775.187 708.149 775.342Q708.106 775.497 708.056 775.649Q708.006 775.802 707.948 775.951Q707.891 776.101 707.826 776.248Q707.761 776.395 707.689 776.539Q707.617 776.682 707.538 776.822Q707.46 776.962 707.374 777.098Q707.289 777.234 707.197 777.366Q707.105 777.497 707.007 777.624Q706.909 777.751 706.804 777.873Q706.7 777.995 706.59 778.112Q706.48 778.229 706.364 778.341Q706.249 778.452 706.128 778.558Q706.007 778.664 705.881 778.763Q705.756 778.863 705.625 778.957Q705.495 779.05 705.36 779.137Q705.225 779.224 705.086 779.305Q704.947 779.385 704.804 779.459Q704.662 779.533 704.516 779.599Q704.369 779.666 704.22 779.725Q704.071 779.785 703.919 779.837Q703.768 779.889 703.613 779.934Q703.459 779.979 703.303 780.016Q703.089 780.067 702.873 780.104Q702.656 780.14 702.438 780.163Q702.22 780.185 702 780.193Q701.781 780.2 701.561 780.194Q701.342 780.187 701.123 780.165Q700.905 780.144 700.688 780.108Q700.472 780.073 700.258 780.023Q700.044 779.973 699.834 779.909Q699.624 779.845 699.419 779.767Q699.214 779.689 699.014 779.598Q698.814 779.507 698.621 779.402Q698.428 779.298 698.242 779.181Q698.056 779.064 697.878 778.936Q697.701 778.807 697.532 778.666Q697.363 778.526 697.204 778.375Q697.045 778.224 696.896 778.062Q696.747 777.901 696.609 777.73Q696.472 777.559 696.346 777.379Q696.219 777.199 696.105 777.012Q695.992 776.824 695.89 776.629Q695.789 776.434 695.701 776.233Q695.613 776.032 695.538 775.826Q695.463 775.619 695.403 775.408Q695.342 775.198 695.295 774.983Q695.248 774.769 695.216 774.551Q695.184 774.334 695.166 774.115Q695.148 773.897 695.144 773.677Q695.141 773.458 695.152 773.238Q695.163 773.019 695.189 772.801Q695.214 772.583 695.254 772.367Q695.294 772.151 695.349 771.938Q695.403 771.726 695.471 771.517Q695.539 771.308 695.621 771.105Q695.703 770.901 695.798 770.703Q695.893 770.505 696.001 770.314Q696.109 770.123 696.23 769.939Q696.35 769.756 696.482 769.581Q696.615 769.405 696.758 769.239Q696.902 769.073 697.056 768.917Q697.211 768.761 697.375 768.615Q697.539 768.47 697.713 768.335Q697.887 768.201 698.069 768.078Q698.251 767.956 698.441 767.846Q698.631 767.735 698.827 767.638Q699.024 767.54 699.227 767.456Q699.43 767.372 699.638 767.302Q699.845 767.231 700.057 767.174Q700.27 767.118 700.485 767.075Z"/>
		<path fill="#FEFEFE" d="M372.85 685.615C385.009 685.146 397.304 685.42 409.48 685.388L478.99 685.353L676.249 685.573Q674.647 696.861 672.812 708.113C670.646 707.22 668.435 706.625 666.182 706.002C663.167 705.723 660.412 705.857 657.542 706.916C652.527 708.768 649.895 712.498 647.756 717.133C626.915 716.892 606.044 717.329 585.199 717.372L460.61 717.465C435.402 717.483 409.976 718.124 384.791 717.209C379.96 707.194 376.293 696.179 372.85 685.615Z"/>
		<path fill="#FEFEFE" d="M686.601 627.429C700.995 628.472 716 630.295 730.226 632.692C726.037 659.828 723.3 687.239 718.782 714.304C704.346 708.076 691.076 707.081 675.606 707.39L686.601 627.429Z"/>
		<path fill="#FEFEFE" d="M852.618 535.371C870.226 541.932 887.442 549.519 904.889 556.486C919.149 562.179 934.294 567.234 947.981 574.126C946.004 580.078 943.491 585.89 941.138 591.702C935.523 590.973 923.508 585.061 917.574 582.684C893.604 573.086 869.885 562.814 845.64 553.926Q848.971 544.589 852.618 535.371Z"/>
		<path fill="#FEFEFE" d="M679.347 612.694C699.223 614.779 719.27 616.432 739.049 619.294Q738.534 625.107 737.87 630.905C718.028 627.901 697.634 627.239 677.946 623.627C678.233 620.006 678.31 616.187 679.347 612.694Z"/>
		<path fill="#FEFEFE" d="M648.782 814.299Q649.106 814.236 649.432 814.189Q649.758 814.142 650.087 814.111Q650.415 814.08 650.744 814.065Q651.074 814.05 651.404 814.052Q651.733 814.054 652.063 814.071Q652.392 814.089 652.72 814.123Q653.048 814.157 653.374 814.207Q653.7 814.257 654.023 814.323Q654.346 814.389 654.665 814.471Q654.985 814.553 655.3 814.651Q655.615 814.749 655.924 814.862Q656.234 814.975 656.538 815.103Q656.842 815.231 657.139 815.374Q657.436 815.517 657.726 815.674Q658.016 815.832 658.297 816.003Q658.579 816.175 658.852 816.36Q659.125 816.545 659.388 816.743Q659.651 816.942 659.905 817.153Q660.158 817.364 660.4 817.587Q660.643 817.811 660.874 818.046Q661.106 818.281 661.325 818.527Q661.544 818.773 661.751 819.03Q661.958 819.287 662.152 819.553Q662.347 819.82 662.527 820.096Q662.708 820.371 662.875 820.656Q663.042 820.94 663.195 821.232Q663.347 821.525 663.485 821.824Q663.624 822.124 663.747 822.429Q663.87 822.735 663.978 823.047Q664.086 823.359 664.178 823.675Q664.271 823.992 664.347 824.312Q664.424 824.633 664.485 824.957Q664.546 825.281 664.591 825.608Q664.636 825.935 664.664 826.263Q664.693 826.592 664.705 826.921Q664.718 827.251 664.714 827.58Q664.71 827.91 664.69 828.239Q664.67 828.568 664.634 828.896Q664.597 829.224 664.545 829.549Q664.493 829.875 664.424 830.197Q664.356 830.52 664.272 830.839Q664.188 831.158 664.088 831.472Q663.988 831.786 663.873 832.095Q663.758 832.404 663.627 832.707Q663.497 833.01 663.352 833.306Q663.207 833.602 663.048 833.891Q662.888 834.18 662.715 834.46Q662.541 834.74 662.354 835.012Q662.167 835.283 661.967 835.545Q661.767 835.807 661.554 836.059Q661.341 836.311 661.116 836.552Q660.891 836.793 660.654 837.023Q660.417 837.252 660.17 837.47Q659.922 837.688 659.664 837.893Q659.406 838.098 659.138 838.29Q658.87 838.483 658.593 838.661Q658.316 838.84 658.03 839.005Q657.745 839.17 657.452 839.321Q657.158 839.471 656.858 839.607Q656.557 839.743 656.251 839.864Q655.944 839.985 655.632 840.091Q655.319 840.197 655.002 840.287Q654.685 840.377 654.364 840.452Q654.043 840.526 653.718 840.585Q653.396 840.643 653.072 840.685Q652.748 840.728 652.422 840.754Q652.097 840.781 651.77 840.791Q651.443 840.802 651.117 840.796Q650.79 840.791 650.464 840.769Q650.138 840.748 649.813 840.71Q649.488 840.673 649.166 840.62Q648.843 840.567 648.524 840.498Q648.204 840.429 647.888 840.344Q647.573 840.26 647.261 840.16Q646.95 840.061 646.644 839.946Q646.338 839.831 646.038 839.701Q645.738 839.572 645.445 839.428Q645.151 839.284 644.865 839.125Q644.579 838.967 644.302 838.795Q644.024 838.623 643.755 838.438Q643.485 838.252 643.226 838.054Q642.966 837.855 642.716 837.645Q642.466 837.434 642.227 837.211Q641.988 836.988 641.76 836.754Q641.532 836.52 641.316 836.275Q641.099 836.03 640.895 835.775Q640.691 835.519 640.5 835.254Q640.308 834.989 640.13 834.715Q639.952 834.441 639.788 834.159Q639.623 833.877 639.472 833.587Q639.322 833.297 639.185 832.999Q639.049 832.702 638.928 832.399Q638.806 832.095 638.7 831.786Q638.593 831.478 638.502 831.164Q638.41 830.85 638.334 830.532Q638.258 830.214 638.198 829.893Q638.138 829.572 638.093 829.248Q638.049 828.924 638.02 828.599Q637.991 828.273 637.978 827.946Q637.966 827.62 637.969 827.293Q637.972 826.966 637.991 826.64Q638.01 826.314 638.046 825.989Q638.081 825.664 638.132 825.341Q638.182 825.018 638.249 824.698Q638.316 824.378 638.398 824.062Q638.48 823.745 638.578 823.434Q638.675 823.122 638.788 822.815Q638.901 822.508 639.028 822.207Q639.156 821.906 639.298 821.612Q639.44 821.317 639.596 821.03Q639.752 820.743 639.923 820.464Q640.093 820.185 640.276 819.915Q640.46 819.644 640.656 819.383Q640.853 819.122 641.062 818.871Q641.271 818.62 641.492 818.379Q641.713 818.138 641.946 817.909Q642.178 817.679 642.422 817.461Q642.665 817.243 642.919 817.037Q643.173 816.831 643.437 816.638Q643.7 816.445 643.973 816.265Q644.246 816.085 644.527 815.918Q644.808 815.752 645.097 815.599Q645.386 815.446 645.682 815.308Q645.979 815.17 646.281 815.046Q646.584 814.922 646.892 814.814Q647.2 814.705 647.513 814.611Q647.826 814.518 648.144 814.44Q648.461 814.362 648.782 814.299Z"/>
		<path fill="#FEFEFE" d="M660.467 708.532Q660.76 708.47 661.056 708.423Q661.352 708.375 661.65 708.342Q661.948 708.309 662.247 708.291Q662.547 708.273 662.846 708.269Q663.146 708.265 663.446 708.276Q663.745 708.287 664.044 708.312Q664.342 708.338 664.64 708.378Q664.937 708.417 665.231 708.472Q665.526 708.526 665.818 708.595Q666.11 708.664 666.398 708.747Q666.686 708.829 666.97 708.926Q667.253 709.023 667.532 709.134Q667.811 709.244 668.083 709.368Q668.356 709.492 668.623 709.629Q668.89 709.766 669.149 709.916Q669.409 710.066 669.661 710.229Q669.912 710.391 670.156 710.566Q670.4 710.74 670.635 710.927Q670.87 711.113 671.095 711.31Q671.321 711.508 671.536 711.716Q671.752 711.924 671.957 712.142Q672.163 712.361 672.357 712.589Q672.551 712.817 672.734 713.055Q672.917 713.292 673.089 713.538Q673.26 713.784 673.419 714.038Q673.578 714.293 673.724 714.554Q673.87 714.816 674.004 715.084Q674.138 715.352 674.258 715.627Q674.378 715.902 674.485 716.182Q674.591 716.462 674.684 716.747Q674.777 717.032 674.856 717.321Q674.935 717.61 675 717.903Q675.065 718.196 675.115 718.491Q675.165 718.787 675.201 719.084Q675.237 719.382 675.259 719.681Q675.28 719.98 675.287 720.28Q675.294 720.579 675.286 720.879Q675.278 721.179 675.255 721.478Q675.233 721.776 675.196 722.074Q675.159 722.371 675.107 722.667Q675.056 722.962 674.99 723.255Q674.924 723.547 674.844 723.836Q674.764 724.125 674.67 724.409Q674.576 724.694 674.469 724.974Q674.361 725.254 674.24 725.528Q674.118 725.802 673.984 726.07Q673.849 726.338 673.702 726.599Q673.555 726.86 673.395 727.113Q673.235 727.367 673.063 727.612Q672.891 727.858 672.707 728.094Q672.523 728.331 672.328 728.559Q672.133 728.786 671.927 729.004Q671.72 729.222 671.504 729.429Q671.288 729.636 671.061 729.833Q670.835 730.03 670.599 730.215Q670.364 730.4 670.12 730.574Q669.875 730.748 669.623 730.909Q669.37 731.071 669.11 731.22Q668.85 731.369 668.583 731.505Q668.316 731.641 668.042 731.764Q667.769 731.887 667.49 731.997Q667.211 732.106 666.927 732.202Q666.643 732.298 666.354 732.38Q666.066 732.461 665.774 732.529Q665.38 732.62 664.98 732.686Q664.58 732.751 664.177 732.79Q663.774 732.828 663.37 732.841Q662.965 732.853 662.56 732.838Q662.156 732.824 661.753 732.783Q661.35 732.742 660.951 732.674Q660.552 732.607 660.158 732.513Q659.764 732.419 659.377 732.3Q658.99 732.181 658.612 732.036Q658.234 731.891 657.866 731.722Q657.498 731.553 657.142 731.36Q656.786 731.167 656.444 730.951Q656.101 730.735 655.774 730.497Q655.446 730.259 655.135 730Q654.824 729.741 654.531 729.462Q654.237 729.183 653.963 728.885Q653.689 728.587 653.435 728.272Q653.18 727.957 652.947 727.626Q652.715 727.295 652.504 726.949Q652.293 726.603 652.106 726.244Q651.919 725.885 651.755 725.515Q651.592 725.144 651.453 724.764Q651.315 724.383 651.201 723.995Q651.088 723.606 651.001 723.21Q650.913 722.815 650.852 722.415Q650.791 722.015 650.756 721.611Q650.721 721.208 650.713 720.803Q650.705 720.398 650.724 719.994Q650.742 719.589 650.787 719.187Q650.833 718.785 650.904 718.386Q650.976 717.988 651.073 717.595Q651.171 717.202 651.294 716.816Q651.417 716.43 651.566 716.054Q651.714 715.677 651.887 715.311Q652.06 714.945 652.256 714.591Q652.453 714.237 652.672 713.897Q652.892 713.556 653.133 713.231Q653.375 712.906 653.637 712.598Q653.899 712.289 654.181 711.999Q654.463 711.708 654.763 711.437Q655.064 711.166 655.382 710.915Q655.699 710.664 656.033 710.434Q656.366 710.205 656.714 709.997Q657.062 709.79 657.423 709.607Q657.783 709.423 658.156 709.263Q658.528 709.104 658.909 708.969Q659.291 708.834 659.681 708.725Q660.071 708.615 660.467 708.532Z"/>
		<path fill="#FEFEFE" d="M728.691 720.166Q751.084 719.966 773.478 720.015C770.16 722.741 766.673 725.269 763.237 727.844C757.935 731.411 752.76 735.2 747.54 738.887C741.62 731.982 735.676 725.985 728.691 720.166Z"/>
	</g>
	<g>
		<path fill="#FEFEFE" d="M0 0L1024 0L1024 1024L0 1024L0 0ZM180.991 266.574L181.041 446.032C181.019 481.078 180.369 516.279 181.389 551.304L132.663 567.988C124.291 570.846 115.481 573.269 107.308 576.599C99.5763 578.987 91.7883 581.287 84.2134 584.144C78.9523 585.615 73.8811 587.661 68.6492 589.22C77.2557 611.507 84.2841 634.613 92.1454 657.193L137.309 786.368Q146.062 811.807 155.143 837.131C158.227 845.867 160.847 854.903 164.491 863.417C173.943 860.237 183.784 857.287 192.949 853.389L351.872 798.488Q366.75 793.248 381.712 788.252C389.608 785.636 398.937 783.525 406.104 779.34C399.653 759.382 391.672 739.923 385.64 719.839C401.845 719.55 418.099 719.812 434.309 719.805L525.036 719.696C565.801 719.634 606.773 718.608 647.508 719.656C633.343 733.931 622.421 747.46 619.897 768.167C617.376 788.839 624.234 804.958 636.764 820.859C636.717 820.996 636.669 821.132 636.623 821.27C635.088 825.929 635.372 830.877 637.736 835.222C639.838 839.087 643.409 842.096 647.69 843.22C652.478 844.477 656.633 843.162 660.727 840.674C672.141 846.32 686.878 848.553 699.459 846.716C721.766 843.457 736.64 830.757 749.592 813.175C765.558 818.304 781.021 825.212 796.473 831.69Q821.883 842.318 847.435 852.6C857.007 856.497 866.612 861.617 876.496 864.51C879.243 865.314 881.692 865.787 884.468 864.845C886.96 863.999 889.2 862.19 890.309 859.776C891.535 857.107 891.529 854.043 891.222 851.181C890.196 841.633 886.864 831.668 884.864 822.228Q878.387 791.162 871.355 760.216C869.123 750.563 867.353 740.123 863.748 730.892C883.874 683.379 901.3 634.578 922.572 587.562C929.233 589.765 935.492 593.142 942.264 595.017C946.108 588.053 948.692 580.087 951.91 572.779C942.585 568.182 932.594 564.589 922.905 560.817Q906.078 554.258 889.373 547.397C884.217 545.308 854.981 532.672 852.016 532.311C849.344 534.154 844.012 550.476 842.226 554.666C845.803 556.878 849.813 558.381 853.68 560.013Q844.362 582.753 835.587 605.707L814.201 659.765C808.15 675.286 802.742 691.684 795.492 706.66L795.529 409.243L795.466 308.187L795.573 279.281C795.608 273.316 795.891 267.188 795.343 261.243C794.992 257.433 793.128 253.942 790.461 251.241C788.369 249.123 785.255 247.223 782.282 246.745C773.294 245.302 757.466 246.409 747.865 246.396C719.022 246.354 690.117 246.781 661.283 246.323C648.757 245.873 636.049 246.333 623.507 246.363L550.642 246.407L308.403 246.4L238.088 246.458C225.017 246.45 211.824 246.757 198.77 246.181C193.285 246.952 188.55 249.221 185.12 253.708C182.214 257.509 181.237 261.894 180.991 266.574Z"/>
		<path fill="#FEFEFE" d="M198.77 246.181C204.362 241.79 209.361 236.684 214.777 232.077Q227.756 221.126 242.045 211.949C249.241 207.248 257.017 203.289 264.575 199.206Q267.456 197.639 270.366 196.129Q273.276 194.619 276.216 193.165Q279.155 191.711 282.122 190.315Q285.088 188.918 288.082 187.579Q291.075 186.241 294.094 184.96Q297.112 183.68 300.155 182.458Q303.198 181.237 306.264 180.074Q309.33 178.912 312.418 177.809Q315.506 176.706 318.615 175.664Q321.724 174.621 324.853 173.639Q327.981 172.656 331.128 171.735Q334.275 170.814 337.439 169.953Q340.603 169.093 343.783 168.294Q346.964 167.496 350.159 166.759Q353.354 166.022 356.563 165.347Q359.772 164.672 362.993 164.06Q366.214 163.447 369.447 162.897Q372.679 162.347 375.922 161.86Q379.165 161.373 382.416 160.949Q385.668 160.524 388.927 160.163Q392.186 159.802 395.451 159.504Q398.717 159.206 401.987 158.972Q405.258 158.737 408.532 158.566Q411.807 158.395 415.084 158.288Q418.362 158.18 421.64 158.136Q424.919 158.092 428.198 158.112Q431.477 158.131 434.755 158.214Q438.033 158.298 441.309 158.444Q444.584 158.591 447.857 158.801Q451.129 159.011 454.396 159.285Q457.664 159.558 460.926 159.895Q464.187 160.232 467.442 160.632C484.869 162.73 502.471 165.653 519.437 170.196C562.328 181.68 610.345 204.538 644.662 232.807C648.788 236.205 657.995 242.404 660.985 245.922C661.093 246.048 661.184 246.189 661.283 246.323C648.757 245.873 636.049 246.333 623.507 246.363L550.642 246.407L308.403 246.4L238.088 246.458C225.017 246.45 211.824 246.757 198.77 246.181Z"/>
		<path fill="#FEFEFE" d="M180.991 266.574L181.041 446.032C181.019 481.078 180.369 516.279 181.389 551.304L132.663 567.988C124.291 570.846 115.481 573.269 107.308 576.599C81.2182 491.752 96.5628 392.383 143.951 317.718C151.071 306.5 158.521 295.23 167.082 285.05C170.848 280.571 179.201 272.69 180.747 267.531C180.841 267.216 180.91 266.893 180.991 266.574Z"/>
	</g>
</svg>