<svg xmlns="http://www.w3.org/2000/svg" version="1.1" style="display: block;" viewBox="0 0 2048 2048" width="1024" height="1024">
<g>
	<path transform="translate(0,0)" fill="rgb(8,7,23)" d="M 1502.53 520.176 L 1610.91 520.088 C 1628.07 520.069 1648.56 517.684 1665.19 521.3 C 1673.58 523.123 1681.45 527.885 1687.55 533.844 C 1694.31 540.451 1699.33 548.57 1701.31 557.868 C 1705.35 576.932 1703.03 607.537 1703.02 628.021 L 1703.03 767.823 C 1716.2 767.767 1757.81 765.387 1767.46 769.899 C 1770.95 779.065 1768.91 988.484 1768.87 1015.95 L 1768.97 1454.68 C 1768.98 1479.05 1770.97 1625.68 1768.22 1633.44 C 1767.63 1635.11 1767.77 1635.27 1766.4 1635.76 C 1758.9 1638.43 1645.74 1636.3 1628.63 1636.27 L 1303.98 1636.4 C 1301.66 1633.25 1304.16 1630.14 1301.4 1627.32 C 1274.16 1626.56 1246.5 1626.98 1219.24 1627.61 C 1220.86 1636.31 1222.86 1644.82 1225.1 1653.39 C 1219.5 1672.45 1210.19 1691.27 1202.56 1709.68 C 1198.23 1720.14 1194.62 1731.79 1189.34 1741.73 C 1187.62 1744.95 1185.03 1749.07 1181.61 1750.71 C 1178.97 1751.98 1177.19 1752.08 1174.44 1751.06 C 1168.78 1748.96 1166.43 1741.22 1164.6 1736.02 C 1152.4 1701.34 1144.02 1661.51 1130.41 1627.79 L 823.885 1628.11 C 815.017 1655.27 807.158 1682.76 798.731 1710.07 C 795.606 1720.19 793.258 1731.13 789.203 1740.9 C 787.441 1745.14 785.591 1749.37 781.87 1752.22 C 777.371 1752.76 773.965 1752.49 770.322 1749.53 C 767.195 1747 765.029 1743.39 763.24 1739.84 C 757.979 1729.4 754.128 1717.89 749.417 1707.14 C 742.105 1690.46 732.249 1672.52 727.314 1655.08 C 729.486 1645.92 732.414 1637 735.279 1628.04 L 438.46 1628.4 L 363.46 1628.19 C 350.16 1628.16 335.797 1629.4 322.668 1627.38 C 311.607 1625.67 301.909 1620.75 294.063 1612.73 C 286.797 1605.31 282.524 1596.51 280.447 1586.42 C 276.698 1568.22 279.085 1546.53 279.222 1527.99 C 279.505 1489.73 280.303 1451 279.127 1412.76 L 278.972 925.829 L 279.121 787.545 C 279.144 764.089 277.178 738.746 280.265 715.572 C 281.579 705.704 287.535 696.107 294.342 688.971 C 300.638 682.371 309.647 677.997 318.49 676.116 C 332.472 673.142 348.593 674.701 362.92 674.7 A 3710.89 3710.89 0 0 0 436.278 674.362 L 436.243 610.171 C 436.244 594.181 434.592 575.927 438.529 560.38 A 54.5364 54.5364 0 0 1 452.93 534.934 C 461.211 526.815 473.286 521.632 484.818 520.604 C 497.989 519.429 511.615 520.109 524.855 520.118 L 593.671 520.19 L 812.523 520.371 L 1502.53 520.176 z"/>
	<path transform="translate(0,0)" fill="rgb(254,254,254)" d="M 1310.59 776.011 C 1353.03 774.96 1395.7 775.805 1438.16 775.781 A 13605.6 13605.6 0 0 1 1626.15 776.46 L 1626.13 1384.56 L 1626.16 1553.29 L 1626.19 1600.04 C 1626.21 1609.08 1626.98 1618.79 1625.65 1627.7 L 1310.64 1628.04 C 1309.2 1570.82 1310.21 1513.34 1310.18 1456.1 L 1310.11 1127.99 L 1310.24 907.376 C 1310.13 863.829 1308.21 819.476 1310.59 776.011 z"/>
	<path transform="translate(0,0)" fill="rgb(8,7,23)" d="M 1464.32 846.206 C 1466.55 846.477 1468.17 846.87 1470.22 847.786 C 1474.46 853.498 1472.16 906.109 1472.11 916.935 C 1482.92 916.977 1532.44 914.77 1539.52 917.881 C 1540.93 918.5 1540.47 918.508 1541.03 920.265 C 1540.58 921.75 1540.21 922.654 1538.98 923.713 C 1534.8 927.31 1480.81 925.442 1471.71 925.459 C 1471.56 940.066 1474.93 980.323 1469.72 991.211 C 1468.53 990.802 1466.62 990.49 1465.76 989.533 C 1460.91 984.13 1463.06 934.983 1463.06 925.284 C 1453.39 925.214 1402.52 926.444 1397.44 925.098 C 1394.85 924.411 1394.14 923.673 1392.77 921.443 C 1392.9 920.182 1392.63 918.831 1393.71 917.973 C 1397.64 914.834 1454.52 916.433 1463.44 916.442 C 1463.84 896.482 1460.53 864.384 1464.32 846.206 z"/>
	<path transform="translate(0,0)" fill="rgb(8,7,23)" d="M 1465.87 1132.36 L 1470.03 1133.93 C 1470.57 1134.66 1471.28 1135.3 1471.66 1136.13 C 1473.57 1140.2 1471.9 1191.25 1471.86 1199.94 C 1484.85 1199.93 1528.47 1198.05 1538.3 1200.56 C 1540.28 1202.48 1540.45 1202.68 1541.03 1205.37 L 1539.86 1207.03 C 1529.86 1210.85 1485.27 1208.11 1472.04 1208.27 C 1471.87 1222.55 1475 1269.92 1469.19 1279.63 C 1467.25 1279.24 1466.43 1278.81 1464.95 1277.51 C 1460.71 1267.96 1463.04 1222.17 1463.02 1208.41 A 2853.32 2853.32 0 0 0 1417.24 1208.18 C 1411.09 1208.17 1404 1208.86 1397.97 1207.9 C 1395.34 1207.48 1394.53 1206.51 1393.15 1204.38 L 1393.79 1202.25 C 1395.61 1200.74 1397.05 1199.99 1399.44 1199.74 C 1406.81 1198.98 1414.79 1199.61 1422.21 1199.63 L 1463.11 1199.54 C 1463.3 1184.92 1460.03 1142.92 1465.87 1132.36 z"/>
	<path transform="translate(0,0)" fill="rgb(8,7,23)" d="M 1465 1410.28 C 1467.2 1410.45 1468.57 1410.99 1470.55 1411.97 C 1473.79 1416.3 1472.04 1471.13 1472.02 1480.82 C 1482.52 1480.93 1535.49 1478.62 1541.73 1483.57 C 1542 1485.8 1542.35 1485.22 1540.89 1487.07 C 1538.29 1490.39 1479.98 1489.03 1471.89 1489.03 C 1471.89 1510 1473.1 1531.7 1471.25 1552.57 C 1468.51 1552.78 1467.52 1553.18 1465.09 1551.8 C 1460.99 1542.92 1463.26 1500.93 1463.21 1489.13 C 1444.98 1488.94 1426.45 1489.9 1408.28 1489.13 C 1403.75 1488.94 1398.85 1488.45 1395.68 1485.02 L 1396.8 1483.35 C 1408.39 1478.21 1448.54 1480.79 1463.08 1480.79 C 1463.39 1462 1460.57 1426.93 1465 1410.28 z"/>
	<path transform="translate(0,0)" fill="rgb(57,49,194)" d="M 486.914 528.364 C 487.014 528.359 487.113 528.352 487.212 528.349 C 516.586 527.518 546.072 528.097 575.46 528.125 L 726.945 528.162 L 1197.53 528.068 L 1503.77 528.036 L 1603.45 528.026 C 1621.31 528.029 1639.6 527.194 1657.39 528.438 C 1667.05 529.113 1674.41 532.601 1681.4 539.237 A 43.0391 43.0391 0 0 1 1693.56 559.724 C 1697.15 573.725 1695.18 591.516 1695.12 605.91 L 1695.06 674.019 L 1652.01 674.123 L 443.925 674.702 L 443.936 608.701 C 443.899 594.88 442.533 579.538 445.061 565.971 C 446.467 558.424 449.428 551.417 454.202 545.372 C 462.455 534.922 473.917 529.663 486.914 528.364 z"/>
	<path transform="translate(0,0)" fill="rgb(254,254,254)" d="M 739.076 599.018 C 826.153 600.854 913.569 599.099 1000.68 599.012 L 1399.68 598.522 C 1404.18 598.487 1410.66 598.187 1414.09 601.561 C 1414.93 604.353 1414.35 606.121 1413.61 608.817 C 1275.33 610.738 1136.84 609.25 998.547 609.255 L 833.504 609.336 C 804.166 609.375 774.44 610.401 745.139 609.209 C 741.636 609.066 739.789 608.913 737.35 606.268 C 736.909 602.99 737.609 601.829 739.076 599.018 z"/>
	<path transform="translate(0,0)" fill="rgb(254,254,254)" d="M 1524.57 598.5 C 1540.33 598.451 1629.89 596.702 1636.8 600.609 C 1638.85 601.772 1638.85 602.357 1639.49 604.488 L 1638.03 606.486 C 1627.52 611.428 1602.79 608.938 1590.5 608.877 C 1574.78 608.929 1482.17 610.851 1476.78 607.82 C 1475.58 607.141 1475.68 605.626 1475.39 604.382 C 1475.77 602.948 1476.09 601.862 1477.23 600.803 C 1481.68 596.655 1516.25 598.483 1524.57 598.5 z"/>
	<path transform="translate(0,0)" fill="rgb(254,254,254)" d="M 517.86 587.081 C 520.8 587.642 523.824 588.132 526.436 589.672 C 530.4 592.01 533.449 595.793 534.535 600.298 C 535.671 605.006 534.69 609.824 532.08 613.872 C 528.634 619.216 524.051 620.698 518.13 622.112 C 515.294 621.546 512.231 620.945 509.611 619.687 C 505.102 617.524 501.215 613.271 499.828 608.433 C 498.769 604.742 499.344 600.86 501.198 597.526 C 504.762 591.117 511.144 588.803 517.86 587.081 z"/>
	<path transform="translate(0,0)" fill="rgb(254,254,254)" d="M 626.952 587.767 A 16.9605 16.9605 0 0 1 648.094 599.197 A 16.9605 16.9605 0 0 1 636.58 620.292 A 16.9605 16.9605 0 0 1 615.568 608.824 A 16.9605 16.9605 0 0 1 626.952 587.767 z"/>
	<path transform="translate(0,0)" fill="rgb(254,254,254)" d="M 571.168 588.36 A 16.8182 16.8182 0 0 1 592.154 599.651 A 16.8182 16.8182 0 0 1 580.783 620.593 A 16.8182 16.8182 0 0 1 559.921 609.266 A 16.8182 16.8182 0 0 1 571.168 588.36 z"/>
	<path transform="translate(0,0)" fill="rgb(254,254,254)" d="M 325.345 683.248 C 362.637 682.304 400.026 682.704 437.332 682.585 C 438.954 745.401 437.807 808.38 437.924 871.222 L 438.072 1249.88 L 437.549 1394.72 C 437.433 1419.13 435.562 1445.02 437.915 1469.3 C 438.917 1479.63 442.734 1488.18 450.085 1495.6 C 456.424 1502 465.264 1508.06 474.224 1509.63 C 486.474 1511.77 499.931 1510.9 512.329 1510.88 L 565.094 1510.9 L 770.55 1510.99 C 761.66 1546.51 749.481 1584.58 737.385 1619.18 L 734.991 1619.21 L 448.986 1619.26 L 366.635 1619.43 C 351.823 1619.47 335.222 1620.86 320.646 1618.45 C 313.15 1617.2 305.533 1612.04 300.327 1606.68 C 285.249 1591.16 287.042 1570.61 287.12 1550.8 L 287.304 1517.87 C 297.827 1517.97 312.768 1519.66 322.449 1515.54 C 324.335 1514.74 324.665 1514.74 325.429 1512.77 C 316.835 1506.44 297.995 1508.89 287.638 1508.99 L 287.605 1457.7 L 370.147 1457.17 C 370.636 1455.26 370.524 1453.82 370.325 1451.88 C 369.61 1451.3 368.986 1450.59 368.179 1450.16 C 364.263 1448.05 299.287 1449.54 287.511 1449.47 L 287.403 1396.75 C 299.058 1396.73 313.19 1398.34 324.247 1394.09 L 324.698 1391.3 L 326.571 1392.15 C 316.456 1386.12 298.945 1388.33 287.447 1388.49 C 286.999 1371.03 287.239 1353.5 287.179 1336.03 C 303.496 1336.15 359.565 1339.37 370.768 1334.02 L 370.641 1330.35 C 358.455 1325.57 304.253 1328.11 287.642 1328.13 L 287.575 1274.66 C 296.727 1274.16 318.036 1277.33 324.691 1271.38 C 324.842 1268.79 324.506 1268.78 322.898 1266.68 C 315.654 1264.11 295.987 1266.06 287.428 1266.15 C 287.015 1248.8 287.339 1231.38 287.343 1214.02 C 310.799 1213.95 337.308 1215.77 360.346 1214.01 C 364.673 1213.68 368.852 1213.41 371.818 1210.02 L 371.31 1208.59 C 370.42 1207.93 369.646 1207.08 368.639 1206.61 C 364.359 1204.65 298.546 1205.94 287.486 1205.94 C 287.323 1188.94 287.554 1171.92 287.591 1154.91 C 299.801 1154.98 313.07 1156.26 324.754 1152.2 L 325.712 1149.76 L 326.835 1150.7 L 324.667 1151.95 L 325.142 1149.37 C 315.452 1144.48 298.397 1146.54 287.665 1146.61 L 287.558 1093 C 302.344 1092.82 358.783 1095.56 368.603 1091.45 C 370.737 1090.56 370.916 1090.28 371.738 1088.26 L 370.325 1086.53 C 360.217 1082.45 302.3 1084.72 287.796 1084.7 L 287.801 1032.98 C 295.831 1033 318.098 1035.15 324.871 1030.02 L 325.094 1027.52 C 315.511 1022.38 297.795 1024.69 287.045 1024.87 A 2858.29 2858.29 0 0 1 287.209 972.026 C 300.97 971.854 363.807 974.628 371 968.302 L 370.645 966.319 C 368.93 964.874 367.591 964.319 365.403 964.056 C 357.719 963.13 349.229 964.009 341.451 963.984 L 287.39 963.754 A 3530.77 3530.77 0 0 0 287.556 913.19 C 298.06 913.169 310.123 914.266 320.41 911.761 C 323.523 911.003 324.221 910.622 325.835 907.864 L 325.675 909.828 L 324.124 907.206 L 324.856 907.315 C 313.102 903.399 299.879 904.704 287.642 904.827 L 287.492 853.929 C 304.981 853.857 358.154 856.695 371.519 851.124 L 371.737 847.745 C 357.769 842.58 304.463 845.338 287.156 845.413 C 287.025 828.73 287.225 812.036 287.303 795.353 C 296.892 794.807 314.661 797.772 322.928 793.465 C 324.084 791.352 324.201 791.464 323.62 789.152 C 316.493 783.901 296.761 786.263 287.697 786.338 C 287.71 768.151 285.419 733.225 288.844 716.824 A 43.7727 43.7727 0 0 1 296.173 700.064 C 303.634 689.688 313.178 685.418 325.345 683.248 z"/>
	<path transform="translate(0,0)" fill="rgb(254,254,254)" d="M 1634.64 776.161 L 1760.86 776.044 C 1761.14 791.667 1761.31 807.559 1760.28 823.146 C 1752.63 823 1743.95 822.174 1736.5 823.987 C 1733.81 824.641 1731.53 825.254 1730.05 827.677 C 1730.38 828.072 1730.63 828.544 1731.04 828.863 C 1737.2 833.729 1752.77 831.982 1760.45 831.809 L 1760.65 886.367 C 1743.4 886.256 1695.2 883.962 1681.63 887.319 C 1679.84 889.287 1680.04 889.25 1680.08 891.947 C 1682.17 893.927 1683.56 894.527 1686.49 894.78 C 1693.82 895.414 1701.97 894.642 1709.41 894.632 A 4962.32 4962.32 0 0 1 1760.85 894.756 L 1760.88 947.4 C 1752.36 947.429 1736.95 945.933 1730.36 951.783 L 1731.03 953.368 C 1739.78 957.867 1751.34 956.509 1760.95 956.352 A 1984.02 1984.02 0 0 1 1760.75 1011.9 C 1742.97 1012.51 1724.99 1012.22 1707.2 1012.06 C 1700.69 1012 1693.7 1010.9 1687.28 1011.43 C 1684.37 1011.67 1681.43 1012.86 1679.78 1015.35 C 1678.84 1016.76 1679.28 1017.18 1679.54 1018.72 C 1683.67 1022.62 1751.13 1020.68 1761.05 1020.69 L 1761.03 1074.57 C 1753.73 1074.5 1745.74 1073.94 1738.57 1075.3 C 1735.48 1075.89 1731.98 1076.53 1730.06 1079.22 L 1731.35 1080.68 C 1740.82 1084.56 1751.1 1083.46 1761.11 1083.15 L 1761.03 1138.29 C 1746.01 1138.3 1694.64 1136.41 1683.62 1138.93 C 1681.05 1139.52 1680 1140.05 1678.61 1142.25 C 1679.24 1144.37 1678.77 1143.73 1680.21 1145.23 C 1681.49 1146.56 1682.99 1146.91 1684.8 1147.05 C 1692.53 1147.65 1700.87 1146.93 1708.67 1146.93 L 1760.69 1147.16 A 2278.59 2278.59 0 0 1 1760.48 1200.15 C 1754.47 1200.07 1748.04 1199.63 1742.06 1200.24 C 1738.25 1200.63 1732.6 1201.31 1730.09 1204.47 L 1731.18 1205.99 C 1739.99 1210.3 1750.81 1209.18 1760.38 1209.08 L 1760.55 1262.9 C 1735.26 1262.83 1707.49 1260.95 1682.48 1263.31 C 1680.49 1264.91 1679.8 1265.24 1678.94 1267.6 L 1680.55 1269.32 C 1692.2 1273.62 1745.06 1271.16 1760.96 1271.36 L 1761.02 1323.51 C 1755.05 1323.41 1748.68 1322.95 1742.74 1323.49 C 1738.88 1323.85 1733.46 1324.5 1730.81 1327.55 L 1731.61 1329.02 C 1740.23 1333.52 1751.55 1332.15 1761.02 1331.94 L 1761.18 1371.27 L 1761.15 1385.78 C 1749.78 1385.82 1687.75 1383.94 1681.38 1387.79 C 1680.71 1389.98 1680.81 1390.97 1681.41 1393.17 C 1684.76 1396.19 1751.93 1394.56 1760.88 1394.6 A 3299.84 3299.84 0 0 1 1760.76 1446.57 A 688.183 688.183 0 0 0 1747.22 1446.49 C 1742.09 1446.53 1734.6 1446.92 1730.84 1450.72 L 1731.64 1452.23 C 1740.25 1456.7 1751.29 1455.33 1760.74 1455.15 C 1761.11 1472.95 1760.95 1490.8 1761 1508.61 C 1748.25 1508.72 1688.54 1507.46 1681.12 1510.4 C 1679.64 1512.65 1679.83 1512.64 1680.23 1515.34 C 1681.97 1516.81 1682.8 1517.21 1685.16 1517.54 C 1692.96 1518.62 1701.95 1517.74 1709.86 1517.71 A 2783.5 2783.5 0 0 1 1760.97 1517.7 L 1761.22 1571 C 1754.71 1570.9 1747.8 1570.44 1741.34 1571.2 C 1737.89 1571.6 1733.18 1572.26 1730.89 1575.08 L 1731.77 1576.47 C 1740.31 1581.02 1751.63 1579.77 1761.07 1579.66 L 1761.09 1628.15 L 1634.96 1628 C 1633.92 1540.35 1634.87 1452.63 1634.81 1364.97 L 1634.64 776.161 z"/>
	<path transform="translate(0,0)" fill="rgb(254,254,254)" d="M 908.321 1083.57 C 931.786 1100.3 944.998 1107.83 973.754 1111.11 C 968.224 1134.71 959.73 1158.32 952.742 1181.59 A 6362.15 6362.15 0 0 1 908.987 1325 L 840.867 1546.58 A 11216.5 11216.5 0 0 0 784.568 1726.74 L 783.514 1730.37 C 782.226 1734.75 781.265 1740.9 777.058 1743.2 C 774.673 1742.1 773.63 1741.05 772.378 1738.69 C 768.143 1730.7 765.137 1721.3 761.619 1712.89 C 753.655 1693.86 745.604 1674.83 736.284 1656.41 C 741.151 1636.38 747.831 1616.54 753.843 1596.81 A 7802.73 7802.73 0 0 0 788.605 1483.59 L 842.347 1303.13 A 12796.1 12796.1 0 0 0 908.321 1083.57 z"/>
	<path transform="translate(0,0)" fill="rgb(254,254,254)" d="M 1043.65 1085.13 C 1047.6 1091.48 1050.35 1105.83 1052.76 1113.6 L 1083.88 1216.6 L 1162.81 1473.89 C 1181.1 1533.01 1200.84 1591.94 1216.73 1651.76 C 1213.41 1661.33 1181.56 1740.32 1178.04 1742.45 C 1173.26 1739.63 1172.61 1733.62 1171.24 1728.56 L 1044.04 1318 A 7233.84 7233.84 0 0 1 997.85 1167.21 C 992.438 1148.38 986.583 1129.52 982.141 1110.44 C 1008.86 1107.24 1022.44 1101.34 1043.65 1085.13 z"/>
	<path transform="translate(0,0)" fill="rgb(254,254,254)" d="M 860.92 1511.05 L 1094.51 1510.94 C 1099.5 1523.83 1103.14 1537.74 1107.11 1551.01 A 2256.91 2256.91 0 0 0 1127.98 1618.84 L 1093.84 1619.12 C 1004.84 1619.3 915.736 1619.89 826.747 1618.79 A 6404.75 6404.75 0 0 0 860.92 1511.05 z"/>
	<path transform="translate(0,0)" fill="rgb(254,254,254)" d="M 962.933 922.547 A 90.6125 90.6125 0 0 1 1066.75 997.679 A 90.6125 90.6125 0 0 1 991.609 1101.49 A 90.6125 90.6125 0 0 1 887.803 1026.36 A 90.6125 90.6125 0 0 1 962.933 922.547 z"/>
	<path transform="translate(0,0)" fill="rgb(8,7,23)" d="M 966.259 970.513 A 42.6249 42.6249 0 0 1 1016.43 1004.15 A 42.6249 42.6249 0 0 1 982.593 1054.18 A 42.6249 42.6249 0 0 1 932.764 1020.48 A 42.6249 42.6249 0 0 1 966.259 970.513 z"/>
	<path transform="translate(0,0)" fill="rgb(254,254,254)" d="M 969.22 978.584 A 34.1128 34.1128 0 0 1 1008.35 1006.1 A 34.1128 34.1128 0 0 1 981.498 1045.69 A 34.1128 34.1128 0 0 1 948.929 1034.48 A 34.1128 34.1128 0 0 1 942.73 1000.6 A 34.1128 34.1128 0 0 1 969.22 978.584 z"/>
	<path transform="translate(0,0)" fill="rgb(254,254,254)" d="M 1182.93 1511.02 C 1222.6 1510.55 1262.34 1511.02 1302.01 1511.03 L 1302.06 1618.37 C 1273.69 1619.11 1245.25 1618.73 1216.88 1618.61 C 1209.5 1596.59 1203.33 1574.15 1196.47 1551.96 C 1192.22 1538.23 1187.3 1524.72 1182.93 1511.02 z"/>
	<path transform="translate(0,0)" fill="rgb(254,254,254)" d="M 971.257 765.334 C 972.544 765.26 973.838 765.261 975.126 765.256 C 988.956 765.206 1002.62 769.996 1012.33 780.073 A 52.7119 52.7119 0 0 1 1025.5 804.395 C 1029.04 819.143 1027.53 836.239 1027.54 851.342 A 4430.01 4430.01 0 0 1 1026.92 927.901 C 1022.2 925.602 1017.28 923.585 1012.47 921.457 C 1011.76 895.361 1016.06 820.548 1008.12 801.237 C 1003.45 789.88 995.221 785.639 984.391 781.246 C 983.083 781.094 981.806 780.965 980.49 780.913 C 970.018 780.497 959.537 782.545 951.802 790.091 C 946.461 795.3 943.158 802.371 941.745 809.638 C 939.285 822.287 940.714 836.597 940.683 849.488 L 940.446 921.194 C 935.549 922.756 930.7 924.664 925.858 926.397 L 925.846 850.619 C 925.756 836.562 924.122 821.038 926.265 807.177 C 927.442 799.567 930.151 792.424 934.656 786.151 C 943.527 773.797 956.582 767.608 971.257 765.334 z"/>
	<path transform="translate(0,0)" fill="rgb(254,254,254)" d="M 1114.6 1286.07 L 1188.68 1285.92 C 1201.84 1285.91 1217.5 1284.28 1230.31 1287.16 C 1231.78 1288.53 1232.72 1289.06 1233.42 1291.01 C 1234.88 1295.02 1233.22 1298.45 1231.37 1302 C 1219.54 1306.32 1138.57 1303.88 1120.15 1303.82 C 1117.86 1297.94 1116.06 1292.22 1114.6 1286.07 z"/>
	<path transform="translate(0,0)" fill="rgb(254,254,254)" d="M 725.392 1286.17 C 762.601 1285.15 800.505 1285.76 837.724 1286.78 C 836.712 1291.58 835.863 1300.05 832.716 1303.82 L 764.791 1303.88 C 753.022 1303.88 740.126 1304.88 728.49 1303.18 C 725.515 1302.74 723.702 1301.97 721.327 1300.16 C 720.171 1297.92 719.71 1297.17 719.938 1294.57 C 720.289 1290.58 722.538 1288.61 725.392 1286.17 z"/>
	<path transform="translate(0,0)" fill="rgb(254,254,254)" d="M 930.595 1286.06 L 1024.39 1286.04 C 1026.84 1291.07 1031.05 1297.31 1029.27 1302.94 L 1026.04 1303.66 A 8890.82 8890.82 0 0 1 924.585 1303.74 L 930.595 1286.06 z"/>
</g>
<g>
	<path transform="translate(0,0)" fill="rgb(254,254,254)" d="M 0 0 L 2048 0 L 2048 2048 L 0 2048 L 0 0 z M 436.278 674.362 A 3710.89 3710.89 0 0 1 362.92 674.7 C 348.593 674.701 332.472 673.142 318.49 676.116 C 309.647 677.997 300.638 682.371 294.342 688.971 C 287.535 696.107 281.579 705.704 280.265 715.572 C 277.178 738.746 279.144 764.089 279.121 787.545 L 278.972 925.829 L 279.127 1412.76 C 280.303 1451 279.505 1489.73 279.222 1527.99 C 279.085 1546.53 276.698 1568.22 280.447 1586.42 C 282.524 1596.51 286.797 1605.31 294.063 1612.73 C 301.909 1620.75 311.607 1625.67 322.668 1627.38 C 335.797 1629.4 350.16 1628.16 363.46 1628.19 L 438.46 1628.4 L 735.279 1628.04 C 732.414 1637 729.486 1645.92 727.314 1655.08 C 732.249 1672.52 742.105 1690.46 749.417 1707.14 C 754.128 1717.89 757.979 1729.4 763.24 1739.84 C 765.029 1743.39 767.195 1747 770.322 1749.53 C 773.965 1752.49 777.371 1752.76 781.87 1752.22 C 785.591 1749.37 787.441 1745.14 789.203 1740.9 C 793.258 1731.13 795.606 1720.19 798.731 1710.07 C 807.158 1682.76 815.017 1655.27 823.885 1628.11 L 1130.41 1627.79 C 1144.02 1661.51 1152.4 1701.34 1164.6 1736.02 C 1166.43 1741.22 1168.78 1748.96 1174.44 1751.06 C 1177.19 1752.08 1178.97 1751.98 1181.61 1750.71 C 1185.03 1749.07 1187.62 1744.95 1189.34 1741.73 C 1194.62 1731.79 1198.23 1720.14 1202.56 1709.68 C 1210.19 1691.27 1219.5 1672.45 1225.1 1653.39 C 1222.86 1644.82 1220.86 1636.31 1219.24 1627.61 C 1246.5 1626.98 1274.16 1626.56 1301.4 1627.32 C 1304.16 1630.14 1301.66 1633.25 1303.98 1636.4 L 1628.63 1636.27 C 1645.74 1636.3 1758.9 1638.43 1766.4 1635.76 C 1767.77 1635.27 1767.63 1635.11 1768.22 1633.44 C 1770.97 1625.68 1768.98 1479.05 1768.97 1454.68 L 1768.87 1015.95 C 1768.91 988.484 1770.95 779.065 1767.46 769.899 C 1757.81 765.387 1716.2 767.767 1703.03 767.823 L 1703.02 628.021 C 1703.03 607.537 1705.35 576.932 1701.31 557.868 C 1699.33 548.57 1694.31 540.451 1687.55 533.844 C 1681.45 527.885 1673.58 523.123 1665.19 521.3 C 1648.56 517.684 1628.07 520.069 1610.91 520.088 L 1502.53 520.176 L 812.523 520.371 L 593.671 520.19 L 524.855 520.118 C 511.615 520.109 497.989 519.429 484.818 520.604 C 473.286 521.632 461.211 526.815 452.93 534.934 A 54.5364 54.5364 0 0 0 438.529 560.38 C 434.592 575.927 436.244 594.181 436.243 610.171 L 436.278 674.362 z"/>
	<path transform="translate(0,0)" fill="rgb(248,247,254)" d="M 279.127 1412.76 C 240.723 1390.53 176.351 1303.48 150.974 1264.07 C 46.3187 1101.54 15.4382 895.534 56.3507 707.709 A 749.161 749.161 0 0 1 388.614 238.368 C 559.722 128.966 781.217 93.1826 978.989 137.093 A 803.181 803.181 0 0 1 1425.18 412.112 C 1445.83 436.991 1464.04 463.748 1482.13 490.504 C 1488.84 500.427 1496.11 510.087 1502.53 520.176 L 812.523 520.371 L 593.671 520.19 L 524.855 520.118 C 511.615 520.109 497.989 519.429 484.818 520.604 C 473.286 521.632 461.211 526.815 452.93 534.934 A 54.5364 54.5364 0 0 0 438.529 560.38 C 434.592 575.927 436.244 594.181 436.243 610.171 L 436.278 674.362 A 3710.89 3710.89 0 0 1 362.92 674.7 C 348.593 674.701 332.472 673.142 318.49 676.116 C 309.647 677.997 300.638 682.371 294.342 688.971 C 287.535 696.107 281.579 705.704 280.265 715.572 C 277.178 738.746 279.144 764.089 279.121 787.545 L 278.972 925.829 L 279.127 1412.76 z"/>
</g>
</svg>