<svg xmlns="http://www.w3.org/2000/svg" xmlns:xlink="http://www.w3.org/1999/xlink" width="1024" height="1024">
	<g>
		<path fill="#1C0311" d="M270.693 346.51C270.945 335.456 268.624 322.416 273.735 312.235C277.008 305.713 282.403 301.325 289.248 298.986C297.036 296.325 344.641 297.695 356.23 297.698L480.968 297.843L717.984 297.663C748.446 297.669 778.956 297.231 809.413 297.622C813.093 297.669 819.27 297.633 822.49 299.371C822.678 299.473 822.859 299.587 823.046 299.692C825.314 300.97 827.387 302.287 829.23 304.16C837.692 312.76 836.038 325.513 835.984 336.521Q855.853 335.139 875.662 333.072C884.549 332.127 894.041 330.333 902.959 330.523Q903.545 403.893 902.936 477.262L902.58 816.24C884.794 818.995 866.846 820.278 848.988 822.404Q781.285 830.673 713.457 837.846Q540.039 858.083 366.403 876.36L232.625 890.5C213.472 892.513 194.259 894.012 175.141 896.348L147.914 658.538Q137.188 571.115 128.041 483.513C126.284 467.117 124.076 450.769 122.496 434.353C131.202 432.208 140.678 431.723 149.582 430.767C167.195 428.877 185.068 427.33 202.546 424.46C201.077 410.699 200.394 396.882 199.381 383.086C198.72 374.088 197.556 365.076 197.204 356.064C204.01 354.566 211.07 354.051 217.988 353.227L252.841 349.044C258.711 348.332 264.932 347.857 270.693 346.51ZM196.26 891.064C213.768 889.67 231.34 887.27 248.826 885.459L375.776 871.785L562.734 851.655L727.173 832.835C755.956 829.622 785.078 827.541 813.731 823.327C788.857 821.801 763.731 824.044 738.842 822.895C727.097 822.58 715.224 822.939 703.467 822.959L630.004 823.035L414.855 822.626L331.77 822.625C319.546 822.635 302.406 823.684 290.71 822.399C285.819 821.862 280.928 819.342 277.476 815.86Q276.892 815.268 276.349 814.638Q275.807 814.007 275.309 813.341Q274.812 812.674 274.361 811.975Q273.911 811.276 273.509 810.548Q273.108 809.819 272.757 809.065Q272.407 808.311 272.11 807.534Q271.812 806.758 271.569 805.962Q271.325 805.167 271.137 804.357C269.508 797.426 270.311 789.341 270.34 782.263L270.395 749.772C271.228 735.57 270.444 720.918 270.297 706.668C270.135 690.934 270.459 675.179 270.45 659.441L270.539 640.98L270.601 621.509L270.891 416.756C270.284 408.939 270.576 400.95 270.563 393.105L270.488 349.973L226.851 355.627C218.086 356.714 209.17 357.485 200.478 358.993Q214.409 526.624 230.654 694.047Q234.529 738.301 238.971 782.501L241.754 811.063C242.374 817.631 243.296 824.321 242.881 830.922C241.994 845.025 235.965 860.062 226.83 870.842C218.781 880.339 208.313 887.721 196.26 891.064ZM835.932 614.996C846.05 613.646 856.336 613.001 866.508 612.108C877.335 611.157 888.204 609.976 899.057 609.409L899.402 474.086C898.849 467.914 899.105 461.491 899.05 455.284Q867.41 457.444 835.972 461.624L835.932 614.996ZM899.399 648.399C897.135 647.548 841.483 652.967 835.989 653.959L835.965 692.671C856.979 690.032 878.118 688.109 899.182 685.889C899.684 673.42 899.473 660.878 899.399 648.399ZM177.153 882.964Q177.627 887.643 178.032 892.329C197.974 889.49 214.853 881.635 227.115 865.208C234.486 855.334 239.238 842.108 239.66 829.77C239.94 821.607 238.573 813.202 237.726 805.081L234.405 771.03Q228.48 703.918 221.614 636.895L208.162 489.331L204.318 447.146C203.75 441.444 203.572 435.304 202.501 429.701C202.412 429.232 202.329 429.059 202.173 428.657C201.389 428.641 200.627 428.57 199.854 428.723L154.235 433.624C145.004 434.619 135.522 435.397 126.386 437.021C127.162 447.552 128.621 458.069 129.746 468.569Q133.394 503.479 137.442 538.345L166.727 792.087L174.175 856.826C175.146 865.505 176.548 874.26 177.153 882.964ZM835.914 640.487C856.755 637.41 878.071 635.985 899.057 634.114L899.036 622.434C889.136 623.024 879.155 624.528 869.296 625.661C858.187 626.938 846.942 627.929 835.898 629.656L835.914 640.487ZM824.321 812.928C828.165 808.803 830.93 804.865 831.588 799.104C832.298 792.897 832.051 786.486 832.053 780.241L832.039 752.401L831.997 658.755L832.13 361.978L275.896 362.249C274.427 363.759 275.012 368.8 275.012 371.015L274.837 644.891C274.719 694.999 273.822 745.212 274.464 795.311C274.548 801.902 275.679 807.714 280.506 812.571C284.251 816.339 288.831 818.107 294.078 818.494C300.606 818.975 307.413 818.529 313.977 818.521L353.85 818.489L478.45 818.516L708.029 818.499C741.679 818.472 775.426 819.158 809.064 818.591C815.769 818.478 819.111 817.259 824.321 812.928ZM814.445 822.692C820.526 823.536 833.307 821.016 839.976 820.277C859.597 818.103 879.481 816.706 898.904 813.151Q899.645 763.702 899.415 714.249C898.853 709.617 899.106 704.688 899.034 700.015C890.997 700.987 882.826 701.475 874.759 702.259C861.855 703.513 848.893 704.949 835.946 705.647L835.969 717.081C844.35 715.338 862.149 713.538 870.976 713.423L871.038 726.633C859.367 728.215 847.709 729.416 835.993 730.595L835.982 774.589C835.973 783.738 837.13 794.372 834.95 803.241C833.866 807.652 831.349 811.752 828.157 814.962Q827.453 815.667 826.702 816.323Q825.952 816.978 825.158 817.581Q824.365 818.184 823.532 818.731Q822.7 819.279 821.832 819.768Q820.964 820.258 820.064 820.687Q819.165 821.116 818.238 821.482Q817.312 821.849 816.362 822.152Q815.413 822.455 814.445 822.692ZM835.972 340.654L835.934 447.707C857.144 446.11 878.315 443.357 899.505 441.413C899.604 405.751 901.38 369.763 899.447 334.144C890.338 334.554 881.227 335.668 872.157 336.589Q854.027 338.283 835.972 340.654Z"/>
		<path fill="#C2C6F8" d="M835.934 447.707C857.144 446.11 878.315 443.357 899.505 441.413C899.404 452.227 899.98 463.311 899.402 474.086C898.849 467.914 899.105 461.491 899.05 455.284Q867.41 457.444 835.972 461.624L835.934 447.707Z"/>
		<path fill="#C2C6F8" d="M899.057 634.114Q899.15 641.258 899.399 648.399C897.135 647.548 841.483 652.967 835.989 653.959L835.914 640.487C856.755 637.41 878.071 635.985 899.057 634.114Z"/>
		<path fill="#C2C6F8" d="M835.932 614.996C846.05 613.646 856.336 613.001 866.508 612.108C877.335 611.157 888.204 609.976 899.057 609.409L899.036 622.434C889.136 623.024 879.155 624.528 869.296 625.661C858.187 626.938 846.942 627.929 835.898 629.656L835.932 614.996Z"/>
		<path fill="#C2C6F8" d="M835.965 692.671C856.979 690.032 878.118 688.109 899.182 685.889C899.21 695.329 899.811 704.821 899.415 714.249C898.853 709.617 899.106 704.688 899.034 700.015C890.997 700.987 882.826 701.475 874.759 702.259C861.855 703.513 848.893 704.949 835.946 705.647L835.965 692.671Z"/>
		<path fill="#C2C6F8" d="M835.969 717.081C844.35 715.338 862.149 713.538 870.976 713.423L871.038 726.633C859.367 728.215 847.709 729.416 835.993 730.595L835.969 717.081Z"/>
		<path fill="#7478F6" d="M835.984 336.521Q855.853 335.139 875.662 333.072C884.549 332.127 894.041 330.333 902.959 330.523Q903.545 403.893 902.936 477.262L902.58 816.24C884.794 818.995 866.846 820.278 848.988 822.404Q781.285 830.673 713.457 837.846Q540.039 858.083 366.403 876.36L232.625 890.5C213.472 892.513 194.259 894.012 175.141 896.348L147.914 658.538Q137.188 571.115 128.041 483.513C126.284 467.117 124.076 450.769 122.496 434.353C131.202 432.208 140.678 431.723 149.582 430.767C167.195 428.877 185.068 427.33 202.546 424.46C201.077 410.699 200.394 396.882 199.381 383.086C198.72 374.088 197.556 365.076 197.204 356.064C204.01 354.566 211.07 354.051 217.988 353.227L252.841 349.044C258.711 348.332 264.932 347.857 270.693 346.51C271.146 359.962 270.964 373.459 270.985 386.919C271.001 396.821 271.339 406.867 270.891 416.756C270.284 408.939 270.576 400.95 270.563 393.105L270.488 349.973L226.851 355.627C218.086 356.714 209.17 357.485 200.478 358.993Q214.409 526.624 230.654 694.047Q234.529 738.301 238.971 782.501L241.754 811.063C242.374 817.631 243.296 824.321 242.881 830.922C241.994 845.025 235.965 860.062 226.83 870.842C218.781 880.339 208.313 887.721 196.26 891.064C213.768 889.67 231.34 887.27 248.826 885.459L375.776 871.785L562.734 851.655L727.173 832.835C755.956 829.622 785.078 827.541 813.731 823.327C788.857 821.801 763.731 824.044 738.842 822.895C747.838 822.113 757.218 822.62 766.266 822.601Q790.356 822.523 814.445 822.692C820.526 823.536 833.307 821.016 839.976 820.277C859.597 818.103 879.481 816.706 898.904 813.151Q899.645 763.702 899.415 714.249C899.811 704.821 899.21 695.329 899.182 685.889C899.684 673.42 899.473 660.878 899.399 648.399Q899.15 641.258 899.057 634.114L899.036 622.434L899.057 609.409L899.402 474.086C899.98 463.311 899.404 452.227 899.505 441.413C899.604 405.751 901.38 369.763 899.447 334.144C890.338 334.554 881.227 335.668 872.157 336.589Q854.027 338.283 835.972 340.654L835.984 336.521ZM126.386 437.021C127.162 447.552 128.621 458.069 129.746 468.569Q133.394 503.479 137.442 538.345L166.727 792.087L174.175 856.826C175.146 865.505 176.548 874.26 177.153 882.964Q177.627 887.643 178.032 892.329C197.974 889.49 214.853 881.635 227.115 865.208C234.486 855.334 239.238 842.108 239.66 829.77C239.94 821.607 238.573 813.202 237.726 805.081L234.405 771.03Q228.48 703.918 221.614 636.895L208.162 489.331L204.318 447.146C203.75 441.444 203.572 435.304 202.501 429.701C202.412 429.232 202.329 429.059 202.173 428.657C201.389 428.641 200.627 428.57 199.854 428.723L154.235 433.624C145.004 434.619 135.522 435.397 126.386 437.021Z"/>
		<path fill="#1C0311" d="M400.384 421.203C401.911 421.12 403.455 421.131 404.985 421.105C427.729 420.717 450.527 421.033 473.279 421.028L607.93 420.946L678.751 420.958C690.427 420.974 703.005 419.955 714.533 421.53C721.783 422.521 727.061 425.215 732.274 430.333C737.256 435.225 741.069 441.723 742.066 448.696C743.402 458.046 742.49 468.452 742.461 477.906L742.489 532.171L742.839 749.823C742.861 751.922 743.127 754.118 741.591 755.677C734.248 758.03 718.468 756.658 710.25 756.596L368.528 756.419C368.118 748.178 368.417 739.788 368.411 731.528L368.381 685.582L368.298 554.421L368.423 485.513C368.42 473.336 367.509 460.291 368.955 448.221C369.614 442.724 372.612 437.215 376.158 433.006C382.555 425.414 390.612 421.977 400.384 421.203ZM372.537 752.502L599.25 752.492L738.487 752.488L738.518 540.398L738.451 479.84C738.441 470.063 739.371 459.131 737.922 449.471C736.977 443.168 733.728 437.471 729.257 432.991C725.294 429.02 720.24 426.304 714.677 425.446C707.73 424.374 699.846 424.997 692.808 425.002L651.706 425.059L512.607 425.246L432.488 425.396C422.683 425.388 403.754 424.274 395.216 425.911C390.049 426.901 384.472 430.215 380.763 433.871Q379.946 434.681 379.197 435.555Q378.448 436.429 377.772 437.361Q377.097 438.292 376.499 439.276Q375.901 440.259 375.385 441.287Q374.869 442.316 374.438 443.383Q374.006 444.45 373.663 445.549Q373.32 446.647 373.067 447.77Q372.814 448.893 372.653 450.032C371.372 459.575 372.288 470.361 372.292 480.024L372.327 541.872L372.537 752.502Z"/>
		<path fill="#1C0311" d="M554.19 487.984C569.394 487.676 584.672 488.053 599.884 488.069L688.394 488.013L688.37 499.511C659.932 499.94 631.424 499.497 602.977 499.482C589.701 499.475 576.132 498.922 562.894 499.827C560.964 507.544 557.933 515.225 555.502 522.814L538.392 575.914L512.975 656.531C510.317 664.83 508.04 673.33 505.169 681.549C504.635 683.079 504.342 683.597 502.869 684.293C500.278 682.93 488.525 650.663 486.331 645.374L463.891 589.626C460.062 580.25 456.51 570.268 451.696 561.366C439.449 560.838 427.14 561.313 414.878 561.044C414.726 557.318 414.797 553.575 414.806 549.845Q437.446 549.883 460.085 549.662Q481.819 601.146 502.018 653.252C505.835 635.48 512.699 618.009 518.061 600.642C529.675 563.022 541.404 525.217 554.19 487.984Z"/>
		<path fill="#1C0311" d="M703.698 438.756C708.371 438.629 713.169 438.607 717.387 440.945C720.245 442.529 722.89 445.322 723.679 448.554C725.529 456.131 724.589 465.458 724.609 473.238L724.676 515.604L724.616 616.87C724.604 632.054 725.154 647.381 724.76 662.542C724.711 664.433 724.496 666.127 723.527 667.772L722.77 667.836C721.188 666.337 720.725 663.945 720.529 661.848C720.147 657.757 720.57 653.283 720.573 649.153L720.571 618.916L720.546 508.565L720.543 473.047C720.541 466.918 720.897 460.518 720.346 454.421C720.137 452.112 719.72 448.67 718.168 446.865C715.951 444.285 713.222 443.583 709.98 443.254C700.401 442.284 690.259 442.975 680.616 442.964L623.87 442.946L478.315 442.953C454.048 442.976 429.619 443.629 405.372 443.073C402.148 443.069 399 443.275 396.073 444.765C393.099 446.279 390.771 449.223 390.091 452.503C388.769 458.877 389.374 466.097 389.363 472.592L389.269 502.268L389.36 633.065C389.359 639.136 390.376 661.34 388.852 665.429C388.427 666.569 388.141 667.075 386.982 667.54C386.867 667.428 386.734 667.332 386.636 667.205C385.381 665.57 385.563 662.215 385.546 660.186L385.514 523.989L385.387 479.044C385.37 471.518 384.772 463.457 385.546 455.984C386.016 451.434 386.945 447.641 390.274 444.36C393.193 441.484 396.475 439.715 400.56 439.223C410.821 437.988 422.14 438.898 432.534 438.908L493.789 438.895L703.698 438.756Z"/>
		<path fill="#1C0311" d="M623.962 591.247C637.129 578.703 649.24 564.714 662.959 552.803C665.535 555.317 668.018 557.945 670.539 560.516C657.861 573.317 645.152 586.773 631.386 598.382C644.316 612.349 658.882 624.863 671.66 638.994C669.29 641.519 667 644.147 664.219 646.232C650.243 634.188 637.427 620.103 624.406 607.032C614.447 615.592 605.595 625.432 596.284 634.677C592.365 638.568 588.352 643.089 583.756 646.163C581.1 643.89 578.905 641.339 576.706 638.634C580.23 634.746 584.305 631.231 588.021 627.514Q602.37 613.284 616.449 598.787C610.414 592.44 603.81 586.661 597.645 580.443C591.14 573.882 585.153 566.812 578.265 560.643C580.718 557.935 583.227 555.374 585.9 552.882C598.331 564.02 612.438 579.008 623.962 591.247Z"/>
		<path fill="#1C0311" d="M388.586 727.662C440.373 726.763 492.317 727.528 544.119 727.455L669.275 727.771C685.92 727.856 702.651 727.459 719.28 727.816C720.814 727.849 722.458 727.792 723.817 728.576C724.506 730.007 724.283 730.469 724.068 732.008C695.451 731.441 666.746 731.846 638.12 731.817L476.77 731.56L419.467 731.516C409.947 731.52 400.215 731.943 390.714 731.515C389.969 731.481 389.41 731.252 388.766 730.902C388.197 729.563 388.388 729.075 388.586 727.662Z"/>
		<path fill="#1C0311" d="M389.117 703.189C406.459 702.429 424.122 703.021 441.487 703.003L542.35 702.988L660.73 702.907C680.602 702.887 700.616 702.369 720.473 702.889C721.715 702.922 722.492 702.954 723.51 703.761C723.898 705.114 723.729 705.477 723.373 706.862C709.32 707.721 694.728 706.984 680.623 706.996L594.794 707.024L460.027 707.086C437.684 707.11 415.264 707.563 392.929 707.196C391.254 707.168 389.81 707.284 388.471 706.24C388.293 704.887 388.478 704.384 389.117 703.189Z"/>
		<path fill="#7478F6" d="M295.512 302.152C296.343 302.1 297.166 302.051 297.999 302.031C334.981 301.143 372.179 301.96 409.181 302.017L618.285 302.264L755.507 301.908L793.383 302.064C800.546 302.097 807.924 301.814 815.064 302.341C819.48 302.666 823.521 304.214 826.661 307.406C829.12 309.905 830.713 313.095 831.464 316.505C833.267 324.691 832.006 347.995 832.005 357.839L812.75 357.91L275.166 358.082C275.267 345.422 272.546 320.604 279.802 310.701C283.76 305.3 289.095 303.044 295.512 302.152Z"/>
		<path fill="#FEFEFE" d="M377.701 321.296Q377.937 321.247 378.174 321.21Q378.412 321.172 378.652 321.146Q378.891 321.12 379.131 321.106Q379.372 321.092 379.612 321.089Q379.853 321.086 380.094 321.095Q380.334 321.104 380.574 321.125Q380.814 321.146 381.052 321.178Q381.291 321.21 381.528 321.253Q381.764 321.297 381.999 321.352Q382.233 321.407 382.464 321.473Q382.696 321.54 382.924 321.617Q383.152 321.694 383.376 321.783Q383.6 321.871 383.819 321.97Q384.038 322.069 384.253 322.179Q384.467 322.288 384.676 322.408Q384.885 322.528 385.088 322.657Q385.29 322.787 385.487 322.926Q385.683 323.066 385.872 323.214Q386.062 323.363 386.243 323.521Q386.425 323.678 386.599 323.845Q386.774 324.011 386.939 324.185Q387.105 324.36 387.262 324.542Q387.42 324.724 387.568 324.914Q387.716 325.104 387.855 325.3Q387.994 325.497 388.123 325.7Q388.252 325.903 388.372 326.112Q388.491 326.321 388.6 326.536Q388.709 326.751 388.807 326.97Q388.906 327.19 388.994 327.414Q389.081 327.638 389.158 327.866Q389.235 328.094 389.301 328.326Q389.367 328.558 389.421 328.792Q389.475 329.026 389.518 329.263Q389.562 329.5 389.593 329.739Q389.625 329.977 389.645 330.217Q389.665 330.457 389.673 330.698Q389.681 330.938 389.678 331.179Q389.675 331.42 389.66 331.66Q389.645 331.9 389.619 332.14Q389.592 332.379 389.554 332.617Q389.516 332.854 389.467 333.09Q389.417 333.325 389.356 333.558Q389.296 333.791 389.224 334.021Q389.152 334.251 389.069 334.477Q388.986 334.703 388.892 334.924Q388.798 335.146 388.694 335.363Q388.589 335.58 388.474 335.791Q388.36 336.003 388.235 336.209Q388.11 336.415 387.975 336.614Q387.841 336.814 387.696 337.006Q387.552 337.199 387.399 337.385Q387.246 337.57 387.083 337.748Q386.921 337.926 386.751 338.096Q386.58 338.266 386.402 338.428Q386.223 338.589 386.037 338.742Q385.851 338.894 385.658 339.038Q385.465 339.181 385.265 339.315Q385.065 339.449 384.858 339.573Q384.652 339.698 384.44 339.812Q384.228 339.926 384.011 340.029Q383.794 340.133 383.572 340.226Q383.35 340.319 383.123 340.401Q382.897 340.484 382.667 340.555Q382.437 340.626 382.204 340.686Q381.884 340.768 381.558 340.829Q381.233 340.891 380.905 340.93Q380.576 340.969 380.246 340.986Q379.915 341.004 379.585 340.999Q379.254 340.995 378.924 340.968Q378.594 340.942 378.267 340.893Q377.94 340.845 377.616 340.775Q377.293 340.705 376.975 340.614Q376.657 340.522 376.346 340.41Q376.034 340.298 375.731 340.165Q375.428 340.033 375.135 339.88Q374.841 339.728 374.558 339.556Q374.275 339.384 374.004 339.194Q373.734 339.004 373.476 338.797Q373.218 338.589 372.975 338.365Q372.732 338.141 372.504 337.901Q372.276 337.661 372.065 337.407Q371.853 337.152 371.659 336.884Q371.465 336.616 371.289 336.336Q371.113 336.056 370.956 335.764Q370.8 335.473 370.662 335.172Q370.525 334.871 370.408 334.561Q370.291 334.252 370.195 333.935Q370.099 333.619 370.024 333.296Q369.95 332.974 369.896 332.647Q369.843 332.321 369.812 331.991Q369.78 331.662 369.771 331.331Q369.761 331.001 369.773 330.67Q369.786 330.339 369.82 330.01Q369.855 329.681 369.911 329.355Q369.967 329.029 370.044 328.707Q370.122 328.386 370.221 328.07Q370.32 327.754 370.439 327.446Q370.559 327.137 370.699 326.838Q370.839 326.538 370.998 326.248Q371.157 325.958 371.336 325.679Q371.514 325.401 371.71 325.134Q371.907 324.868 372.12 324.616Q372.334 324.363 372.564 324.125Q372.794 323.887 373.039 323.665Q373.284 323.443 373.544 323.238Q373.803 323.032 374.076 322.845Q374.348 322.657 374.633 322.488Q374.917 322.319 375.212 322.169Q375.507 322.019 375.811 321.889Q376.115 321.759 376.427 321.65Q376.74 321.54 377.058 321.452Q377.377 321.363 377.701 321.296Z"/>
		<path fill="#FEFEFE" d="M309.458 321.671Q309.771 321.568 310.089 321.486Q310.408 321.405 310.731 321.344Q311.055 321.284 311.382 321.245Q311.708 321.206 312.037 321.188Q312.365 321.171 312.694 321.176Q313.023 321.18 313.351 321.207Q313.679 321.233 314.005 321.281Q314.331 321.329 314.652 321.398Q314.974 321.468 315.29 321.559Q315.606 321.649 315.916 321.76Q316.226 321.872 316.527 322.003Q316.829 322.135 317.121 322.286Q317.413 322.438 317.695 322.608Q317.976 322.778 318.246 322.967Q318.516 323.155 318.772 323.361Q319.029 323.567 319.271 323.79Q319.513 324.013 319.741 324.251Q319.968 324.489 320.178 324.742Q320.389 324.994 320.583 325.26Q320.777 325.526 320.952 325.805Q321.128 326.083 321.285 326.372Q321.441 326.662 321.579 326.961Q321.716 327.26 321.833 327.568Q321.95 327.875 322.047 328.19Q322.143 328.504 322.219 328.825Q322.294 329.145 322.348 329.47Q322.402 329.794 322.435 330.122Q322.467 330.449 322.478 330.778Q322.489 331.107 322.478 331.436Q322.467 331.765 322.434 332.092Q322.401 332.42 322.346 332.744Q322.292 333.069 322.216 333.389Q322.14 333.709 322.043 334.024Q321.946 334.338 321.829 334.645Q321.711 334.953 321.574 335.252Q321.436 335.551 321.279 335.84Q321.122 336.129 320.946 336.407Q320.77 336.685 320.576 336.951Q320.382 337.217 320.171 337.469Q319.96 337.721 319.733 337.959Q319.505 338.197 319.263 338.419Q319.02 338.642 318.763 338.847Q318.506 339.053 318.237 339.241Q317.967 339.43 317.685 339.599Q317.403 339.769 317.111 339.92Q316.818 340.071 316.517 340.203Q316.215 340.334 315.905 340.445Q315.595 340.556 315.279 340.646Q315.048 340.712 314.813 340.767Q314.579 340.821 314.342 340.865Q314.106 340.908 313.867 340.94Q313.629 340.971 313.389 340.992Q313.149 341.012 312.909 341.02Q312.669 341.029 312.428 341.026Q312.187 341.022 311.947 341.008Q311.707 340.993 311.468 340.966Q311.229 340.94 310.991 340.902Q310.754 340.864 310.518 340.815Q310.283 340.765 310.05 340.705Q309.817 340.644 309.588 340.572Q309.358 340.5 309.133 340.417Q308.907 340.334 308.685 340.24Q308.464 340.146 308.247 340.042Q308.03 339.937 307.819 339.822Q307.608 339.708 307.402 339.583Q307.196 339.458 306.997 339.323Q306.798 339.188 306.605 339.044Q306.413 338.9 306.227 338.746Q306.042 338.593 305.865 338.431Q305.687 338.268 305.517 338.098Q305.348 337.927 305.187 337.748Q305.025 337.57 304.873 337.384Q304.721 337.197 304.578 337.004Q304.435 336.81 304.301 336.61Q304.168 336.41 304.044 336.204Q303.92 335.998 303.807 335.786Q303.693 335.573 303.59 335.356Q303.487 335.139 303.394 334.917Q303.302 334.695 303.22 334.468Q303.139 334.242 303.068 334.012Q302.997 333.782 302.938 333.549Q302.879 333.316 302.831 333.08Q302.783 332.844 302.746 332.606Q302.71 332.369 302.685 332.129Q302.66 331.89 302.647 331.65Q302.633 331.41 302.632 331.169Q302.63 330.928 302.64 330.688Q302.65 330.448 302.672 330.208Q302.693 329.968 302.727 329.73Q302.76 329.492 302.804 329.255Q302.849 329.019 302.905 328.785Q302.961 328.551 303.029 328.32Q303.096 328.089 303.175 327.862Q303.253 327.634 303.343 327.411Q303.432 327.188 303.532 326.969Q303.632 326.75 303.743 326.537Q303.854 326.323 303.974 326.115Q304.095 325.907 304.226 325.705Q304.357 325.503 304.497 325.308Q304.638 325.112 304.787 324.924Q304.937 324.736 305.096 324.555Q305.254 324.374 305.422 324.201Q305.589 324.028 305.764 323.863Q305.94 323.699 306.123 323.543Q306.306 323.387 306.497 323.24Q306.687 323.093 306.884 322.956Q307.082 322.818 307.286 322.69Q307.49 322.562 307.699 322.445Q307.909 322.327 308.124 322.22Q308.34 322.112 308.56 322.015Q308.78 321.918 309.005 321.832Q309.229 321.746 309.458 321.671Z"/>
		<path fill="#FEFEFE" d="M346.13 320.901Q346.37 320.892 346.611 320.895Q346.851 320.898 347.091 320.913Q347.331 320.928 347.57 320.954Q347.809 320.98 348.047 321.018Q348.284 321.056 348.52 321.106Q348.755 321.155 348.988 321.216Q349.22 321.276 349.45 321.348Q349.679 321.42 349.905 321.503Q350.131 321.586 350.352 321.68Q350.574 321.773 350.79 321.878Q351.007 321.982 351.218 322.097Q351.43 322.212 351.635 322.336Q351.841 322.461 352.04 322.596Q352.239 322.731 352.431 322.875Q352.624 323.019 352.809 323.172Q352.994 323.326 353.172 323.488Q353.35 323.65 353.519 323.82Q353.689 323.991 353.85 324.169Q354.011 324.348 354.163 324.534Q354.315 324.72 354.458 324.914Q354.601 325.107 354.735 325.307Q354.868 325.507 354.992 325.713Q355.116 325.919 355.229 326.131Q355.343 326.343 355.446 326.56Q355.549 326.778 355.642 327Q355.734 327.222 355.816 327.448Q355.897 327.674 355.968 327.904Q356.038 328.134 356.098 328.367Q356.157 328.6 356.205 328.836Q356.253 329.071 356.289 329.309Q356.326 329.547 356.351 329.786Q356.376 330.025 356.389 330.265Q356.402 330.505 356.404 330.746Q356.406 330.986 356.396 331.226Q356.386 331.466 356.364 331.706Q356.342 331.945 356.309 332.184Q356.276 332.422 356.231 332.658Q356.186 332.894 356.13 333.128Q356.074 333.362 356.007 333.593Q355.94 333.824 355.861 334.051Q355.783 334.278 355.693 334.501Q355.604 334.725 355.504 334.943Q355.404 335.162 355.293 335.375Q355.182 335.589 355.062 335.797Q354.941 336.005 354.81 336.206Q354.679 336.408 354.539 336.604Q354.399 336.799 354.249 336.987Q354.099 337.175 353.941 337.356Q353.782 337.537 353.615 337.71Q353.448 337.882 353.272 338.047Q353.097 338.211 352.914 338.367Q352.731 338.523 352.54 338.67Q352.35 338.817 352.153 338.954Q351.955 339.092 351.751 339.219Q351.548 339.347 351.338 339.465Q351.128 339.582 350.913 339.69Q350.698 339.797 350.478 339.894Q350.258 339.99 350.033 340.076Q349.809 340.162 349.58 340.238Q349.352 340.313 349.12 340.376Q348.888 340.44 348.653 340.493Q348.419 340.545 348.182 340.587Q347.945 340.628 347.706 340.657Q347.468 340.687 347.228 340.705Q346.9 340.73 346.571 340.732Q346.243 340.735 345.914 340.716Q345.586 340.698 345.26 340.657Q344.934 340.616 344.611 340.554Q344.288 340.492 343.97 340.409Q343.652 340.326 343.34 340.221Q343.028 340.117 342.724 339.992Q342.42 339.868 342.125 339.723Q341.829 339.579 341.544 339.415Q341.259 339.251 340.985 339.069Q340.712 338.887 340.451 338.687Q340.19 338.487 339.943 338.27Q339.696 338.053 339.463 337.821Q339.231 337.588 339.015 337.34Q338.799 337.093 338.599 336.831Q338.4 336.57 338.218 336.296Q338.036 336.022 337.873 335.737Q337.71 335.451 337.566 335.155Q337.422 334.86 337.298 334.555Q337.174 334.251 337.071 333.939Q336.967 333.627 336.885 333.308Q336.802 332.99 336.74 332.667Q336.679 332.344 336.639 332.018Q336.599 331.692 336.581 331.363Q336.563 331.035 336.566 330.706Q336.57 330.378 336.595 330.05Q336.621 329.722 336.668 329.396Q336.715 329.071 336.783 328.75Q336.852 328.428 336.941 328.112Q337.031 327.795 337.141 327.486Q337.251 327.176 337.382 326.874Q337.513 326.572 337.663 326.28Q337.813 325.988 337.983 325.706Q338.152 325.424 338.339 325.154Q338.527 324.884 338.732 324.627Q338.937 324.37 339.159 324.127Q339.381 323.884 339.618 323.657Q339.855 323.429 340.107 323.218Q340.358 323.006 340.624 322.812Q340.889 322.618 341.166 322.441Q341.444 322.265 341.733 322.108Q342.021 321.95 342.319 321.812Q342.618 321.674 342.925 321.556Q343.232 321.438 343.546 321.34Q343.86 321.243 344.179 321.166Q344.499 321.09 344.823 321.035Q345.147 320.98 345.474 320.946Q345.801 320.913 346.13 320.901Z"/>
	</g>
	<g>
		<path fill="#FEFEFE" d="M0 0L1024 0L1024 1024L0 1024L0 0ZM202.546 424.46C185.068 427.33 167.195 428.877 149.582 430.767C140.678 431.723 131.202 432.208 122.496 434.353C124.076 450.769 126.284 467.117 128.041 483.513Q137.188 571.115 147.914 658.538L175.141 896.348C194.259 894.012 213.472 892.513 232.625 890.5L366.403 876.36Q540.039 858.084 713.457 837.846Q781.285 830.673 848.988 822.404C866.846 820.278 884.794 818.995 902.58 816.24L902.936 477.262Q903.545 403.893 902.959 330.523C894.041 330.333 884.549 332.127 875.662 333.072Q855.853 335.139 835.984 336.521C836.038 325.513 837.692 312.76 829.23 304.16C827.387 302.287 825.314 300.97 823.046 299.692C822.859 299.587 822.678 299.473 822.49 299.371C819.27 297.633 813.093 297.669 809.413 297.622C778.956 297.231 748.446 297.669 717.984 297.663L480.968 297.843L356.23 297.698C344.641 297.695 297.036 296.325 289.248 298.986C282.403 301.325 277.008 305.713 273.735 312.235C268.624 322.416 270.945 335.456 270.693 346.51C264.932 347.857 258.711 348.332 252.841 349.044L217.988 353.227C211.07 354.051 204.01 354.566 197.204 356.064C197.556 365.076 198.72 374.088 199.381 383.086C200.394 396.882 201.077 410.699 202.546 424.46Z"/>
		<path fill="#FEFEFE" d="M200.478 358.993C209.17 357.485 218.086 356.714 226.851 355.627L270.488 349.973L270.563 393.105C270.576 400.95 270.284 408.939 270.891 416.756L270.601 621.509L270.539 640.98L270.45 659.441C270.459 675.179 270.135 690.934 270.297 706.668C270.444 720.918 271.228 735.57 270.395 749.772L270.34 782.263C270.311 789.341 269.508 797.426 271.137 804.357Q271.325 805.167 271.569 805.962Q271.812 806.758 272.11 807.534Q272.407 808.311 272.757 809.065Q273.108 809.82 273.509 810.548Q273.911 811.276 274.361 811.975Q274.812 812.674 275.309 813.341Q275.807 814.007 276.349 814.638Q276.892 815.268 277.476 815.86C280.928 819.342 285.819 821.862 290.71 822.399C302.406 823.684 319.546 822.635 331.77 822.625L414.855 822.626L630.004 823.035L703.467 822.959C715.224 822.939 727.097 822.58 738.842 822.895C763.731 824.044 788.857 821.801 813.731 823.327C785.078 827.541 755.956 829.622 727.173 832.835L562.734 851.655L375.776 871.785L248.826 885.459C231.34 887.27 213.768 889.67 196.26 891.064C208.313 887.721 218.781 880.339 226.83 870.842C235.965 860.062 241.994 845.025 242.881 830.922C243.296 824.321 242.374 817.631 241.754 811.063L238.971 782.501Q234.529 738.301 230.654 694.047Q214.41 526.624 200.478 358.993Z"/>
		<path fill="#B4B2B3" d="M270.45 659.441C270.459 675.179 270.135 690.934 270.297 706.668C270.444 720.918 271.228 735.57 270.395 749.772C268.919 743.182 269.91 718.001 269.918 709.395L262.866 709.117C262.439 703.149 262.63 697.054 262.604 691.067L269.89 691.143L269.921 682.513L262.783 682.462C262.775 676.143 262.636 669.819 262.562 663.501C264.8 663.493 266.983 663.95 269.162 663.272C270.367 661.976 270.22 661.164 270.45 659.441Z"/>
		<path fill="#B4B2B3" d="M261.489 621.193C264.525 621.234 267.567 621.396 270.601 621.509L270.539 640.98C267.613 640.445 264.494 640.437 261.521 640.259L261.489 621.193Z"/>
		<path fill="#FEFEFE" d="M835.972 461.624Q867.41 457.444 899.05 455.284C899.105 461.491 898.849 467.914 899.402 474.086L899.057 609.409C888.204 609.976 877.335 611.157 866.508 612.108C856.336 613.001 846.05 613.646 835.932 614.996L835.972 461.624Z"/>
		<path fill="#FEFEFE" d="M835.946 705.647C848.893 704.949 861.855 703.513 874.759 702.259C882.826 701.475 890.997 700.987 899.034 700.015C899.106 704.688 898.853 709.617 899.415 714.249Q899.645 763.702 898.904 813.151C879.481 816.706 859.597 818.103 839.976 820.277C833.307 821.016 820.526 823.536 814.445 822.692Q815.413 822.455 816.362 822.152Q817.312 821.849 818.238 821.482Q819.165 821.116 820.064 820.687Q820.964 820.258 821.832 819.768Q822.7 819.279 823.532 818.732Q824.365 818.184 825.158 817.581Q825.952 816.978 826.702 816.323Q827.453 815.667 828.157 814.962C831.349 811.752 833.866 807.652 834.95 803.241C837.13 794.372 835.973 783.738 835.982 774.589L835.993 730.595C847.709 729.416 859.367 728.215 871.038 726.633L870.976 713.423C862.149 713.538 844.35 715.338 835.969 717.081L835.946 705.647Z"/>
		<path fill="#FEFEFE" d="M835.972 340.654Q854.027 338.283 872.157 336.589C881.227 335.668 890.338 334.554 899.447 334.144C901.38 369.763 899.604 405.751 899.505 441.413C878.315 443.357 857.144 446.11 835.934 447.707L835.972 340.654Z"/>
		<path fill="#FEFEFE" d="M835.989 653.959C841.483 652.967 897.135 647.548 899.399 648.399C899.473 660.878 899.684 673.42 899.182 685.889C878.118 688.109 856.979 690.032 835.965 692.671L835.989 653.959Z"/>
		<path fill="#FEFEFE" d="M835.898 629.656C846.942 627.929 858.187 626.938 869.296 625.661C879.155 624.528 889.136 623.024 899.036 622.434L899.057 634.114C878.071 635.985 856.755 637.41 835.914 640.487L835.898 629.656Z"/>
		<path fill="#FEFEFE" d="M199.854 428.723C200.627 428.57 201.389 428.641 202.173 428.657C202.329 429.059 202.412 429.232 202.501 429.701C203.572 435.304 203.75 441.444 204.318 447.146L208.162 489.331L221.614 636.895Q228.48 703.918 234.405 771.03L237.726 805.081C238.573 813.202 239.94 821.607 239.66 829.77C239.238 842.108 234.486 855.334 227.115 865.208C214.853 881.635 197.974 889.49 178.032 892.329Q177.627 887.643 177.153 882.964C176.548 874.26 175.146 865.505 174.175 856.826L166.727 792.087L137.442 538.345Q133.393 503.479 129.746 468.569C128.621 458.069 127.162 447.552 126.386 437.021C135.522 435.397 145.004 434.619 154.235 433.624L199.854 428.723Z"/>
		<path fill="#FEFEFE" d="M275.896 362.249L832.13 361.978L831.997 658.755L832.039 752.401L832.053 780.241C832.051 786.486 832.298 792.897 831.588 799.104C830.93 804.865 828.165 808.803 824.321 812.928C819.111 817.259 815.769 818.478 809.064 818.591C775.426 819.158 741.679 818.472 708.029 818.499L478.45 818.516L353.85 818.489L313.977 818.521C307.413 818.529 300.606 818.975 294.078 818.494C288.831 818.107 284.251 816.339 280.506 812.571C275.679 807.714 274.548 801.902 274.464 795.311C273.822 745.212 274.719 694.999 274.837 644.891L275.012 371.015C275.012 368.8 274.427 363.759 275.896 362.249ZM368.528 756.419L710.25 756.596C718.468 756.658 734.248 758.03 741.591 755.677C743.127 754.118 742.861 751.922 742.839 749.823L742.489 532.171L742.461 477.906C742.49 468.452 743.402 458.046 742.066 448.696C741.069 441.723 737.256 435.225 732.274 430.333C727.061 425.215 721.783 422.521 714.533 421.53C703.005 419.955 690.427 420.974 678.751 420.958L607.93 420.946L473.279 421.028C450.527 421.033 427.729 420.717 404.985 421.105C403.455 421.131 401.911 421.12 400.384 421.203C390.612 421.977 382.555 425.414 376.158 433.006C372.612 437.215 369.614 442.724 368.955 448.221C367.509 460.291 368.42 473.336 368.423 485.513L368.298 554.421L368.381 685.582L368.411 731.528C368.417 739.788 368.118 748.178 368.528 756.419Z"/>
		<path fill="#FEFEFE" d="M512.607 425.246L651.706 425.059L692.808 425.002C699.846 424.997 707.73 424.374 714.677 425.446C720.24 426.304 725.294 429.02 729.257 432.991C733.728 437.471 736.977 443.168 737.922 449.471C739.371 459.131 738.441 470.063 738.451 479.84L738.518 540.398L738.487 752.488L599.25 752.492L372.537 752.502L372.327 541.872L372.292 480.024C372.288 470.361 371.372 459.575 372.653 450.032Q372.814 448.893 373.067 447.77Q373.32 446.647 373.663 445.549Q374.006 444.45 374.438 443.383Q374.869 442.316 375.385 441.287Q375.901 440.259 376.499 439.275Q377.097 438.292 377.772 437.361Q378.448 436.429 379.197 435.555Q379.946 434.681 380.763 433.871C384.472 430.215 390.049 426.901 395.216 425.911C403.754 424.274 422.683 425.388 432.488 425.396L512.607 425.246ZM502.018 653.252Q481.819 601.146 460.085 549.662Q437.446 549.883 414.806 549.845C414.797 553.575 414.726 557.318 414.878 561.044C427.14 561.313 439.449 560.838 451.696 561.366C456.51 570.268 460.062 580.25 463.891 589.626L486.331 645.374C488.525 650.663 500.278 682.93 502.869 684.293C504.342 683.597 504.635 683.079 505.169 681.549C508.04 673.33 510.317 664.83 512.975 656.531L538.392 575.914L555.502 522.814C557.933 515.225 560.964 507.544 562.894 499.827C576.132 498.922 589.701 499.475 602.977 499.482C631.424 499.497 659.932 499.94 688.37 499.511L688.394 488.013L599.884 488.069C584.672 488.053 569.394 487.676 554.19 487.984C541.404 525.217 529.675 563.022 518.061 600.642C512.699 618.009 505.835 635.48 502.018 653.252ZM585.9 552.882C583.227 555.374 580.718 557.935 578.265 560.643C585.153 566.812 591.14 573.882 597.645 580.443C603.81 586.661 610.414 592.44 616.449 598.787Q602.37 613.284 588.021 627.514C584.305 631.231 580.23 634.746 576.706 638.634C578.905 641.339 581.1 643.89 583.756 646.163C588.352 643.089 592.365 638.568 596.284 634.677C605.595 625.432 614.447 615.592 624.406 607.032C637.427 620.103 650.243 634.188 664.219 646.232C667 644.147 669.29 641.519 671.66 638.994C658.882 624.863 644.316 612.349 631.386 598.382C645.152 586.773 657.861 573.317 670.539 560.516C668.018 557.945 665.535 555.317 662.959 552.803C649.24 564.714 637.129 578.703 623.962 591.247C612.438 579.008 598.331 564.02 585.9 552.882ZM389.117 703.189C388.478 704.384 388.293 704.887 388.471 706.24C389.81 707.284 391.254 707.168 392.929 707.196C415.264 707.563 437.684 707.11 460.027 707.086L594.794 707.024L680.623 706.996C694.728 706.984 709.32 707.721 723.373 706.862C723.729 705.477 723.898 705.114 723.51 703.761C722.492 702.954 721.715 702.922 720.473 702.889C700.616 702.369 680.602 702.887 660.73 702.907L542.35 702.988L441.487 703.003C424.122 703.021 406.459 702.429 389.117 703.189ZM703.698 438.756L493.789 438.895L432.534 438.908C422.14 438.898 410.821 437.988 400.56 439.223C396.475 439.715 393.193 441.484 390.274 444.36C386.945 447.641 386.016 451.434 385.546 455.984C384.772 463.457 385.37 471.518 385.387 479.044L385.514 523.989L385.546 660.186C385.563 662.215 385.381 665.57 386.636 667.205C386.734 667.332 386.867 667.428 386.982 667.54C388.141 667.075 388.427 666.569 388.852 665.429C390.376 661.34 389.359 639.136 389.36 633.065L389.269 502.268L389.363 472.592C389.374 466.097 388.769 458.877 390.091 452.503C390.771 449.223 393.099 446.279 396.073 444.765C399 443.275 402.148 443.069 405.372 443.073C429.619 443.629 454.048 442.976 478.315 442.953L623.87 442.946L680.616 442.964C690.259 442.975 700.401 442.284 709.98 443.254C713.222 443.583 715.951 444.285 718.168 446.865C719.72 448.67 720.137 452.112 720.346 454.421C720.897 460.518 720.541 466.918 720.543 473.047L720.546 508.565L720.571 618.916L720.573 649.153C720.57 653.283 720.147 657.757 720.529 661.848C720.725 663.945 721.188 666.337 722.77 667.836L723.527 667.772C724.496 666.127 724.711 664.433 724.76 662.542C725.154 647.381 724.604 632.054 724.616 616.87L724.676 515.604L724.609 473.238C724.589 465.458 725.529 456.131 723.679 448.554C722.89 445.322 720.245 442.529 717.387 440.945C713.169 438.607 708.371 438.629 703.698 438.756ZM388.586 727.662C388.388 729.075 388.197 729.563 388.766 730.902C389.41 731.252 389.969 731.481 390.714 731.515C400.215 731.943 409.947 731.52 419.467 731.516L476.77 731.56L638.12 731.817C666.746 731.846 695.451 731.441 724.068 732.008C724.283 730.469 724.506 730.007 723.817 728.576C722.458 727.792 720.814 727.849 719.28 727.816C702.651 727.459 685.92 727.856 669.275 727.771L544.119 727.455C492.317 727.528 440.373 726.763 388.586 727.662Z"/>
		<path fill="#B4B2B3" d="M636.845 127.699C641.124 127.45 646.822 126.417 650.806 128.092C651.57 129.158 651.566 129.111 651.434 130.414C650.167 131.34 649.202 131.194 647.659 131.318C644.162 131.412 635.361 132.559 632.688 130.707C631.875 130.143 631.501 129.724 631.382 128.781C631.481 128.655 631.545 128.492 631.678 128.403C632.814 127.639 635.479 127.791 636.845 127.699Z"/>
		<path fill="#B4B2B3" d="M284.219 270.363C285.405 270.884 285.469 270.769 285.952 271.95C284.654 276.381 278.055 282.012 274.468 284.805C273.848 284.507 273.383 284.27 272.873 283.794C272.297 283.256 272.477 282.798 272.432 282.048C274.355 277.169 279.997 273.247 284.219 270.363Z"/>
		<path fill="#B4B2B3" d="M257.237 296.88C258.303 297.324 258.411 297.583 259.094 298.538C259.187 301.722 250.075 310.457 247.621 313.229C246.827 312.966 247.137 313.131 246.418 312.621C245.665 312.088 245.854 311.927 245.722 311.067C247.248 306.347 253.456 300.134 257.237 296.88Z"/>
		<path fill="#B4B2B3" d="M188.809 399.335L190.745 399.556L191.246 400.319C190.99 404.223 184.731 412.628 182.5 416.458C181.493 416.517 181.826 416.605 180.966 416.294C180.166 416.004 180.278 415.762 179.954 415.032C180.31 410.8 185.766 402.396 188.809 399.335Z"/>
		<path fill="#B4B2B3" d="M312.382 244.844C313.176 244.959 313.605 245.211 314.304 245.583L314.605 246.64C312.154 251.267 305.034 255.637 300.915 258.91C299.945 258.726 299.566 258.569 298.855 257.879L298.907 256.773C301.836 252.173 308.091 248.24 312.382 244.844Z"/>
		<path fill="#B4B2B3" d="M341.888 222.748C342.103 222.799 342.326 222.823 342.532 222.902C343.752 223.368 343.788 223.625 344.169 224.774C342.998 227.672 333.711 233.317 330.863 235.697L330.115 235.765C329.09 235.08 328.961 234.873 328.4 233.766C329.1 230.479 339.009 224.829 341.888 222.748Z"/>
		<path fill="#B4B2B3" d="M538.96 139.649C539.049 139.652 539.139 139.64 539.226 139.658C540.559 139.937 540.586 140.151 541.309 141.25L541.011 142.125C537.393 144.95 529.745 145.645 525.23 146.921L524.313 146.816L523.404 145.608L523.552 144.659C526.902 141.306 534.458 140.418 538.96 139.649Z"/>
		<path fill="#B4B2B3" d="M669.834 127.531C674.878 127.468 683.228 126.297 687.616 128.622C688.268 129.92 688.09 130.12 687.813 131.573C682.626 131.216 675.307 132.454 670.57 130.523C669.674 129.307 669.815 129.069 669.834 127.531Z"/>
		<path fill="#B4B2B3" d="M436.595 171.435L438 171.288C439.198 171.833 439.236 171.86 439.869 173.013C438.17 176.525 429.45 178.631 425.674 179.98C424.366 180.279 424.035 180.468 422.709 180.1L422.176 178.261L422.488 179.284C422.539 179.15 422.565 179.003 422.641 178.882C424.696 175.622 432.99 172.984 436.595 171.435Z"/>
		<path fill="#B4B2B3" d="M373.048 203.347C373.988 203.591 374.147 203.726 374.845 204.343L374.886 205.383C372.419 209.054 364.333 212.418 360.384 214.639C360.342 214.63 360.298 214.626 360.258 214.611C359.073 214.179 358.938 214.194 358.353 213.117C359.961 209.044 369.111 205.365 373.048 203.347Z"/>
		<path fill="#B4B2B3" d="M404.974 185.915C405.17 185.903 405.367 185.862 405.563 185.878C406.677 185.971 406.983 186.176 407.701 186.938L407.418 187.792C404.182 191.31 397.521 193.695 393.148 195.828L391.997 196.161C390.848 195.651 390.811 195.919 390.318 194.667C392.051 190.76 401.131 187.686 404.974 185.915Z"/>
		<path fill="#B4B2B3" d="M609.005 129.707C609.985 129.619 611.016 129.489 612 129.535C613.336 129.596 614.033 129.854 614.97 130.774L614.951 131.583C612.698 133.709 604.643 133.571 601.49 133.871C600.428 134.065 599.216 134.372 598.139 134.369C596.674 134.365 596.001 133.809 594.985 132.848L594.973 131.97C597.586 129.636 605.576 129.955 609.005 129.707Z"/>
		<path fill="#B4B2B3" d="M232.294 327.262L233.81 327.746L234.275 328.727C233.283 333.91 227.948 339.824 224.588 343.786C223.617 343.387 223.454 343.283 222.808 342.459C223.228 337.847 229.355 330.822 232.294 327.262Z"/>
		<path fill="#B4B2B3" d="M471.194 158.481C472.096 158.692 472.413 159.068 473.102 159.659L472.514 161.184C468.404 164.033 461.956 165.545 457.17 167.302C456.53 166.728 456.172 166.427 455.891 165.582C455.711 165.042 455.642 165.016 455.951 164.551C457.818 161.742 467.674 159.589 471.194 158.481Z"/>
		<path fill="#B4B2B3" d="M575.721 133.674C576.78 133.862 577.102 133.754 577.913 134.511C577.796 134.74 577.413 135.514 577.274 135.694C575.336 138.194 563.901 138.79 560.432 139.288C559.687 138.933 559.365 138.586 558.795 138.005L558.855 137.087C562.464 134.399 571.208 134.275 575.721 133.674Z"/>
		<path fill="#B4B2B3" d="M503.532 148.594C504.336 148.488 504.876 148.386 505.664 148.659C506.398 148.912 506.418 149.411 506.745 150.064L506.43 150.765C502.332 153.04 496.806 154.052 492.306 155.458C490.721 155.261 490.58 155.221 489.377 154.177L489.327 153.33C491.864 150.519 499.806 149.499 503.532 148.594Z"/>
	</g>
</svg>