<?xml version="1.0" encoding="utf-8" ?>
<svg xmlns="http://www.w3.org/2000/svg" xmlns:xlink="http://www.w3.org/1999/xlink" width="1024" height="1024">
	<g>
		<path d="M347.597 427.999C343.714 383.834 356.468 342.7 384.909 308.552Q386.145 307.047 387.417 305.573Q388.69 304.099 389.998 302.656Q391.306 301.214 392.65 299.804Q393.993 298.395 395.371 297.018Q396.748 295.642 398.16 294.3Q399.571 292.958 401.015 291.652Q402.458 290.345 403.934 289.074Q405.41 287.804 406.916 286.57Q408.422 285.336 409.959 284.139Q411.495 282.942 413.06 281.784Q414.626 280.625 416.219 279.506Q417.812 278.386 419.433 277.307Q421.053 276.227 422.7 275.187Q424.346 274.147 426.018 273.148Q427.689 272.149 429.385 271.192Q431.081 270.235 432.8 269.319Q434.518 268.404 436.259 267.531Q438 266.658 439.762 265.829Q441.523 264.999 443.305 264.213Q445.087 263.427 446.887 262.685Q448.687 261.943 450.506 261.246Q452.324 260.548 454.159 259.896Q455.993 259.244 457.844 258.637Q459.694 258.03 461.559 257.468Q463.423 256.907 465.301 256.392Q467.179 255.877 469.069 255.408Q470.959 254.939 472.86 254.517Q474.761 254.095 476.672 253.719Q478.583 253.344 480.502 253.016Q482.422 252.688 484.349 252.407Q486.276 252.127 488.209 251.894Q490.143 251.66 492.081 251.475C529.059 248.213 564.464 258.491 594.16 280.685C603.735 275.846 614.356 274.068 624.721 277.502C633.505 280.412 640.538 286.559 645.315 294.393C650.458 303.441 652.502 313.502 649.741 323.719Q649.504 324.569 649.229 325.408Q648.954 326.246 648.642 327.072Q648.329 327.897 647.98 328.708Q647.631 329.518 647.246 330.312Q646.861 331.106 646.44 331.882Q646.02 332.658 645.565 333.414Q645.11 334.171 644.622 334.906Q644.133 335.641 643.612 336.353Q643.092 337.066 642.539 337.754Q641.987 338.442 641.404 339.105Q640.821 339.768 640.21 340.404Q639.598 341.04 638.958 341.648Q638.318 342.256 637.652 342.834Q636.985 343.413 636.293 343.961Q635.602 344.509 634.886 345.025Q634.17 345.541 633.432 346.025C633.881 350.592 636.067 361.475 633.281 365.166C632.071 365.588 632.141 365.555 630.96 365.036C629.192 360.245 630.12 353.702 629.392 348.543C618.8 352.679 607.845 353.826 597.215 349.066C588.158 345.01 581.399 337.325 577.989 328.064Q577.651 327.159 577.359 326.239Q577.068 325.318 576.822 324.384Q576.576 323.451 576.377 322.506Q576.179 321.561 576.027 320.607Q575.876 319.653 575.773 318.693Q575.669 317.733 575.614 316.769Q575.558 315.805 575.551 314.839Q575.544 313.873 575.585 312.909Q575.626 311.944 575.715 310.982Q575.804 310.021 575.941 309.065Q576.078 308.109 576.263 307.161Q576.448 306.213 576.679 305.276Q576.911 304.338 577.189 303.414Q577.468 302.489 577.792 301.579Q578.116 300.669 578.485 299.777Q578.854 298.885 579.267 298.012C582.044 292.121 586.167 287.703 591.047 283.49C557.216 259.637 520.992 250.161 479.704 257.215C439.273 264.122 402.797 288.869 379.346 322.198Q378.331 323.614 377.349 325.053Q376.366 326.491 375.417 327.952Q374.468 329.413 373.553 330.896Q372.637 332.378 371.756 333.881Q370.875 335.384 370.028 336.906Q369.182 338.429 368.37 339.97Q367.559 341.512 366.783 343.072Q366.007 344.632 365.267 346.209Q364.527 347.786 363.823 349.38Q363.119 350.973 362.452 352.583Q361.785 354.192 361.155 355.816Q360.525 357.441 359.932 359.079Q359.34 360.717 358.785 362.369Q358.23 364.02 357.713 365.684Q357.196 367.347 356.717 369.023Q356.238 370.698 355.798 372.383Q355.358 374.069 354.956 375.764Q354.555 377.459 354.192 379.163Q353.829 380.867 353.506 382.579Q353.182 384.291 352.898 386.01Q352.614 387.729 352.369 389.454Q352.124 391.179 351.919 392.909Q351.714 394.639 351.548 396.373Q351.383 398.107 351.257 399.845Q351.131 401.582 351.045 403.322Q350.959 405.062 350.913 406.804Q350.867 408.546 350.861 410.288Q350.855 412.03 350.889 413.772Q350.922 415.514 350.996 417.254Q351.07 418.995 351.183 420.733Q351.297 422.472 351.45 424.207Q351.603 425.943 351.796 427.674Q495.201 421.407 638.5 413.039Q682.803 410.411 727.142 408.493L752.33 407.257C757.386 406.988 762.659 406.405 767.714 406.735C774.903 407.204 781.422 409.78 786.728 414.707C794.336 421.77 797.135 430.113 797.417 440.337C798.421 476.766 796.827 513.35 797.482 549.796C822.851 543.24 849.64 545.475 872.5 558.866Q873.475 559.445 874.435 560.048Q875.396 560.651 876.341 561.278Q877.286 561.904 878.217 562.553Q879.146 563.201 880.06 563.873Q880.974 564.544 881.872 565.237Q882.769 565.931 883.649 566.646Q884.53 567.36 885.392 568.097Q886.255 568.833 887.099 569.589Q887.944 570.346 888.77 571.123Q889.596 571.901 890.402 572.698Q891.209 573.494 891.996 574.311Q892.783 575.127 893.55 575.962Q894.318 576.797 895.064 577.651Q895.811 578.505 896.536 579.376Q897.262 580.248 897.966 581.136Q898.67 582.025 899.353 582.931Q900.035 583.837 900.695 584.759Q901.356 585.681 901.993 586.618Q902.631 587.556 903.245 588.509Q903.86 589.462 904.451 590.43Q905.043 591.397 905.61 592.379Q906.178 593.361 906.722 594.356Q907.265 595.351 907.785 596.359Q908.304 597.367 908.798 598.388Q909.293 599.408 909.763 600.44Q910.232 601.473 910.677 602.516Q911.121 603.559 911.541 604.613Q911.96 605.667 912.353 606.73Q912.746 607.794 913.114 608.867Q913.481 609.939 913.822 611.021Q914.163 612.102 914.478 613.192Q914.793 614.281 915.081 615.378C920.914 638.203 918.074 664.16 905.934 684.557C899.427 695.492 891.545 703.72 882.205 712.189C882.02 716.764 881.139 752.032 882.075 753.35C882.224 753.559 883.056 754.259 883.274 754.446C883.356 755.493 883.55 756.025 882.743 756.855C882.224 757.389 881.27 757.834 880.621 758.216C879.048 760.611 879.296 763.067 879.505 765.824C881.813 767.87 883.331 765.513 883.895 769.747L883.275 770.535C881.998 770.614 880.89 770.67 879.679 771.138C879.135 773.629 879.443 776.232 879.564 778.763L880.068 779.476L880.963 779.545C881.823 779.615 882.58 779.772 883.41 780.018C884.037 781.108 883.955 781.414 883.915 782.692C883 783.765 881.648 783.831 880.335 784.098C878.028 788.063 882.832 795.584 877.004 797.389C876.289 797.61 875.492 797.704 874.753 797.817C864.138 811.758 850.766 820.519 833.182 822.931Q831.754 823.129 830.318 823.256Q828.882 823.384 827.441 823.442Q826.001 823.499 824.559 823.486Q823.118 823.473 821.679 823.39Q820.239 823.307 818.806 823.153Q817.372 823 815.948 822.777Q814.524 822.554 813.112 822.261Q811.7 821.969 810.305 821.608Q808.909 821.247 807.533 820.818Q806.156 820.389 804.802 819.894Q803.448 819.398 802.12 818.837Q800.792 818.276 799.493 817.651Q798.194 817.026 796.927 816.339Q795.66 815.651 794.428 814.902Q793.196 814.153 792.002 813.345Q790.808 812.537 789.655 811.672C784.359 807.65 779.843 803.121 776.578 797.307C774.628 797.007 772.658 796.753 770.72 796.388Q770.443 790.437 770.403 784.479C768.323 782.897 766.726 781.986 766.296 779.269C766.241 778.922 766.204 778.574 766.166 778.225C762.422 783.846 756.857 787.713 750.187 789.005C741.559 790.678 731.888 790.334 723.074 790.736Q699.33 791.971 675.574 792.961L537.667 799.947L293.764 812.989Q256.667 815.068 219.55 816.743C210.291 817.144 200.906 818.211 191.647 818.098C184.216 818.006 178.011 816.273 171.911 811.931C163.521 805.959 153.978 799.563 149.752 789.83C145.556 780.164 141.723 758.591 139.118 747.307C134.171 725.882 128.676 704.531 123.389 683.183Q106.048 614.658 89.4593 545.947L77.7352 498.237C75.8101 490.349 73.3299 482.281 71.9965 474.292Q71.7942 473.09 71.6466 471.881C84.3943 468.822 98.2987 467.981 111.332 466.37C127.277 464.399 143.558 461.73 159.578 460.795C161.428 452.802 166.753 445.468 173.718 441.139C177.086 439.045 180.405 437.947 184.32 437.399C192.007 436.323 200.008 436.306 207.77 435.916L244.987 433.867C279.128 431.861 313.417 428.925 347.597 427.999ZM165.631 455.534C194.58 455.145 223.712 452.235 252.62 450.461L375.408 443.726Q410.587 441.714 445.795 440.316L626.924 431.282Q680.766 428.169 734.653 425.976C745.843 425.524 763.034 423.175 773.535 425.131C783.221 426.935 787.853 433.099 793.081 440.666C793.161 432.133 791.184 424.686 784.919 418.525C779.261 412.961 772.183 410.729 764.386 410.924C749.881 411.286 735.343 412.387 720.85 413.124L658.002 416.081L423.594 428.293Q339.371 432.05 255.24 437.489L209.687 440.145C201.568 440.581 193.122 440.475 185.077 441.616C179.087 442.466 174.29 445.02 170.178 449.447C168.424 451.335 166.994 453.352 165.631 455.534ZM162.462 801.555C157.729 793.037 159.266 783.967 158.439 774.644C153.854 754.112 149.916 733.44 145.13 712.936Q126.484 635.202 106.677 557.755C100.656 533.342 95.9937 508.583 89.5526 484.275C112.801 482.185 136.018 479.153 159.159 476.11C159.191 472.024 159.286 467.928 159.154 463.843Q132.767 466.724 106.412 469.893C96.0846 471.122 85.2262 471.892 75.0985 474.174C80.6471 500.452 87.7544 526.359 94.1702 552.43Q109.975 619.486 126.996 686.244Q134.904 717.821 142.381 749.504C145.104 761.156 147.728 776.518 151.741 787.519C153.809 793.186 158.126 797.556 162.462 801.555ZM781.002 797.498Q781.824 798.566 782.698 799.593Q783.572 800.619 784.495 801.601Q785.418 802.583 786.389 803.518Q787.359 804.454 788.375 805.341Q789.39 806.227 790.448 807.063Q791.505 807.898 792.603 808.681Q793.7 809.463 794.835 810.191Q795.97 810.919 797.139 811.589Q798.308 812.26 799.509 812.873Q800.71 813.485 801.939 814.038Q803.169 814.591 804.424 815.082Q805.679 815.574 806.957 816.003Q808.234 816.432 809.532 816.798Q810.829 817.163 812.143 817.465Q813.457 817.766 814.784 818.003Q816.111 818.239 817.448 818.41C832.53 820.315 847.307 817.178 859.601 808.078C863.535 804.862 866.929 801.595 870.002 797.539Q825.502 797.755 781.002 797.498ZM609.869 280.174C605.544 280.748 601.934 281.714 597.986 283.599C610.813 296.688 621.411 309.315 628.148 326.644C629.628 330.453 631.081 334.118 631.825 338.144C631.986 339.012 632.266 339.532 632.796 340.229C633.976 340.287 633.862 340.204 634.8 339.644C641.714 333.604 645.91 326.214 646.593 316.944Q646.659 316.086 646.682 315.227Q646.705 314.367 646.685 313.507Q646.665 312.647 646.603 311.79Q646.541 310.932 646.437 310.078Q646.333 309.225 646.186 308.377Q646.04 307.53 645.851 306.691Q645.663 305.851 645.434 305.023Q645.204 304.194 644.934 303.377Q644.664 302.561 644.354 301.759Q644.044 300.957 643.694 300.171Q643.345 299.385 642.957 298.617Q642.569 297.85 642.143 297.103Q641.718 296.355 641.256 295.63Q640.794 294.904 640.297 294.202Q639.8 293.501 639.268 292.824Q638.737 292.148 638.173 291.499C632.528 284.995 623.772 280.565 615.158 280.04C613.372 279.931 611.645 279.97 609.869 280.174ZM593.749 286.328C585.585 293.638 580.516 301.954 579.985 313.131C579.554 322.197 582.529 331.299 588.753 337.982C595.214 344.918 603.404 347.938 612.749 348.134Q614.209 348.171 615.669 348.13C620.386 347.257 624.517 345.952 628.841 343.874C624.422 324.256 614.783 306.894 600.799 292.47C599.296 290.919 596.441 287.275 594.553 286.542C594.295 286.441 594.017 286.399 593.749 286.328Z"/>
		<path fill="#FEFEFE" d="M766.166 778.225C766.981 776.532 768.245 772.137 769.605 771.138L770.125 771.366C770.355 773.288 770.999 775.79 770.187 777.595C768.703 778.52 767.887 778.269 766.166 778.225Z"/>
		<path fill="#FEFEFE" d="M165.631 455.534C194.58 455.145 223.712 452.235 252.62 450.461L375.408 443.726Q410.587 441.714 445.795 440.316L626.924 431.282Q680.766 428.169 734.653 425.976C745.843 425.524 763.034 423.175 773.535 425.131C783.221 426.935 787.853 433.099 793.081 440.666L793.353 518.049C793.352 527.585 793.676 537.234 793.388 546.759L793.4 551.07C779.586 557.053 767.664 564.259 757.167 575.208C740.893 592.182 731.207 616.326 731.735 639.899C732.409 669.992 745.343 690.72 766.46 711.029C766.467 719.607 766.728 728.292 766.342 736.856C766.11 741.985 765.328 747.078 765.182 752.213C765.016 758.077 765.978 764.962 764.668 770.661C763.909 773.959 762.019 777.116 759.652 779.509C756.162 783.036 751.812 784.88 746.922 785.392C738.979 786.225 730.814 786.252 722.834 786.589L676.51 788.597L519.719 796.806L310.958 807.904L223.441 812.374C213.194 812.836 202.852 814.021 192.602 814.044C184.154 814.063 176.819 811.533 170.755 805.45C167.167 801.852 164.102 797.115 163.435 792.009C162.432 784.319 163.328 775.792 163.347 767.993L163.341 717.408L163.512 518.517C163.714 506.659 162.195 463.532 165.631 455.534Z"/>
		<path fill="#7478F6" d="M165.631 455.534C194.58 455.145 223.712 452.235 252.62 450.461L375.408 443.726Q410.587 441.714 445.795 440.316L626.924 431.282Q680.766 428.169 734.653 425.976C745.843 425.524 763.034 423.175 773.535 425.131C783.221 426.935 787.853 433.099 793.081 440.666L793.353 518.049C793.352 527.585 793.676 537.234 793.388 546.759C792.393 540.155 792.966 532.712 792.972 526.016L793.037 487.591C767.483 487.103 741.819 488.866 716.296 490.029Q644.786 493.32 573.339 497.794L354.781 508.533L231.772 514.815C209.019 516.021 186.288 517.761 163.512 518.517C163.714 506.659 162.195 463.532 165.631 455.534Z"/>
		<path fill="#FEFEFE" d="M202.537 467.845Q202.966 467.766 203.398 467.708Q203.83 467.65 204.264 467.614Q204.698 467.578 205.134 467.562Q205.569 467.547 206.005 467.554Q206.441 467.56 206.876 467.588Q207.311 467.616 207.744 467.665Q208.177 467.715 208.607 467.785Q209.037 467.856 209.463 467.947Q209.889 468.039 210.31 468.151Q210.732 468.264 211.147 468.397Q211.562 468.53 211.97 468.683Q212.378 468.837 212.777 469.01Q213.177 469.183 213.568 469.376Q213.959 469.569 214.34 469.78Q214.721 469.992 215.091 470.222Q215.461 470.452 215.82 470.701Q216.178 470.949 216.524 471.214Q216.869 471.48 217.201 471.762Q217.533 472.044 217.851 472.342Q218.169 472.641 218.472 472.954Q218.775 473.267 219.062 473.596Q219.349 473.924 219.619 474.265Q219.89 474.607 220.143 474.962Q220.396 475.316 220.632 475.683Q220.868 476.05 221.085 476.427Q221.302 476.805 221.5 477.193Q221.699 477.581 221.878 477.979Q222.057 478.376 222.216 478.782Q222.375 479.188 222.514 479.601Q222.653 480.014 222.772 480.433Q222.891 480.853 222.988 481.277Q223.086 481.702 223.163 482.131Q223.24 482.56 223.295 482.992Q223.351 483.425 223.385 483.859Q223.419 484.293 223.432 484.729Q223.445 485.165 223.436 485.601Q223.428 486.036 223.397 486.471Q223.367 486.906 223.316 487.339Q223.264 487.771 223.192 488.201Q223.119 488.631 223.025 489.056Q222.931 489.482 222.817 489.903Q222.702 490.323 222.567 490.737Q222.432 491.152 222.276 491.559Q222.121 491.966 221.946 492.365Q221.77 492.764 221.576 493.154Q221.381 493.544 221.167 493.924Q220.954 494.304 220.721 494.672Q220.489 495.041 220.239 495.398Q219.989 495.755 219.722 496.1Q219.455 496.444 219.171 496.775Q218.887 497.105 218.587 497.422Q218.288 497.738 217.973 498.039Q217.658 498.34 217.328 498.626Q216.999 498.911 216.655 499.18Q216.312 499.448 215.956 499.7Q215.601 499.951 215.233 500.185Q214.865 500.419 214.486 500.634Q214.107 500.849 213.718 501.046Q213.329 501.242 212.931 501.419Q212.532 501.596 212.126 501.753Q211.719 501.91 211.305 502.047Q210.892 502.184 210.472 502.301Q210.052 502.417 209.627 502.513Q209.201 502.608 208.772 502.683Q208.345 502.757 207.916 502.81Q207.486 502.863 207.054 502.895Q206.622 502.927 206.19 502.938Q205.757 502.949 205.324 502.939Q204.891 502.929 204.459 502.897Q204.027 502.866 203.598 502.813Q203.168 502.761 202.741 502.687Q202.314 502.614 201.892 502.519Q201.469 502.425 201.052 502.31Q200.634 502.195 200.223 502.06Q199.812 501.925 199.407 501.77Q199.003 501.615 198.607 501.44Q198.211 501.266 197.824 501.072Q197.436 500.878 197.059 500.665Q196.682 500.453 196.315 500.222Q195.949 499.991 195.594 499.743Q195.24 499.495 194.898 499.229Q194.556 498.964 194.227 498.682Q193.898 498.4 193.584 498.103Q193.269 497.805 192.97 497.493Q192.67 497.18 192.386 496.853Q192.102 496.526 191.834 496.186Q191.567 495.846 191.316 495.492Q191.066 495.139 190.832 494.775Q190.599 494.41 190.384 494.034Q190.169 493.658 189.973 493.272Q189.777 492.886 189.6 492.491Q189.422 492.096 189.265 491.693Q189.107 491.29 188.969 490.879Q188.831 490.469 188.714 490.052Q188.596 489.635 188.499 489.213Q188.402 488.791 188.326 488.365Q188.25 487.939 188.194 487.509Q188.139 487.08 188.105 486.648Q188.071 486.217 188.057 485.784Q188.044 485.351 188.052 484.918Q188.06 484.485 188.09 484.053Q188.119 483.621 188.169 483.191Q188.219 482.761 188.291 482.334Q188.362 481.907 188.454 481.484Q188.546 481.061 188.659 480.643Q188.771 480.225 188.904 479.813Q189.037 479.401 189.19 478.996Q189.343 478.591 189.516 478.194Q189.688 477.797 189.88 477.409Q190.072 477.02 190.283 476.642Q190.493 476.264 190.722 475.896Q190.951 475.529 191.197 475.173Q191.444 474.817 191.707 474.473Q191.971 474.13 192.251 473.8Q192.531 473.469 192.827 473.153Q193.123 472.837 193.434 472.536Q193.745 472.235 194.07 471.949Q194.396 471.664 194.735 471.394Q195.074 471.125 195.425 470.872Q195.777 470.62 196.141 470.385Q196.504 470.15 196.879 469.933Q197.254 469.716 197.639 469.518Q198.024 469.319 198.418 469.14Q198.812 468.961 199.214 468.801Q199.617 468.641 200.026 468.501Q200.436 468.361 200.852 468.242Q201.268 468.122 201.69 468.023Q202.111 467.923 202.537 467.845Z"/>
		<path fill="#FEFEFE" d="M250.571 464.803Q250.999 464.738 251.429 464.695Q251.86 464.651 252.292 464.629Q252.724 464.606 253.157 464.605Q253.59 464.604 254.022 464.624Q254.454 464.644 254.885 464.685Q255.316 464.726 255.744 464.788Q256.172 464.85 256.597 464.933Q257.021 465.016 257.442 465.12Q257.862 465.223 258.276 465.348Q258.691 465.472 259.099 465.616Q259.507 465.76 259.907 465.924Q260.307 466.088 260.699 466.272Q261.091 466.455 261.474 466.658Q261.856 466.86 262.228 467.081Q262.6 467.302 262.961 467.541Q263.322 467.78 263.671 468.036Q264.019 468.292 264.355 468.565Q264.691 468.838 265.013 469.127Q265.335 469.416 265.642 469.721Q265.95 470.025 266.242 470.345Q266.534 470.664 266.81 470.997Q267.086 471.33 267.346 471.676Q267.605 472.023 267.848 472.381Q268.09 472.74 268.314 473.11Q268.539 473.48 268.745 473.86Q268.951 474.241 269.138 474.631Q269.325 475.021 269.493 475.42Q269.661 475.819 269.809 476.225Q269.957 476.632 270.085 477.045Q270.213 477.458 270.321 477.877Q270.429 478.297 270.516 478.721Q270.603 479.144 270.669 479.572Q270.735 480 270.78 480.43Q270.826 480.86 270.85 481.292Q270.874 481.725 270.876 482.157Q270.879 482.59 270.861 483.022Q270.843 483.455 270.803 483.886Q270.764 484.317 270.703 484.745Q270.643 485.173 270.561 485.598Q270.48 486.023 270.378 486.444Q270.276 486.864 270.153 487.279Q270.03 487.694 269.888 488.103Q269.745 488.512 269.582 488.913Q269.42 489.314 269.238 489.706Q269.056 490.099 268.855 490.482Q268.654 490.865 268.434 491.238Q268.215 491.611 267.977 491.973Q267.739 492.334 267.484 492.684Q267.23 493.034 266.958 493.37Q266.686 493.707 266.398 494.03Q266.11 494.353 265.807 494.662Q265.503 494.97 265.185 495.264Q264.867 495.557 264.535 495.835Q264.203 496.112 263.858 496.373Q263.512 496.634 263.155 496.877Q262.797 497.121 262.428 497.347Q262.059 497.572 261.679 497.78Q261.299 497.987 260.91 498.176Q260.52 498.365 260.122 498.534Q259.724 498.703 259.318 498.853Q258.912 499.003 258.499 499.132Q258.086 499.262 257.667 499.371Q257.249 499.48 256.825 499.569Q256.401 499.657 255.974 499.725Q255.545 499.793 255.112 499.84Q254.68 499.887 254.246 499.912Q253.812 499.938 253.377 499.942Q252.943 499.946 252.508 499.929Q252.074 499.912 251.641 499.873Q251.208 499.835 250.777 499.775Q250.346 499.715 249.919 499.634Q249.492 499.553 249.07 499.451Q248.647 499.35 248.23 499.227Q247.813 499.105 247.402 498.962Q246.991 498.819 246.588 498.656Q246.185 498.493 245.791 498.311Q245.396 498.128 245.011 497.926Q244.626 497.725 244.251 497.504Q243.876 497.284 243.513 497.045Q243.149 496.807 242.798 496.551Q242.447 496.294 242.108 496.021Q241.77 495.748 241.446 495.459Q241.121 495.169 240.811 494.864Q240.502 494.559 240.207 494.239Q239.913 493.919 239.635 493.585Q239.356 493.251 239.095 492.904Q238.833 492.557 238.589 492.197Q238.345 491.838 238.119 491.466Q237.892 491.095 237.685 490.713Q237.477 490.331 237.288 489.939Q237.1 489.548 236.931 489.147Q236.762 488.747 236.612 488.338Q236.463 487.93 236.334 487.515Q236.205 487.099 236.097 486.678Q235.989 486.257 235.901 485.832Q235.813 485.406 235.747 484.976Q235.68 484.546 235.635 484.114Q235.59 483.682 235.566 483.247Q235.542 482.813 235.539 482.379Q235.537 481.944 235.556 481.509Q235.575 481.075 235.615 480.642Q235.655 480.209 235.716 479.779Q235.778 479.348 235.86 478.922Q235.943 478.495 236.046 478.072Q236.149 477.65 236.273 477.233Q236.397 476.817 236.542 476.407Q236.686 475.996 236.851 475.594Q237.015 475.191 237.199 474.798Q237.383 474.404 237.586 474.019Q237.789 473.635 238.011 473.261Q238.233 472.887 238.473 472.524Q238.713 472.162 238.97 471.811Q239.227 471.461 239.502 471.124Q239.776 470.786 240.067 470.463Q240.357 470.14 240.664 469.831Q240.97 469.522 241.291 469.229Q241.612 468.936 241.947 468.659Q242.282 468.382 242.63 468.121Q242.978 467.861 243.339 467.618Q243.7 467.375 244.072 467.151Q244.444 466.926 244.827 466.72Q245.209 466.513 245.602 466.326Q245.994 466.139 246.395 465.971Q246.797 465.804 247.206 465.656Q247.614 465.508 248.03 465.381Q248.446 465.253 248.867 465.147Q249.289 465.04 249.715 464.954Q250.141 464.868 250.571 464.803Z"/>
		<path fill="#FEFEFE" d="M297.671 462.398Q298.085 462.346 298.501 462.314Q298.917 462.282 299.335 462.27Q299.752 462.258 300.169 462.266Q300.586 462.275 301.003 462.303Q301.419 462.332 301.834 462.381Q302.248 462.429 302.66 462.498Q303.072 462.567 303.48 462.655Q303.887 462.744 304.291 462.852Q304.694 462.96 305.091 463.088Q305.488 463.215 305.879 463.362Q306.27 463.509 306.653 463.674Q307.036 463.84 307.411 464.024Q307.786 464.207 308.151 464.409Q308.517 464.611 308.872 464.83Q309.227 465.049 309.571 465.285Q309.915 465.521 310.248 465.774Q310.58 466.026 310.9 466.295Q311.22 466.563 311.526 466.846Q311.832 467.13 312.125 467.428Q312.417 467.726 312.694 468.038Q312.972 468.349 313.234 468.674Q313.496 468.999 313.742 469.336Q313.988 469.673 314.218 470.022Q314.447 470.371 314.659 470.73Q314.872 471.09 315.066 471.459Q315.261 471.828 315.437 472.206Q315.614 472.584 315.772 472.971Q315.93 473.357 316.069 473.751Q316.208 474.144 316.328 474.544Q316.448 474.944 316.548 475.349Q316.649 475.754 316.73 476.164Q316.81 476.573 316.871 476.986Q316.932 477.399 316.972 477.814Q317.013 478.23 317.034 478.647Q317.054 479.063 317.055 479.481Q317.055 479.898 317.035 480.315Q317.015 480.732 316.975 481.148Q316.935 481.563 316.875 481.976Q316.815 482.389 316.735 482.799Q316.655 483.208 316.555 483.614Q316.455 484.019 316.336 484.419Q316.217 484.819 316.078 485.213Q315.94 485.606 315.782 485.993Q315.625 486.379 315.449 486.758Q315.273 487.136 315.079 487.506Q314.885 487.875 314.673 488.235Q314.461 488.595 314.233 488.944Q314.004 489.293 313.758 489.63Q313.513 489.968 313.251 490.293Q312.99 490.618 312.713 490.931Q312.436 491.243 312.144 491.541Q311.852 491.84 311.546 492.124Q311.24 492.408 310.921 492.676Q310.602 492.945 310.27 493.198Q309.938 493.451 309.594 493.688Q309.25 493.925 308.895 494.144Q308.54 494.364 308.175 494.566Q307.81 494.769 307.436 494.953Q307.061 495.137 306.678 495.303Q306.295 495.47 305.905 495.617Q305.514 495.764 305.117 495.892Q304.72 496.021 304.317 496.129Q303.914 496.238 303.506 496.327Q303.099 496.417 302.687 496.486Q302.123 496.581 301.555 496.638Q300.986 496.696 300.415 496.715Q299.844 496.735 299.272 496.717Q298.701 496.698 298.132 496.642Q297.563 496.586 296.999 496.492Q296.436 496.399 295.879 496.268Q295.323 496.137 294.776 495.97Q294.23 495.802 293.696 495.599Q293.161 495.396 292.642 495.157Q292.122 494.919 291.62 494.647Q291.117 494.375 290.633 494.07Q290.15 493.765 289.688 493.429Q289.225 493.093 288.787 492.727Q288.348 492.36 287.934 491.966Q287.52 491.572 287.134 491.151Q286.747 490.73 286.389 490.284Q286.031 489.838 285.703 489.37Q285.376 488.902 285.08 488.413Q284.784 487.924 284.521 487.416Q284.259 486.908 284.03 486.384Q283.802 485.861 283.608 485.323Q283.415 484.785 283.258 484.235Q283.1 483.686 282.98 483.127Q282.859 482.568 282.776 482.003Q282.693 481.437 282.647 480.868Q282.602 480.298 282.594 479.726Q282.586 479.155 282.616 478.584Q282.647 478.013 282.715 477.446Q282.782 476.878 282.888 476.317Q282.993 475.755 283.136 475.201Q283.278 474.648 283.457 474.105Q283.636 473.562 283.85 473.032Q284.064 472.502 284.313 471.988Q284.562 471.473 284.845 470.976Q285.128 470.479 285.442 470.002Q285.757 469.525 286.103 469.07Q286.449 468.615 286.824 468.184Q287.199 467.753 287.602 467.347Q288.005 466.942 288.434 466.564Q288.863 466.186 289.316 465.838Q289.769 465.489 290.244 465.171Q290.719 464.853 291.214 464.568Q291.71 464.282 292.223 464.03Q292.735 463.778 293.264 463.56Q293.793 463.343 294.334 463.161Q294.876 462.979 295.429 462.833Q295.982 462.687 296.543 462.578Q297.104 462.469 297.671 462.398Z"/>
		<path d="M577.391 584.077C578.388 584.077 579.395 584.09 580.38 584.269C595.416 587.002 605.651 629.811 609.481 643.363C612.426 653.78 615.257 664.247 618.403 674.605C621.738 685.587 625.424 698.074 631.984 707.548C634.192 710.736 637.184 714.171 641.232 714.783C643.526 715.13 645.644 714.434 647.478 713.057C650.215 711.001 652.083 707.871 653.396 704.76C658.273 693.204 660.102 679.894 662.232 667.584C665.29 649.919 667.799 632.2 670.63 614.505C671.231 610.747 671.716 603.686 674.997 601.316C675.562 601.44 675.611 601.333 675.92 601.911C676.697 603.365 676.723 605.805 676.492 607.387C675.781 612.267 672.644 617.002 671.677 622.07C668.748 637.415 666.606 652.922 664.012 668.328C662.098 679.697 660.207 691.848 656.132 702.664C654.22 707.738 651.203 713.916 645.913 716.098C643.221 717.209 640.302 716.935 637.715 715.678C623.973 709.002 616.206 673.319 612.157 659.424C607.935 644.937 604.222 630.171 599.263 615.921C596.268 607.313 590.475 590.389 581.408 586.457C580.091 585.887 578.676 585.799 577.324 586.341C563.685 591.813 556.37 661.353 553.594 677.114C551.668 688.052 549.717 699.459 545.327 709.714C543.201 714.679 540.042 720.283 534.69 722.238C532.468 723.049 530.215 722.723 528.129 721.679C514.289 714.748 506.19 677.702 502.294 663.236C499.513 652.909 496.855 642.514 493.719 632.288C490.661 622.313 483.125 596.665 473.656 592.105C472.076 591.344 470.355 591.204 468.703 591.822C456.912 596.237 451.275 644.417 449.334 656.695C447.7 667.025 446.087 677.399 444.144 687.673C442.202 697.939 439.808 709.27 435.315 718.757C433.496 722.6 430.628 726.936 426.347 728.262C423.825 729.043 421.206 728.567 418.918 727.328C403.972 719.239 395.098 676.163 390.854 660.343C388.002 649.712 385.075 639.011 381.663 628.547C378.974 620.303 372.849 601.561 364.551 597.715Q364.213 597.56 363.86 597.439Q363.508 597.318 363.146 597.233Q362.783 597.148 362.414 597.099Q362.045 597.05 361.673 597.038Q361.301 597.026 360.93 597.052Q360.558 597.077 360.191 597.139Q359.824 597.201 359.465 597.299Q359.106 597.397 358.758 597.531C352.981 599.689 350.137 607.669 348.36 613.085C344.943 623.5 343.554 634.613 341.765 645.402C339.037 661.855 336.497 678.303 333.164 694.651C331.168 704.442 329.092 714.822 324.763 723.875C322.959 727.648 320.222 731.884 316.011 733.187C313.553 733.948 311.073 733.589 308.879 732.273C295.865 724.473 285.903 681.186 281.816 666.035C277.462 649.438 272.643 628.078 263.961 613.469C261.906 610.011 257.732 603.679 253.531 603.019C251.944 602.769 250.55 603.096 249.225 603.977C244.613 607.044 241.656 613.868 239.856 618.926C235.938 629.939 234.079 641.907 232.021 653.386C228.438 673.369 225.575 693.599 220.933 713.365C216.215 733.456 212.167 743.327 194.293 754.399C197.977 754.638 208.389 754.247 211.01 756.759L210.696 757.589C208.401 758.73 193.935 757.116 190.46 756.974C190.49 752.974 190.271 736.367 191.607 734.247L192.771 734.083C194.389 738.021 193.054 748.099 192.929 752.906C199.012 749.008 205.715 744.392 209.788 738.287C215.78 729.307 218.236 717.189 220.465 706.74C224.174 689.36 226.827 671.668 229.955 654.167C232.304 641.025 234.415 626.694 239.648 614.354C241.599 609.753 244.527 603.768 249.503 601.961C251.741 601.148 254.051 601.202 256.209 602.221C271.013 609.208 281.868 658.831 286.195 674.929C288.949 685.176 291.774 695.514 295.323 705.518C298.095 713.332 302.768 727.447 310.997 731.038C312.697 731.78 314.51 732.083 316.258 731.301C330.435 724.961 339.549 644.819 342.54 629.044C343.781 622.5 345.42 615.567 347.784 609.335C349.756 604.135 352.955 597.562 358.386 595.358C360.546 594.481 362.75 594.544 364.848 595.545C380.308 602.921 392.454 658.882 397.157 676.578C399.278 684.559 401.535 692.486 404.315 700.266C407.081 708.007 412.056 722.263 420.265 725.813C422.313 726.699 424.485 726.659 426.498 725.693C430.468 723.787 432.91 719.29 434.584 715.398C439.758 703.363 441.982 689.297 444.155 676.445C447.104 659.012 449.339 641.397 452.969 624.091C454.266 617.906 455.392 611.002 457.58 605.085C459.607 599.603 462.49 592.37 468.186 589.885C470.012 589.089 471.928 589.018 473.783 589.775C488.853 595.918 502.132 656.23 506.925 673.461C509.506 682.738 512.241 692.027 515.922 700.937C518.398 706.932 522.713 717.44 529.289 719.909C531.203 720.628 533.174 720.437 535.002 719.567C549.897 712.481 554.433 658.301 556.999 642.704C559.464 627.713 561.683 611.152 567.236 596.95C569.304 591.661 571.95 586.464 577.391 584.077Z"/>
		<path d="M730.464 693.856C731.81 694.343 732.168 694.417 733.077 695.496L732.885 696.795C729.304 701.164 701.917 715.967 695.173 719.891C694.893 719.808 694.601 719.758 694.333 719.643C693.122 719.124 692.932 718.858 692.568 717.697C693.446 715.185 725.528 697.036 730.464 693.856Z"/>
		<path d="M684.323 555.155C688.332 556.319 719.439 572.942 723.076 575.793C723.734 577.284 723.444 577.863 723.174 579.44C718.997 578.483 687.141 561.734 683.692 558.772C683.322 557.412 683.848 556.41 684.323 555.155Z"/>
		<path d="M671.717 635.496C679.431 635.636 701.718 634.782 707.843 636.28C708.629 637.578 708.308 638.166 708.121 639.641C703.969 640.203 674.036 640.624 671.9 639.332C671.252 638.111 671.575 636.815 671.717 635.496Z"/>
		<path d="M742.634 498.229C744.187 498.475 744.976 498.417 745.977 499.785C748.783 503.618 759.558 524.452 761.135 529.22C761.431 530.114 761.288 530.845 761.11 531.744C760.189 531.938 759.384 531.964 758.444 531.948C758.035 531.575 757.915 531.498 757.552 530.982C755.878 528.605 754.62 525.312 753.252 522.712C749.776 516.103 745.331 509.095 742.912 502.024C742.474 500.743 742.494 499.557 742.634 498.229Z"/>
		<path fill="#FEFEFE" d="M770.305 709.12C766.157 704.949 761.643 701.062 757.798 696.606Q756.489 695.118 755.249 693.573Q754.008 692.029 752.837 690.43Q751.666 688.832 750.568 687.182Q749.469 685.533 748.446 683.837Q747.422 682.14 746.475 680.4Q745.528 678.66 744.659 676.879Q743.791 675.098 743.002 673.28Q742.214 671.462 741.508 669.611Q740.801 667.76 740.178 665.879Q739.555 663.998 739.016 662.091Q738.477 660.184 738.024 658.255Q737.571 656.327 737.204 654.379Q736.837 652.432 736.558 650.471Q736.278 648.509 736.086 646.537Q735.895 644.565 735.791 642.586Q735.687 640.607 735.672 638.626C735.689 615.967 745.444 592.415 761.54 576.454C778.04 560.091 801.608 549.689 824.943 550.012C848.844 550.343 871.944 559.405 888.679 576.621Q889.45 577.412 890.202 578.222Q890.953 579.031 891.685 579.859Q892.416 580.688 893.127 581.533Q893.837 582.379 894.526 583.243Q895.216 584.106 895.884 584.986Q896.552 585.866 897.197 586.763Q897.843 587.659 898.467 588.571Q899.09 589.483 899.691 590.41Q900.291 591.338 900.869 592.279Q901.446 593.221 902 594.177Q902.554 595.133 903.084 596.102Q903.614 597.071 904.12 598.053Q904.626 599.036 905.108 600.03Q905.589 601.024 906.046 602.03Q906.503 603.036 906.935 604.053Q907.366 605.07 907.773 606.097Q908.179 607.125 908.56 608.162Q908.941 609.199 909.296 610.245Q909.651 611.291 909.98 612.346Q910.309 613.4 910.612 614.463Q910.914 615.525 911.191 616.595Q911.467 617.665 911.717 618.741Q911.967 619.817 912.19 620.899Q912.413 621.981 912.609 623.068Q912.805 624.155 912.975 625.247Q913.144 626.339 913.286 627.434Q913.428 628.53 913.543 629.629Q913.658 630.728 913.746 631.829Q913.834 632.93 913.894 634.033Q913.955 635.136 913.988 636.241Q914.021 637.345 914.027 638.45Q914.033 639.554 914.011 640.659Q913.989 641.737 913.941 642.815Q913.892 643.893 913.817 644.969Q913.742 646.045 913.641 647.119Q913.539 648.193 913.412 649.264Q913.284 650.335 913.13 651.403Q912.975 652.47 912.795 653.534Q912.615 654.597 912.408 655.656Q912.201 656.715 911.969 657.768Q911.736 658.822 911.478 659.869Q911.219 660.916 910.935 661.957Q910.651 662.997 910.341 664.031Q910.031 665.064 909.696 666.089Q909.361 667.115 909.001 668.131Q908.641 669.148 908.255 670.156Q907.87 671.163 907.46 672.161Q907.05 673.159 906.616 674.146Q906.182 675.134 905.723 676.11Q905.265 677.087 904.782 678.051Q904.3 679.016 903.794 679.969Q903.287 680.921 902.758 681.861Q902.229 682.801 901.676 683.728Q901.124 684.654 900.549 685.567Q899.974 686.48 899.377 687.378Q898.779 688.276 898.16 689.159Q897.541 690.042 896.9 690.91Q896.259 691.778 895.597 692.63Q894.935 693.481 894.252 694.316Q893.569 695.151 892.866 695.97Q892.163 696.788 891.44 697.588Q890.717 698.389 889.974 699.171Q889.232 699.953 888.47 700.717Q887.708 701.481 886.928 702.226C884.088 704.901 880.968 707.218 878.095 709.831Q877.66 731.672 877.663 753.517L826.342 753.327L826.413 701.151C826.434 691.322 826.713 681.385 826.322 671.567L826.072 670.234C824.947 669.225 824.134 669.509 822.656 669.478L822.537 753.314C805.35 753.351 787.615 752.031 770.507 753.311C770.475 738.616 770.843 723.799 770.305 709.12Z"/>
		<path fill="#7478F6" d="M822.656 669.478C815.868 667.187 811.194 666.173 807.594 659.231C805.403 655.005 805.062 649.863 806.521 645.346C808.132 640.36 811.886 636.405 816.607 634.217C820.67 632.334 825.26 631.919 829.499 633.466C834.486 635.286 838.927 639.282 841.078 644.152C843.043 648.6 842.944 653.462 841.085 657.926C838.418 664.331 834.597 666.381 828.575 668.854C828.334 668.953 827.066 669.345 826.896 669.522C826.515 669.919 826.384 671.105 826.322 671.567L826.072 670.234C824.947 669.225 824.134 669.509 822.656 669.478Z"/>
		<path fill="#7478F6" d="M89.5526 484.275C112.801 482.185 136.018 479.153 159.159 476.11C158.379 501.571 159.042 527.227 159.045 552.709L158.882 693.548L158.771 747.047C158.745 756.122 159.228 765.61 158.439 774.644C153.854 754.112 149.916 733.44 145.13 712.936Q126.484 635.202 106.677 557.755C100.656 533.342 95.9937 508.583 89.5526 484.275Z"/>
		<path fill="#FEFEFE" d="M777.172 770.757Q826.523 770.46 875.873 770.771C875.92 773.187 876.532 777.894 875.06 779.886C874.629 780.469 873.323 780.295 872.625 780.331L773.648 780.51C773.611 777.631 772.961 774.611 773.866 771.833C775.014 770.645 775.567 770.881 777.172 770.757Z"/>
		<path fill="#FEFEFE" d="M774.386 757.204C792.299 756.567 810.383 757.016 828.317 757.012C844.104 757.008 860.117 756.469 875.874 757.352C875.936 760.069 876.018 762.767 875.812 765.479C875.749 766.314 875.887 765.893 875.026 766.632C841.219 766.888 807.303 767.12 773.501 766.74C773.399 764.098 772.649 759.261 774.386 757.204Z"/>
		<path fill="#FEFEFE" d="M777.69 784.759C810.472 784.228 843.297 784.399 876.085 784.407C876.097 787.21 876.778 790.711 875.71 793.278C874.446 794.295 873.595 794.046 872.003 794.096L806.453 794.126C795.783 794.099 784.448 794.865 773.894 793.512Q773.773 792.005 773.671 790.497C773.527 788.632 773.302 787.381 774.158 785.668C775.467 784.712 776.102 784.852 777.69 784.759Z"/>
		<path d="M168.139 326.976C163.478 326.15 144.896 323.745 142.398 320.568C142.443 320.401 142.467 320.226 142.533 320.066C143.06 318.775 144.288 317.803 145.36 316.971C152.392 311.511 159.827 306.496 166.944 301.126L221.888 259.667C230.213 253.502 244.005 241.517 252.436 237.166C255.472 242.397 257.367 248.617 259.539 254.277C261.66 252.694 262.95 251.136 264.379 248.932C278.232 288.291 291.372 328.033 306.249 367.008L204.879 346.281C189.601 343.087 173.906 340.497 158.813 336.612C161.827 333.304 165.373 330.496 168.139 326.976ZM170.66 323.224C199.635 301.659 227.067 277.945 255.619 255.796C254.035 251.585 252.66 247.177 250.713 243.125C242.702 248.707 235.171 254.925 227.387 260.812L194.465 285.39C179.752 296.515 164.185 307.188 150.103 319.089C156.795 321.273 163.924 321.336 170.66 323.224Z"/>
		<path fill="#7478F6" d="M259.539 254.277C261.66 252.694 262.95 251.136 264.379 248.932C278.232 288.291 291.372 328.033 306.249 367.008L204.879 346.281C189.601 343.087 173.906 340.497 158.813 336.612C161.827 333.304 165.373 330.496 168.139 326.976C178.534 329.575 189.327 331.327 199.832 333.517Q233.283 340.75 266.881 347.261C271.651 348.214 288.752 352.511 291.858 352.37C292.857 352.324 293.072 352.075 293.734 351.422C293.611 345.381 289.104 337.656 287.083 331.856L259.539 254.277Z"/>
		<path fill="#7478F6" d="M255.619 255.796C257.985 263.739 261.031 271.516 263.856 279.305Q272.392 302.457 280.551 325.745C283.065 332.896 285.895 340.083 288.05 347.344C266.396 342.016 244.25 338.228 222.402 333.702C205.736 330.25 187.259 325.457 170.66 323.224C199.635 301.659 227.067 277.945 255.619 255.796Z"/>
		<path d="M928.316 695.169C932.413 696.397 964.835 716.157 966.146 718.536C966.502 719.182 965.892 720.649 965.714 721.369C961.668 720.383 931.305 701.993 927.588 698.753C927.362 697.219 927.764 696.595 928.316 695.169Z"/>
		<path d="M963.096 551.84C963.211 551.884 963.336 551.908 963.441 551.973C964.459 552.608 964.477 552.912 964.748 554.013C963.045 557.806 932.866 574.631 927.292 578.122C926.729 577.504 926.278 576.857 925.796 576.174L926.008 574.953C929.022 571.214 958.072 554.164 963.096 551.84Z"/>
		<path d="M900.53 491.732C901.458 492.202 902.049 492.622 902.772 493.37C902.72 496.044 886.822 527.105 884.539 529.401C883.301 529.098 883.016 529.049 882.101 528.184C881.637 525.053 897.624 496.196 900.53 491.732Z"/>
		<path d="M817.712 477.178C819.306 477.411 819.975 477.307 821.187 478.412C822.424 483.447 822.056 510.366 821.169 515.915C819.891 515.869 819.018 515.96 817.936 515.196C816.537 511.695 817.35 482.744 817.712 477.178Z"/>
	</g>
	<g>
		<path fill="#FEFEFE" d="M0 0L1024 0L1024 1024L0 1024L0 0ZM159.578 460.795C143.558 461.73 127.277 464.399 111.332 466.37C98.2987 467.981 84.3943 468.822 71.6466 471.881Q71.7942 473.09 71.9965 474.292C73.3299 482.281 75.8101 490.349 77.7352 498.237L89.4593 545.947Q106.048 614.658 123.389 683.183C128.676 704.531 134.171 725.882 139.118 747.307C141.723 758.591 145.556 780.164 149.752 789.83C153.978 799.563 163.521 805.959 171.911 811.931C178.011 816.273 184.216 818.006 191.647 818.098C200.906 818.211 210.291 817.144 219.55 816.743Q256.667 815.068 293.764 812.989L537.667 799.947L675.574 792.961Q699.33 791.971 723.074 790.736C731.888 790.334 741.559 790.678 750.187 789.005C756.857 787.713 762.422 783.846 766.166 778.225C766.204 778.574 766.241 778.922 766.296 779.269C766.726 781.986 768.323 782.897 770.403 784.479Q770.443 790.437 770.72 796.388C772.658 796.753 774.628 797.007 776.578 797.307C779.843 803.121 784.359 807.65 789.655 811.672Q790.808 812.537 792.002 813.345Q793.196 814.153 794.428 814.902Q795.66 815.651 796.927 816.339Q798.194 817.026 799.493 817.651Q800.792 818.276 802.12 818.837Q803.448 819.398 804.802 819.894Q806.156 820.389 807.532 820.818Q808.909 821.247 810.305 821.608Q811.7 821.969 813.112 822.261Q814.524 822.554 815.948 822.777Q817.372 823 818.806 823.153Q820.239 823.307 821.679 823.39Q823.118 823.473 824.559 823.486Q826.001 823.499 827.441 823.442Q828.882 823.384 830.318 823.256Q831.754 823.129 833.182 822.931C850.766 820.519 864.138 811.758 874.753 797.817C875.492 797.704 876.289 797.61 877.004 797.389C882.832 795.584 878.028 788.063 880.335 784.098C881.648 783.831 883 783.765 883.915 782.692C883.955 781.414 884.037 781.108 883.41 780.018C882.58 779.772 881.823 779.615 880.963 779.545L880.068 779.476L879.564 778.763C879.443 776.232 879.135 773.629 879.679 771.138C880.89 770.67 881.998 770.614 883.275 770.535L883.895 769.747C883.331 765.513 881.813 767.87 879.505 765.824C879.296 763.067 879.048 760.611 880.621 758.216C881.27 757.834 882.224 757.389 882.743 756.855C883.55 756.025 883.356 755.493 883.274 754.446C883.056 754.259 882.224 753.559 882.075 753.35C881.139 752.032 882.02 716.764 882.205 712.189C891.545 703.72 899.427 695.492 905.934 684.557C918.074 664.16 920.914 638.203 915.081 615.378Q914.793 614.281 914.478 613.192Q914.163 612.102 913.822 611.021Q913.481 609.939 913.114 608.867Q912.746 607.794 912.353 606.73Q911.96 605.667 911.541 604.613Q911.122 603.559 910.677 602.516Q910.233 601.473 909.763 600.44Q909.293 599.408 908.799 598.388Q908.304 597.367 907.785 596.359Q907.265 595.351 906.722 594.356Q906.178 593.361 905.61 592.379Q905.043 591.397 904.451 590.43Q903.86 589.462 903.245 588.509Q902.631 587.556 901.993 586.618Q901.356 585.681 900.695 584.759Q900.035 583.837 899.353 582.931Q898.67 582.025 897.966 581.136Q897.262 580.248 896.536 579.376Q895.811 578.505 895.064 577.651Q894.318 576.797 893.551 575.962Q892.783 575.127 891.996 574.311Q891.209 573.494 890.402 572.698Q889.596 571.901 888.77 571.123Q887.944 570.346 887.099 569.589Q886.255 568.833 885.392 568.097Q884.53 567.36 883.649 566.646Q882.769 565.931 881.872 565.237Q880.974 564.544 880.06 563.873Q879.146 563.201 878.216 562.553Q877.286 561.904 876.341 561.278Q875.396 560.651 874.435 560.048Q873.475 559.445 872.5 558.866C849.64 545.475 822.851 543.24 797.482 549.796C796.827 513.35 798.421 476.766 797.417 440.337C797.135 430.113 794.336 421.77 786.728 414.707C781.422 409.78 774.903 407.204 767.714 406.735C762.659 406.405 757.386 406.988 752.33 407.257L727.142 408.493Q682.803 410.411 638.5 413.039Q495.201 421.406 351.796 427.674Q351.603 425.943 351.45 424.207Q351.297 422.472 351.183 420.733Q351.07 418.995 350.996 417.254Q350.922 415.514 350.889 413.772Q350.855 412.03 350.861 410.288Q350.867 408.546 350.913 406.804Q350.959 405.062 351.045 403.322Q351.131 401.582 351.257 399.845Q351.383 398.107 351.548 396.373Q351.714 394.639 351.919 392.909Q352.124 391.179 352.369 389.454Q352.614 387.729 352.898 386.01Q353.182 384.291 353.506 382.579Q353.829 380.867 354.192 379.163Q354.555 377.459 354.956 375.764Q355.358 374.069 355.798 372.383Q356.238 370.698 356.717 369.023Q357.196 367.347 357.713 365.684Q358.23 364.02 358.785 362.369Q359.34 360.717 359.932 359.079Q360.525 357.441 361.155 355.817Q361.785 354.192 362.452 352.583Q363.119 350.973 363.823 349.38Q364.527 347.786 365.267 346.209Q366.007 344.632 366.783 343.072Q367.559 341.512 368.37 339.97Q369.182 338.429 370.028 336.906Q370.875 335.384 371.756 333.881Q372.637 332.378 373.553 330.896Q374.468 329.413 375.417 327.952Q376.366 326.491 377.349 325.053Q378.331 323.614 379.346 322.198C402.797 288.869 439.273 264.122 479.704 257.215C520.992 250.161 557.216 259.637 591.047 283.49C586.167 287.703 582.044 292.121 579.267 298.012Q578.854 298.885 578.485 299.777Q578.116 300.669 577.792 301.579Q577.468 302.489 577.189 303.414Q576.911 304.338 576.679 305.276Q576.448 306.213 576.263 307.161Q576.078 308.109 575.941 309.065Q575.804 310.021 575.715 310.982Q575.626 311.944 575.585 312.909Q575.544 313.873 575.551 314.839Q575.558 315.805 575.614 316.769Q575.669 317.733 575.773 318.693Q575.876 319.653 576.027 320.607Q576.179 321.561 576.377 322.505Q576.576 323.451 576.822 324.384Q577.068 325.318 577.359 326.239Q577.651 327.159 577.989 328.064C581.399 337.325 588.158 345.01 597.215 349.066C607.845 353.826 618.8 352.679 629.392 348.543C630.12 353.702 629.192 360.245 630.96 365.036C632.141 365.555 632.071 365.588 633.281 365.166C636.067 361.475 633.881 350.592 633.432 346.025Q634.17 345.541 634.886 345.025Q635.602 344.509 636.293 343.961Q636.985 343.413 637.652 342.834Q638.318 342.256 638.958 341.648Q639.598 341.04 640.21 340.404Q640.821 339.768 641.404 339.105Q641.987 338.442 642.539 337.754Q643.092 337.066 643.612 336.353Q644.133 335.641 644.622 334.906Q645.11 334.171 645.565 333.414Q646.02 332.658 646.44 331.882Q646.861 331.106 647.246 330.312Q647.631 329.518 647.98 328.708Q648.329 327.897 648.642 327.072Q648.954 326.246 649.229 325.408Q649.504 324.569 649.741 323.719C652.502 313.502 650.458 303.441 645.315 294.393C640.538 286.559 633.505 280.412 624.721 277.502C614.356 274.068 603.735 275.846 594.16 280.685C564.464 258.491 529.059 248.213 492.081 251.475Q490.143 251.66 488.209 251.894Q486.276 252.127 484.349 252.407Q482.422 252.688 480.502 253.016Q478.583 253.344 476.672 253.719Q474.761 254.095 472.86 254.517Q470.959 254.939 469.069 255.408Q467.179 255.877 465.301 256.392Q463.423 256.907 461.559 257.468Q459.694 258.03 457.844 258.637Q455.993 259.244 454.159 259.896Q452.324 260.548 450.506 261.246Q448.687 261.943 446.887 262.685Q445.087 263.427 443.305 264.213Q441.523 264.999 439.762 265.829Q438 266.658 436.259 267.531Q434.518 268.404 432.799 269.319Q431.081 270.235 429.385 271.192Q427.689 272.149 426.018 273.148Q424.346 274.147 422.7 275.187Q421.053 276.227 419.433 277.307Q417.812 278.386 416.219 279.506Q414.625 280.625 413.06 281.784Q411.495 282.942 409.959 284.139Q408.422 285.336 406.916 286.57Q405.41 287.804 403.934 289.074Q402.458 290.345 401.015 291.652Q399.571 292.959 398.16 294.3Q396.748 295.642 395.371 297.018Q393.993 298.395 392.65 299.804Q391.306 301.214 389.998 302.656Q388.69 304.099 387.417 305.573Q386.145 307.047 384.909 308.552C356.468 342.7 343.714 383.834 347.597 427.999C313.417 428.925 279.128 431.861 244.987 433.867L207.77 435.916C200.008 436.306 192.007 436.323 184.32 437.399C180.405 437.947 177.086 439.045 173.718 441.139C166.753 445.468 161.428 452.802 159.578 460.795ZM306.249 367.008C291.372 328.033 278.232 288.291 264.379 248.932C262.95 251.136 261.66 252.694 259.539 254.277C257.367 248.617 255.472 242.397 252.436 237.166C244.005 241.517 230.213 253.502 221.888 259.667L166.944 301.126C159.827 306.496 152.392 311.511 145.36 316.971C144.288 317.803 143.06 318.775 142.533 320.066C142.467 320.226 142.443 320.401 142.398 320.568C144.896 323.745 163.478 326.15 168.139 326.976C165.373 330.496 161.827 333.304 158.813 336.612C173.906 340.497 189.601 343.087 204.879 346.281L306.249 367.008ZM928.316 695.169C927.764 696.595 927.362 697.219 927.588 698.753C931.305 701.993 961.668 720.383 965.714 721.369C965.892 720.649 966.502 719.182 966.146 718.536C964.835 716.157 932.413 696.397 928.316 695.169ZM927.292 578.122C932.866 574.631 963.045 557.806 964.748 554.013C964.477 552.912 964.459 552.608 963.441 551.973C963.336 551.908 963.211 551.884 963.096 551.84C958.072 554.164 929.022 571.214 926.008 574.953L925.796 576.174C926.278 576.857 926.729 577.504 927.292 578.122ZM817.712 477.178C817.35 482.744 816.537 511.695 817.936 515.196C819.018 515.96 819.891 515.869 821.169 515.915C822.056 510.366 822.424 483.447 821.187 478.412C819.975 477.307 819.306 477.411 817.712 477.178ZM884.539 529.401C886.822 527.105 902.72 496.044 902.772 493.37C902.049 492.622 901.458 492.202 900.53 491.732C897.624 496.196 881.637 525.053 882.101 528.184C883.016 529.049 883.301 529.098 884.539 529.401Z"/>
		<path fill="#FEFEFE" d="M165.631 455.534C166.994 453.352 168.424 451.335 170.178 449.447C174.29 445.02 179.087 442.466 185.077 441.616C193.122 440.475 201.568 440.581 209.687 440.145L255.24 437.489Q339.371 432.05 423.594 428.293L658.002 416.081L720.85 413.124C735.343 412.387 749.881 411.286 764.386 410.924C772.183 410.729 779.261 412.961 784.919 418.525C791.184 424.686 793.161 432.133 793.081 440.666C787.853 433.099 783.221 426.935 773.535 425.131C763.034 423.175 745.843 425.524 734.653 425.976Q680.766 428.169 626.924 431.282L445.795 440.316Q410.587 441.714 375.408 443.726L252.62 450.461C223.712 452.235 194.58 455.145 165.631 455.534Z"/>
		<path fill="#FEFEFE" d="M75.0985 474.174C85.2262 471.892 96.0846 471.122 106.412 469.893Q132.767 466.724 159.154 463.843C159.286 467.928 159.191 472.024 159.159 476.11C136.018 479.153 112.801 482.185 89.5526 484.275C95.9937 508.583 100.656 533.342 106.677 557.755Q126.483 635.202 145.13 712.936C149.916 733.44 153.854 754.112 158.439 774.644C159.266 783.967 157.729 793.037 162.462 801.555C158.126 797.556 153.809 793.186 151.741 787.519C147.728 776.518 145.104 761.156 142.381 749.504Q134.905 717.821 126.996 686.244Q109.975 619.486 94.1702 552.43C87.7544 526.359 80.6471 500.452 75.0985 474.174Z"/>
		<path fill="#FEFEFE" d="M593.749 286.328C594.017 286.399 594.295 286.441 594.553 286.542C596.441 287.275 599.296 290.919 600.799 292.47C614.783 306.894 624.422 324.256 628.841 343.874C624.517 345.952 620.386 347.257 615.669 348.13Q614.209 348.171 612.749 348.134C603.404 347.938 595.214 344.918 588.753 337.982C582.529 331.299 579.554 322.197 579.985 313.131C580.516 301.954 585.585 293.638 593.749 286.328Z"/>
		<path fill="#FEFEFE" d="M609.869 280.174C611.645 279.97 613.372 279.931 615.158 280.04C623.772 280.565 632.528 284.995 638.173 291.499Q638.737 292.148 639.268 292.824Q639.8 293.501 640.297 294.202Q640.794 294.904 641.256 295.63Q641.718 296.355 642.143 297.103Q642.569 297.85 642.957 298.617Q643.345 299.385 643.694 300.171Q644.044 300.957 644.354 301.759Q644.664 302.561 644.934 303.377Q645.204 304.194 645.434 305.023Q645.663 305.851 645.851 306.691Q646.04 307.53 646.186 308.377Q646.333 309.225 646.437 310.078Q646.541 310.932 646.603 311.79Q646.665 312.647 646.685 313.507Q646.705 314.367 646.682 315.227Q646.659 316.086 646.593 316.944C645.91 326.214 641.714 333.604 634.8 339.644C633.862 340.204 633.976 340.287 632.796 340.229C632.266 339.532 631.986 339.012 631.825 338.144C631.081 334.118 629.628 330.453 628.148 326.644C621.411 309.315 610.813 296.688 597.986 283.599C601.934 281.714 605.544 280.748 609.869 280.174Z"/>
		<path fill="#FEFEFE" d="M781.002 797.498Q825.502 797.755 870.002 797.539C866.929 801.595 863.535 804.862 859.601 808.078C847.307 817.178 832.53 820.315 817.448 818.41Q816.111 818.239 814.784 818.003Q813.457 817.766 812.143 817.465Q810.829 817.163 809.532 816.797Q808.234 816.432 806.957 816.003Q805.679 815.573 804.424 815.082Q803.169 814.59 801.939 814.038Q800.71 813.485 799.509 812.873Q798.308 812.26 797.139 811.589Q795.97 810.919 794.835 810.191Q793.7 809.463 792.603 808.681Q791.505 807.898 790.448 807.063Q789.39 806.227 788.375 805.341Q787.359 804.454 786.389 803.519Q785.418 802.583 784.495 801.601Q783.572 800.619 782.698 799.593Q781.824 798.566 781.002 797.498Z"/>
		<path fill="#FEFEFE" d="M150.103 319.089C164.185 307.188 179.752 296.515 194.465 285.39L227.387 260.812C235.171 254.925 242.702 248.707 250.713 243.125C252.66 247.177 254.035 251.585 255.619 255.796C227.067 277.945 199.635 301.659 170.66 323.224C163.924 321.336 156.795 321.273 150.103 319.089Z"/>
		<path d="M941.53 635.574C948.98 635.014 976.192 634.456 982.595 635.683C983.433 636.835 983.17 638.151 983.111 639.502C975.433 639.35 947.287 640.614 942.102 638.944C941.387 637.725 941.542 636.969 941.53 635.574Z"/>
	</g>
</svg>
